SplineFontDB: 3.2
FontName: ClassWizCWDisplayExt-Regular
FullName: ClassWiz CW Display Ext Regular
FamilyName: ClassWiz CW Display Ext
Weight: Regular
Copyright: Copyright (c) 2025, Hayden Wong (https://github.com/haydenwong7bm/),\nCopyright (c) 2023-2025, Windy Deng (windy0deng@gmail.com),\nCopyright (c) 2023-2025, CASIO Computer Co., Ltd (https:www.casio.com).
Version: 3.906
ItalicAngle: 0
UnderlinePosition: -20
UnderlineWidth: 10
Ascent: 112
Descent: 28
InvalidEm: 0
LayerCount: 2
Layer: 0 1 "Back" 1
Layer: 1 1 "Fore" 0
XUID: [1021 77 592130673 8228]
StyleMap: 0x0040
FSType: 0
OS2Version: 4
OS2_WeightWidthSlopeOnly: 0
OS2_UseTypoMetrics: 1
CreationTime: 1731231796
ModificationTime: 1745554845
PfmFamily: 81
TTFWeight: 400
TTFWidth: 5
LineGap: 100
VLineGap: 0
Panose: 0 0 0 0 0 0 0 0 0 0
OS2TypoAscent: 120
OS2TypoAOffset: 0
OS2TypoDescent: -10
OS2TypoDOffset: 0
OS2TypoLinegap: 20
OS2WinAscent: 140
OS2WinAOffset: 0
OS2WinDescent: 30
OS2WinDOffset: 0
HheadAscent: 750
HheadAOffset: 0
HheadDescent: -250
HheadDOffset: 0
OS2SubXSize: 650
OS2SubYSize: 600
OS2SubXOff: 0
OS2SubYOff: 75
OS2SupXSize: 650
OS2SupYSize: 600
OS2SupXOff: 0
OS2SupYOff: 350
OS2StrikeYSize: 50
OS2StrikeYPos: 300
OS2CapHeight: 120
OS2XHeight: 90
OS2Vendor: 'NONE'
OS2CodePages: 40060007.00000000
OS2UnicodeRanges: 20000207.18072001.00000000.00000000
Lookup: 1 0 0 "'aalt' Access All Alternates lookup 0" { "'aalt' Access All Alternates lookup 0 subtable"  } ['aalt' ('DFLT' <'dflt' > 'cyrl' <'dflt' > 'grek' <'dflt' > 'hani' <'dflt' > 'kana' <'dflt' > 'latn' <'dflt' > ) ]
Lookup: 1 0 0 "Single Substitution lookup 1" { "Single Substitution lookup 1 subtable"  } []
Lookup: 4 0 0 "Ligature Substitution lookup 2" { "Ligature Substitution lookup 2 subtable"  } []
Lookup: 1 0 0 "Single Substitution lookup 3" { "Single Substitution lookup 3 subtable"  } []
Lookup: 4 0 0 "Ligature Substitution lookup 4" { "Ligature Substitution lookup 4 subtable"  } []

StartChar: .notdef
Encoding: 1114112 -1 0
Width: 110
GlyphClass: 1
Flags: W
LayerCount: 2
Fore
SplineSet
0 -10 m 1,0,-1
 0 120 l 1,1,-1
 100 120 l 1,2,-1
 100 -10 l 1,3,-1
 0 -10 l 1,0,-1
10 0 m 1,4,-1
 90 0 l 1,5,-1
 90 110 l 1,6,-1
 10 110 l 1,7,-1
 10 0 l 1,4,-1
20 70 m 1,8,-1
 20 90 l 1,9,-1
 30 90 l 1,10,-1
 30 100 l 1,11,-1
 70 100 l 1,12,-1
 70 90 l 1,13,-1
 80 90 l 1,14,-1
 80 60 l 1,15,-1
 70 60 l 1,16,-1
 70 50 l 1,17,-1
 60 50 l 1,18,-1
 60 40 l 1,19,-1
 40 40 l 1,20,-1
 40 60 l 1,21,-1
 50 60 l 1,22,-1
 50 70 l 1,23,-1
 60 70 l 1,24,-1
 60 80 l 1,25,-1
 40 80 l 1,26,-1
 40 70 l 1,27,-1
 20 70 l 1,8,-1
40 10 m 1,28,-1
 40 30 l 1,29,-1
 60 30 l 1,30,-1
 60 10 l 1,31,-1
 40 10 l 1,28,-1
EndSplineSet
EndChar

StartChar: C
Encoding: 67 67 1
Width: 110
GlyphClass: 1
Flags: W
LayerCount: 2
Fore
SplineSet
10 20 m 1,0,-1
 10 100 l 1,1,-1
 20 100 l 1,2,-1
 20 110 l 1,3,-1
 30 110 l 1,4,-1
 30 120 l 1,5,-1
 80 120 l 1,6,-1
 80 110 l 1,7,-1
 90 110 l 1,8,-1
 90 90 l 1,9,-1
 70 90 l 1,10,-1
 70 100 l 1,11,-1
 40 100 l 1,12,-1
 40 90 l 1,13,-1
 30 90 l 1,14,-1
 30 30 l 1,15,-1
 40 30 l 1,16,-1
 40 20 l 1,17,-1
 70 20 l 1,18,-1
 70 30 l 1,19,-1
 90 30 l 1,20,-1
 90 10 l 1,21,-1
 80 10 l 1,22,-1
 80 0 l 1,23,-1
 30 0 l 1,24,-1
 30 10 l 1,25,-1
 20 10 l 1,26,-1
 20 20 l 1,27,-1
 10 20 l 1,0,-1
EndSplineSet
Substitution2: "'ss01' Style Set 1 lookup 5 subtable" HexC-nCr
Substitution2: "'aalt' Access All Alternates lookup 0 subtable" HexC-nCr
EndChar

StartChar: P
Encoding: 80 80 2
Width: 110
GlyphClass: 1
Flags: W
LayerCount: 2
Fore
SplineSet
10 0 m 1,0,-1
 10 120 l 1,1,-1
 80 120 l 1,2,-1
 80 110 l 1,3,-1
 90 110 l 1,4,-1
 90 60 l 1,5,-1
 80 60 l 1,6,-1
 80 50 l 1,7,-1
 30 50 l 1,8,-1
 30 0 l 1,9,-1
 10 0 l 1,0,-1
30 100 m 1,10,-1
 30 70 l 1,11,-1
 70 70 l 1,12,-1
 70 100 l 1,13,-1
 30 100 l 1,10,-1
EndSplineSet
Substitution2: "'ss01' Style Set 1 lookup 5 subtable" nPr
Substitution2: "'aalt' Access All Alternates lookup 0 subtable" nPr
EndChar

StartChar: R
Encoding: 82 82 3
Width: 110
GlyphClass: 1
Flags: W
LayerCount: 2
Fore
SplineSet
10 0 m 1,0,-1
 10 120 l 1,1,-1
 80 120 l 1,2,-1
 80 110 l 1,3,-1
 90 110 l 1,4,-1
 90 60 l 1,5,-1
 80 60 l 1,6,-1
 80 50 l 1,7,-1
 70 50 l 1,8,-1
 70 40 l 1,9,-1
 80 40 l 1,10,-1
 80 20 l 1,11,-1
 90 20 l 1,12,-1
 90 0 l 1,13,-1
 70 0 l 1,14,-1
 70 10 l 1,15,-1
 60 10 l 1,16,-1
 60 30 l 1,17,-1
 50 30 l 1,18,-1
 50 50 l 1,19,-1
 30 50 l 1,20,-1
 30 0 l 1,21,-1
 10 0 l 1,0,-1
30 100 m 1,22,-1
 30 70 l 1,23,-1
 70 70 l 1,24,-1
 70 100 l 1,25,-1
 30 100 l 1,22,-1
EndSplineSet
EndChar

StartChar: B
Encoding: 66 66 4
Width: 110
GlyphClass: 1
Flags: W
LayerCount: 2
Fore
SplineSet
10 0 m 1,0,-1
 10 120 l 1,1,-1
 80 120 l 1,2,-1
 80 110 l 1,3,-1
 90 110 l 1,4,-1
 90 70 l 1,5,-1
 80 70 l 1,6,-1
 80 60 l 1,7,-1
 90 60 l 1,8,-1
 90 10 l 1,9,-1
 80 10 l 1,10,-1
 80 0 l 1,11,-1
 10 0 l 1,0,-1
30 100 m 1,12,-1
 30 70 l 1,13,-1
 70 70 l 1,14,-1
 70 100 l 1,15,-1
 30 100 l 1,12,-1
30 20 m 1,16,-1
 70 20 l 1,17,-1
 70 50 l 1,18,-1
 30 50 l 1,19,-1
 30 20 l 1,16,-1
EndSplineSet
Substitution2: "'ss01' Style Set 1 lookup 5 subtable" HexB
Substitution2: "'aalt' Access All Alternates lookup 0 subtable" HexB
EndChar

StartChar: G
Encoding: 71 71 5
Width: 110
GlyphClass: 1
Flags: W
LayerCount: 2
Fore
SplineSet
10 20 m 1,0,-1
 10 100 l 1,1,-1
 20 100 l 1,2,-1
 20 110 l 1,3,-1
 30 110 l 1,4,-1
 30 120 l 1,5,-1
 80 120 l 1,6,-1
 80 110 l 1,7,-1
 90 110 l 1,8,-1
 90 90 l 1,9,-1
 70 90 l 1,10,-1
 70 100 l 1,11,-1
 40 100 l 1,12,-1
 40 90 l 1,13,-1
 30 90 l 1,14,-1
 30 30 l 1,15,-1
 40 30 l 1,16,-1
 40 20 l 1,17,-1
 70 20 l 1,18,-1
 70 50 l 1,19,-1
 50 50 l 1,20,-1
 50 70 l 1,21,-1
 90 70 l 1,22,-1
 90 10 l 1,23,-1
 80 10 l 1,24,-1
 80 0 l 1,25,-1
 30 0 l 1,26,-1
 30 10 l 1,27,-1
 20 10 l 1,28,-1
 20 20 l 1,29,-1
 10 20 l 1,0,-1
EndSplineSet
EndChar

StartChar: O
Encoding: 79 79 6
Width: 110
GlyphClass: 1
Flags: W
LayerCount: 2
Fore
SplineSet
10 20 m 1,0,-1
 10 100 l 1,1,-1
 20 100 l 1,2,-1
 20 110 l 1,3,-1
 30 110 l 1,4,-1
 30 120 l 1,5,-1
 80 120 l 1,6,-1
 80 110 l 1,7,-1
 90 110 l 1,8,-1
 90 100 l 1,9,-1
 100 100 l 1,10,-1
 100 20 l 1,11,-1
 90 20 l 1,12,-1
 90 10 l 1,13,-1
 80 10 l 1,14,-1
 80 0 l 1,15,-1
 30 0 l 1,16,-1
 30 10 l 1,17,-1
 20 10 l 1,18,-1
 20 20 l 1,19,-1
 10 20 l 1,0,-1
40 20 m 1,20,-1
 70 20 l 1,21,-1
 70 30 l 1,22,-1
 80 30 l 1,23,-1
 80 90 l 1,24,-1
 70 90 l 1,25,-1
 70 100 l 1,26,-1
 40 100 l 1,27,-1
 40 90 l 1,28,-1
 30 90 l 1,29,-1
 30 30 l 1,30,-1
 40 30 l 1,31,-1
 40 20 l 1,20,-1
EndSplineSet
EndChar

StartChar: Q
Encoding: 81 81 7
Width: 110
GlyphClass: 1
Flags: W
LayerCount: 2
Fore
SplineSet
10 20 m 1,0,-1
 10 100 l 1,1,-1
 20 100 l 1,2,-1
 20 110 l 1,3,-1
 30 110 l 1,4,-1
 30 120 l 1,5,-1
 80 120 l 1,6,-1
 80 110 l 1,7,-1
 90 110 l 1,8,-1
 90 100 l 1,9,-1
 100 100 l 1,10,-1
 100 20 l 1,11,-1
 90 20 l 1,12,-1
 90 10 l 1,13,-1
 100 10 l 1,14,-1
 100 -10 l 1,15,-1
 80 -10 l 1,16,-1
 80 0 l 1,17,-1
 30 0 l 1,18,-1
 30 10 l 1,19,-1
 20 10 l 1,20,-1
 20 20 l 1,21,-1
 10 20 l 1,0,-1
30 40 m 1,22,-1
 40 40 l 1,23,-1
 40 50 l 1,24,-1
 70 50 l 1,25,-1
 70 40 l 1,26,-1
 80 40 l 1,27,-1
 80 90 l 1,28,-1
 70 90 l 1,29,-1
 70 100 l 1,30,-1
 40 100 l 1,31,-1
 40 90 l 1,32,-1
 30 90 l 1,33,-1
 30 40 l 1,22,-1
40 20 m 1,34,-1
 70 20 l 1,35,-1
 70 30 l 1,36,-1
 40 30 l 1,37,-1
 40 20 l 1,34,-1
EndSplineSet
EndChar

StartChar: T
Encoding: 84 84 8
Width: 110
GlyphClass: 1
Flags: W
LayerCount: 2
Fore
SplineSet
10 100 m 1,0,-1
 10 120 l 1,1,-1
 90 120 l 1,2,-1
 90 100 l 1,3,-1
 60 100 l 1,4,-1
 60 0 l 1,5,-1
 40 0 l 1,6,-1
 40 100 l 1,7,-1
 10 100 l 1,0,-1
EndSplineSet
EndChar

StartChar: D
Encoding: 68 68 9
Width: 110
GlyphClass: 1
Flags: W
LayerCount: 2
Fore
SplineSet
90 20 m 1,0,-1
 80 20 l 1,1,-1
 80 10 l 1,2,-1
 70 10 l 1,3,-1
 70 0 l 1,4,-1
 10 0 l 1,5,-1
 10 120 l 1,6,-1
 70 120 l 1,7,-1
 70 110 l 1,8,-1
 80 110 l 1,9,-1
 80 100 l 1,10,-1
 90 100 l 1,11,-1
 90 20 l 1,0,-1
30 20 m 1,12,-1
 60 20 l 1,13,-1
 60 30 l 1,14,-1
 70 30 l 1,15,-1
 70 90 l 1,16,-1
 60 90 l 1,17,-1
 60 100 l 1,18,-1
 30 100 l 1,19,-1
 30 20 l 1,12,-1
EndSplineSet
Substitution2: "'ss01' Style Set 1 lookup 5 subtable" HexD
Substitution2: "'aalt' Access All Alternates lookup 0 subtable" HexD
EndChar

StartChar: F
Encoding: 70 70 10
Width: 110
GlyphClass: 1
Flags: W
LayerCount: 2
Fore
SplineSet
10 0 m 1,0,-1
 10 120 l 1,1,-1
 90 120 l 1,2,-1
 90 100 l 1,3,-1
 30 100 l 1,4,-1
 30 70 l 1,5,-1
 80 70 l 1,6,-1
 80 50 l 1,7,-1
 30 50 l 1,8,-1
 30 0 l 1,9,-1
 10 0 l 1,0,-1
EndSplineSet
Substitution2: "'ss01' Style Set 1 lookup 5 subtable" HexF
Substitution2: "'aalt' Access All Alternates lookup 0 subtable" HexF
EndChar

StartChar: E
Encoding: 69 69 11
Width: 110
GlyphClass: 1
Flags: W
LayerCount: 2
Fore
SplineSet
10 0 m 1,0,-1
 10 120 l 1,1,-1
 90 120 l 1,2,-1
 90 100 l 1,3,-1
 30 100 l 1,4,-1
 30 70 l 1,5,-1
 80 70 l 1,6,-1
 80 50 l 1,7,-1
 30 50 l 1,8,-1
 30 20 l 1,9,-1
 90 20 l 1,10,-1
 90 0 l 1,11,-1
 10 0 l 1,0,-1
EndSplineSet
Substitution2: "'ss01' Style Set 1 lookup 5 subtable" HexE
Substitution2: "'aalt' Access All Alternates lookup 0 subtable" HexE
EndChar

StartChar: I
Encoding: 73 73 12
Width: 110
GlyphClass: 1
Flags: W
LayerCount: 2
Fore
SplineSet
20 100 m 1,0,-1
 20 120 l 1,1,-1
 80 120 l 1,2,-1
 80 100 l 1,3,-1
 60 100 l 1,4,-1
 60 20 l 1,5,-1
 80 20 l 1,6,-1
 80 0 l 1,7,-1
 20 0 l 1,8,-1
 20 20 l 1,9,-1
 40 20 l 1,10,-1
 40 100 l 1,11,-1
 20 100 l 1,0,-1
EndSplineSet
EndChar

StartChar: L
Encoding: 76 76 13
Width: 110
GlyphClass: 1
Flags: W
LayerCount: 2
Fore
SplineSet
10 0 m 1,0,-1
 10 120 l 1,1,-1
 30 120 l 1,2,-1
 30 20 l 1,3,-1
 90 20 l 1,4,-1
 90 0 l 1,5,-1
 10 0 l 1,0,-1
EndSplineSet
EndChar

StartChar: H
Encoding: 72 72 14
Width: 110
GlyphClass: 1
Flags: W
LayerCount: 2
Fore
SplineSet
10 0 m 1,0,-1
 10 120 l 1,1,-1
 30 120 l 1,2,-1
 30 70 l 1,3,-1
 70 70 l 1,4,-1
 70 120 l 1,5,-1
 90 120 l 1,6,-1
 90 0 l 1,7,-1
 70 0 l 1,8,-1
 70 50 l 1,9,-1
 30 50 l 1,10,-1
 30 0 l 1,11,-1
 10 0 l 1,0,-1
EndSplineSet
EndChar

StartChar: zero
Encoding: 48 48 15
Width: 110
GlyphClass: 1
Flags: W
LayerCount: 2
Fore
SplineSet
10 10 m 1,0,-1
 10 110 l 1,1,-1
 20 110 l 1,2,-1
 20 120 l 1,3,-1
 80 120 l 1,4,-1
 80 110 l 1,5,-1
 90 110 l 1,6,-1
 90 10 l 1,7,-1
 80 10 l 1,8,-1
 80 0 l 1,9,-1
 20 0 l 1,10,-1
 20 10 l 1,11,-1
 10 10 l 1,0,-1
30 20 m 1,12,-1
 70 20 l 1,13,-1
 70 100 l 1,14,-1
 30 100 l 1,15,-1
 30 20 l 1,12,-1
EndSplineSet
EndChar

StartChar: eight
Encoding: 56 56 16
Width: 110
GlyphClass: 1
Flags: W
LayerCount: 2
Fore
SplineSet
10 70 m 1,0,-1
 10 110 l 1,1,-1
 20 110 l 1,2,-1
 20 120 l 1,3,-1
 80 120 l 1,4,-1
 80 110 l 1,5,-1
 90 110 l 1,6,-1
 90 70 l 1,7,-1
 80 70 l 1,8,-1
 80 60 l 1,9,-1
 90 60 l 1,10,-1
 90 10 l 1,11,-1
 80 10 l 1,12,-1
 80 0 l 1,13,-1
 20 0 l 1,14,-1
 20 10 l 1,15,-1
 10 10 l 1,16,-1
 10 60 l 1,17,-1
 20 60 l 1,18,-1
 20 70 l 1,19,-1
 10 70 l 1,0,-1
30 70 m 1,20,-1
 70 70 l 1,21,-1
 70 100 l 1,22,-1
 30 100 l 1,23,-1
 30 70 l 1,20,-1
30 20 m 1,24,-1
 70 20 l 1,25,-1
 70 50 l 1,26,-1
 30 50 l 1,27,-1
 30 20 l 1,24,-1
EndSplineSet
EndChar

StartChar: three
Encoding: 51 51 17
Width: 110
GlyphClass: 1
Flags: W
LayerCount: 2
Fore
SplineSet
70 100 m 1,0,-1
 30 100 l 1,1,-1
 30 90 l 1,2,-1
 10 90 l 1,3,-1
 10 110 l 1,4,-1
 20 110 l 1,5,-1
 20 120 l 1,6,-1
 80 120 l 1,7,-1
 80 110 l 1,8,-1
 90 110 l 1,9,-1
 90 70 l 1,10,-1
 80 70 l 1,11,-1
 80 60 l 1,12,-1
 90 60 l 1,13,-1
 90 10 l 1,14,-1
 80 10 l 1,15,-1
 80 0 l 1,16,-1
 20 0 l 1,17,-1
 20 10 l 1,18,-1
 10 10 l 1,19,-1
 10 30 l 1,20,-1
 30 30 l 1,21,-1
 30 20 l 1,22,-1
 70 20 l 1,23,-1
 70 50 l 1,24,-1
 30 50 l 1,25,-1
 30 70 l 1,26,-1
 70 70 l 1,27,-1
 70 100 l 1,0,-1
EndSplineSet
EndChar

StartChar: six
Encoding: 54 54 18
Width: 110
GlyphClass: 1
Flags: W
LayerCount: 2
Fore
SplineSet
30 100 m 1,0,-1
 30 70 l 1,1,-1
 80 70 l 1,2,-1
 80 60 l 1,3,-1
 90 60 l 1,4,-1
 90 10 l 1,5,-1
 80 10 l 1,6,-1
 80 0 l 1,7,-1
 20 0 l 1,8,-1
 20 10 l 1,9,-1
 10 10 l 1,10,-1
 10 110 l 1,11,-1
 20 110 l 1,12,-1
 20 120 l 1,13,-1
 80 120 l 1,14,-1
 80 110 l 1,15,-1
 90 110 l 1,16,-1
 90 90 l 1,17,-1
 70 90 l 1,18,-1
 70 100 l 1,19,-1
 30 100 l 1,0,-1
30 20 m 1,20,-1
 70 20 l 1,21,-1
 70 50 l 1,22,-1
 30 50 l 1,23,-1
 30 20 l 1,20,-1
EndSplineSet
EndChar

StartChar: nine
Encoding: 57 57 19
Width: 110
GlyphClass: 1
Flags: W
LayerCount: 2
Fore
SplineSet
70 20 m 1,0,-1
 70 50 l 1,1,-1
 20 50 l 1,2,-1
 20 60 l 1,3,-1
 10 60 l 1,4,-1
 10 110 l 1,5,-1
 20 110 l 1,6,-1
 20 120 l 1,7,-1
 80 120 l 1,8,-1
 80 110 l 1,9,-1
 90 110 l 1,10,-1
 90 10 l 1,11,-1
 80 10 l 1,12,-1
 80 0 l 1,13,-1
 20 0 l 1,14,-1
 20 10 l 1,15,-1
 10 10 l 1,16,-1
 10 30 l 1,17,-1
 30 30 l 1,18,-1
 30 20 l 1,19,-1
 70 20 l 1,0,-1
70 100 m 1,20,-1
 30 100 l 1,21,-1
 30 70 l 1,22,-1
 70 70 l 1,23,-1
 70 100 l 1,20,-1
EndSplineSet
EndChar

StartChar: U
Encoding: 85 85 20
Width: 110
GlyphClass: 1
Flags: W
LayerCount: 2
Fore
SplineSet
20 10 m 1,0,-1
 10 10 l 1,1,-1
 10 120 l 1,2,-1
 30 120 l 1,3,-1
 30 20 l 1,4,-1
 70 20 l 1,5,-1
 70 120 l 1,6,-1
 90 120 l 1,7,-1
 90 10 l 1,8,-1
 80 10 l 1,9,-1
 80 0 l 1,10,-1
 20 0 l 1,11,-1
 20 10 l 1,0,-1
EndSplineSet
EndChar

StartChar: bar
Encoding: 124 124 21
Width: 110
VWidth: 0
GlyphClass: 1
Flags: W
LayerCount: 2
Fore
SplineSet
40 120 m 257,0,-1
 60 120 l 257,1,-1
 60 0 l 257,2,-1
 40 0 l 257,3,-1
 40 120 l 257,0,-1
EndSplineSet
Substitution2: "'ss02' Style Set 2 lookup 10 subtable" bar.ss02
Substitution2: "'aalt' Access All Alternates lookup 0 subtable" bar.ss01
Substitution2: "'ss01' Style Set 1 lookup 5 subtable" bar.ss01
EndChar

StartChar: plus
Encoding: 43 43 22
Width: 110
GlyphClass: 1
Flags: W
LayerCount: 2
Fore
SplineSet
40 110 m 1,0,-1
 60 110 l 1,1,-1
 60 70 l 1,2,-1
 100 70 l 1,3,-1
 100 50 l 1,4,-1
 60 50 l 1,5,-1
 60 10 l 1,6,-1
 40 10 l 1,7,-1
 40 50 l 1,8,-1
 0 50 l 1,9,-1
 0 70 l 1,10,-1
 40 70 l 1,11,-1
 40 110 l 1,0,-1
EndSplineSet
EndChar

StartChar: hyphen
Encoding: 45 45 23
Width: 110
GlyphClass: 1
Flags: W
LayerCount: 2
Fore
SplineSet
0 70 m 1,0,-1
 100 70 l 1,1,-1
 100 50 l 1,2,-1
 0 50 l 1,3,-1
 0 70 l 1,0,-1
EndSplineSet
EndChar

StartChar: five
Encoding: 53 53 24
Width: 110
GlyphClass: 1
Flags: W
LayerCount: 2
Fore
SplineSet
90 100 m 1,0,-1
 30 100 l 1,1,-1
 30 80 l 1,2,-1
 80 80 l 1,3,-1
 80 70 l 1,4,-1
 90 70 l 1,5,-1
 90 10 l 1,6,-1
 80 10 l 1,7,-1
 80 0 l 1,8,-1
 20 0 l 1,9,-1
 20 10 l 1,10,-1
 10 10 l 1,11,-1
 10 30 l 1,12,-1
 30 30 l 1,13,-1
 30 20 l 1,14,-1
 70 20 l 1,15,-1
 70 60 l 1,16,-1
 10 60 l 1,17,-1
 10 120 l 1,18,-1
 90 120 l 1,19,-1
 90 100 l 1,0,-1
EndSplineSet
EndChar

StartChar: J
Encoding: 74 74 25
Width: 110
GlyphClass: 1
Flags: W
LayerCount: 2
Fore
SplineSet
20 -10 m 1,0,-1
 20 10 l 1,1,-1
 50 10 l 1,2,-1
 50 20 l 1,3,-1
 60 20 l 1,4,-1
 60 120 l 1,5,-1
 80 120 l 1,6,-1
 80 10 l 1,7,-1
 70 10 l 1,8,-1
 70 0 l 1,9,-1
 60 0 l 1,10,-1
 60 -10 l 1,11,-1
 20 -10 l 1,0,-1
EndSplineSet
EndChar

StartChar: A
Encoding: 65 65 26
Width: 110
GlyphClass: 1
Flags: W
LayerCount: 2
Fore
SplineSet
10 0 m 1,0,-1
 10 50 l 1,1,-1
 20 50 l 1,2,-1
 20 80 l 1,3,-1
 30 80 l 1,4,-1
 30 100 l 1,5,-1
 40 100 l 1,6,-1
 40 120 l 1,7,-1
 70 120 l 1,8,-1
 70 100 l 1,9,-1
 80 100 l 1,10,-1
 80 80 l 1,11,-1
 90 80 l 1,12,-1
 90 50 l 1,13,-1
 100 50 l 1,14,-1
 100 0 l 1,15,-1
 80 0 l 1,16,-1
 80 30 l 1,17,-1
 30 30 l 1,18,-1
 30 0 l 1,19,-1
 10 0 l 1,0,-1
70 50 m 1,20,-1
 70 70 l 1,21,-1
 60 70 l 1,22,-1
 60 90 l 1,23,-1
 50 90 l 1,24,-1
 50 70 l 1,25,-1
 40 70 l 1,26,-1
 40 50 l 1,27,-1
 70 50 l 1,20,-1
EndSplineSet
Substitution2: "'ss01' Style Set 1 lookup 5 subtable" HexA
Substitution2: "'aalt' Access All Alternates lookup 0 subtable" HexA
EndChar

StartChar: K
Encoding: 75 75 27
Width: 110
GlyphClass: 1
Flags: W
LayerCount: 2
Fore
SplineSet
10 0 m 1,0,-1
 10 120 l 1,1,-1
 30 120 l 1,2,-1
 30 80 l 1,3,-1
 40 80 l 1,4,-1
 40 90 l 1,5,-1
 50 90 l 1,6,-1
 50 100 l 1,7,-1
 60 100 l 1,8,-1
 60 110 l 1,9,-1
 70 110 l 1,10,-1
 70 120 l 1,11,-1
 90 120 l 1,12,-1
 90 100 l 1,13,-1
 80 100 l 1,14,-1
 80 90 l 1,15,-1
 70 90 l 1,16,-1
 70 80 l 1,17,-1
 60 80 l 1,18,-1
 60 70 l 1,19,-1
 70 70 l 1,20,-1
 70 50 l 1,21,-1
 80 50 l 1,22,-1
 80 30 l 1,23,-1
 90 30 l 1,24,-1
 90 0 l 1,25,-1
 70 0 l 1,26,-1
 70 20 l 1,27,-1
 60 20 l 1,28,-1
 60 40 l 1,29,-1
 50 40 l 1,30,-1
 50 60 l 1,31,-1
 40 60 l 1,32,-1
 40 50 l 1,33,-1
 30 50 l 1,34,-1
 30 0 l 1,35,-1
 10 0 l 1,0,-1
EndSplineSet
EndChar

StartChar: M
Encoding: 77 77 28
Width: 110
GlyphClass: 1
Flags: W
LayerCount: 2
Fore
SplineSet
10 0 m 1,0,-1
 10 120 l 1,1,-1
 30 120 l 1,2,-1
 30 90 l 1,3,-1
 40 90 l 1,4,-1
 40 60 l 1,5,-1
 60 60 l 1,6,-1
 60 90 l 1,7,-1
 70 90 l 1,8,-1
 70 120 l 1,9,-1
 90 120 l 1,10,-1
 90 0 l 1,11,-1
 70 0 l 1,12,-1
 70 40 l 1,13,-1
 60 40 l 1,14,-1
 60 0 l 1,15,-1
 40 0 l 1,16,-1
 40 40 l 1,17,-1
 30 40 l 1,18,-1
 30 0 l 1,19,-1
 10 0 l 1,0,-1
EndSplineSet
EndChar

StartChar: N
Encoding: 78 78 29
Width: 110
GlyphClass: 1
Flags: W
LayerCount: 2
Fore
SplineSet
10 0 m 1,0,-1
 10 120 l 1,1,-1
 30 120 l 1,2,-1
 30 110 l 1,3,-1
 40 110 l 1,4,-1
 40 90 l 1,5,-1
 50 90 l 1,6,-1
 50 70 l 1,7,-1
 60 70 l 1,8,-1
 60 50 l 1,9,-1
 70 50 l 1,10,-1
 70 120 l 1,11,-1
 90 120 l 1,12,-1
 90 0 l 1,13,-1
 70 0 l 1,14,-1
 70 10 l 1,15,-1
 60 10 l 1,16,-1
 60 30 l 1,17,-1
 50 30 l 1,18,-1
 50 50 l 1,19,-1
 40 50 l 1,20,-1
 40 70 l 1,21,-1
 30 70 l 1,22,-1
 30 0 l 1,23,-1
 10 0 l 1,0,-1
EndSplineSet
EndChar

StartChar: S
Encoding: 83 83 30
Width: 110
GlyphClass: 1
Flags: W
LayerCount: 2
Fore
SplineSet
80 90 m 1,0,-1
 80 100 l 1,1,-1
 40 100 l 1,2,-1
 40 90 l 1,3,-1
 30 90 l 1,4,-1
 30 80 l 1,5,-1
 40 80 l 1,6,-1
 40 70 l 1,7,-1
 80 70 l 1,8,-1
 80 60 l 1,9,-1
 90 60 l 1,10,-1
 90 50 l 1,11,-1
 100 50 l 1,12,-1
 100 20 l 1,13,-1
 90 20 l 1,14,-1
 90 10 l 1,15,-1
 80 10 l 1,16,-1
 80 0 l 1,17,-1
 20 0 l 1,18,-1
 20 10 l 1,19,-1
 10 10 l 1,20,-1
 10 30 l 1,21,-1
 30 30 l 1,22,-1
 30 20 l 1,23,-1
 70 20 l 1,24,-1
 70 30 l 1,25,-1
 80 30 l 1,26,-1
 80 40 l 1,27,-1
 70 40 l 1,28,-1
 70 50 l 1,29,-1
 30 50 l 1,30,-1
 30 60 l 1,31,-1
 20 60 l 1,32,-1
 20 70 l 1,33,-1
 10 70 l 1,34,-1
 10 100 l 1,35,-1
 20 100 l 1,36,-1
 20 110 l 1,37,-1
 30 110 l 1,38,-1
 30 120 l 1,39,-1
 90 120 l 1,40,-1
 90 110 l 1,41,-1
 100 110 l 1,42,-1
 100 90 l 1,43,-1
 80 90 l 1,0,-1
EndSplineSet
EndChar

StartChar: V
Encoding: 86 86 31
Width: 110
GlyphClass: 1
Flags: W
LayerCount: 2
Fore
SplineSet
10 80 m 1,0,-1
 10 120 l 1,1,-1
 30 120 l 1,2,-1
 30 90 l 1,3,-1
 40 90 l 1,4,-1
 40 60 l 1,5,-1
 50 60 l 1,6,-1
 50 30 l 1,7,-1
 60 30 l 1,8,-1
 60 60 l 1,9,-1
 70 60 l 1,10,-1
 70 90 l 1,11,-1
 80 90 l 1,12,-1
 80 120 l 1,13,-1
 100 120 l 1,14,-1
 100 80 l 1,15,-1
 90 80 l 1,16,-1
 90 50 l 1,17,-1
 80 50 l 1,18,-1
 80 20 l 1,19,-1
 70 20 l 1,20,-1
 70 0 l 1,21,-1
 40 0 l 1,22,-1
 40 20 l 1,23,-1
 30 20 l 1,24,-1
 30 50 l 1,25,-1
 20 50 l 1,26,-1
 20 80 l 1,27,-1
 10 80 l 1,0,-1
EndSplineSet
EndChar

StartChar: W
Encoding: 87 87 32
Width: 110
GlyphClass: 1
Flags: W
LayerCount: 2
Fore
SplineSet
90 120 m 1,0,-1
 90 50 l 1,1,-1
 80 50 l 1,2,-1
 80 0 l 1,3,-1
 60 0 l 1,4,-1
 60 30 l 1,5,-1
 40 30 l 1,6,-1
 40 0 l 1,7,-1
 20 0 l 1,8,-1
 20 50 l 1,9,-1
 10 50 l 1,10,-1
 10 120 l 1,11,-1
 30 120 l 1,12,-1
 30 50 l 1,13,-1
 40 50 l 1,14,-1
 40 100 l 1,15,-1
 60 100 l 1,16,-1
 60 50 l 1,17,-1
 70 50 l 1,18,-1
 70 120 l 1,19,-1
 90 120 l 1,0,-1
EndSplineSet
EndChar

StartChar: X
Encoding: 88 88 33
Width: 110
GlyphClass: 1
Flags: W
LayerCount: 2
Fore
SplineSet
10 90 m 1,0,-1
 10 120 l 1,1,-1
 30 120 l 1,2,-1
 30 100 l 1,3,-1
 40 100 l 1,4,-1
 40 80 l 1,5,-1
 60 80 l 1,6,-1
 60 100 l 1,7,-1
 70 100 l 1,8,-1
 70 120 l 1,9,-1
 90 120 l 1,10,-1
 90 90 l 1,11,-1
 80 90 l 1,12,-1
 80 70 l 1,13,-1
 70 70 l 1,14,-1
 70 50 l 1,15,-1
 80 50 l 1,16,-1
 80 30 l 1,17,-1
 90 30 l 1,18,-1
 90 0 l 1,19,-1
 70 0 l 1,20,-1
 70 20 l 1,21,-1
 60 20 l 1,22,-1
 60 40 l 1,23,-1
 40 40 l 1,24,-1
 40 20 l 1,25,-1
 30 20 l 1,26,-1
 30 0 l 1,27,-1
 10 0 l 1,28,-1
 10 30 l 1,29,-1
 20 30 l 1,30,-1
 20 50 l 1,31,-1
 30 50 l 1,32,-1
 30 70 l 1,33,-1
 20 70 l 1,34,-1
 20 90 l 1,35,-1
 10 90 l 1,0,-1
EndSplineSet
EndChar

StartChar: Y
Encoding: 89 89 34
Width: 110
GlyphClass: 1
Flags: W
LayerCount: 2
Fore
SplineSet
70 50 m 1,0,-1
 60 50 l 1,1,-1
 60 0 l 1,2,-1
 40 0 l 1,3,-1
 40 50 l 1,4,-1
 30 50 l 1,5,-1
 30 70 l 1,6,-1
 20 70 l 1,7,-1
 20 90 l 1,8,-1
 10 90 l 1,9,-1
 10 120 l 1,10,-1
 30 120 l 1,11,-1
 30 100 l 1,12,-1
 40 100 l 1,13,-1
 40 80 l 1,14,-1
 60 80 l 1,15,-1
 60 100 l 1,16,-1
 70 100 l 1,17,-1
 70 120 l 1,18,-1
 90 120 l 1,19,-1
 90 90 l 1,20,-1
 80 90 l 1,21,-1
 80 70 l 1,22,-1
 70 70 l 1,23,-1
 70 50 l 1,0,-1
EndSplineSet
EndChar

StartChar: Z
Encoding: 90 90 35
Width: 110
GlyphClass: 1
Flags: W
LayerCount: 2
Fore
SplineSet
10 100 m 1,0,-1
 10 120 l 1,1,-1
 90 120 l 1,2,-1
 90 90 l 1,3,-1
 80 90 l 1,4,-1
 80 80 l 1,5,-1
 70 80 l 1,6,-1
 70 60 l 1,7,-1
 60 60 l 1,8,-1
 60 50 l 1,9,-1
 50 50 l 1,10,-1
 50 30 l 1,11,-1
 40 30 l 1,12,-1
 40 20 l 1,13,-1
 90 20 l 1,14,-1
 90 0 l 1,15,-1
 10 0 l 1,16,-1
 10 30 l 1,17,-1
 20 30 l 1,18,-1
 20 40 l 1,19,-1
 30 40 l 1,20,-1
 30 60 l 1,21,-1
 40 60 l 1,22,-1
 40 70 l 1,23,-1
 50 70 l 1,24,-1
 50 90 l 1,25,-1
 60 90 l 1,26,-1
 60 100 l 1,27,-1
 10 100 l 1,0,-1
EndSplineSet
EndChar

StartChar: one
Encoding: 49 49 36
Width: 110
GlyphClass: 1
Flags: W
LayerCount: 2
Fore
SplineSet
50 0 m 1,0,-1
 50 90 l 1,1,-1
 40 90 l 1,2,-1
 40 80 l 1,3,-1
 20 80 l 1,4,-1
 20 100 l 1,5,-1
 30 100 l 1,6,-1
 30 110 l 1,7,-1
 40 110 l 1,8,-1
 40 120 l 1,9,-1
 70 120 l 1,10,-1
 70 0 l 1,11,-1
 50 0 l 1,0,-1
EndSplineSet
EndChar

StartChar: four
Encoding: 52 52 37
Width: 110
GlyphClass: 1
Flags: W
LayerCount: 2
Fore
SplineSet
60 0 m 1,0,-1
 60 20 l 1,1,-1
 10 20 l 1,2,-1
 10 60 l 1,3,-1
 20 60 l 1,4,-1
 20 80 l 1,5,-1
 30 80 l 1,6,-1
 30 100 l 1,7,-1
 40 100 l 1,8,-1
 40 110 l 1,9,-1
 50 110 l 1,10,-1
 50 120 l 1,11,-1
 80 120 l 1,12,-1
 80 40 l 1,13,-1
 90 40 l 1,14,-1
 90 20 l 1,15,-1
 80 20 l 1,16,-1
 80 0 l 1,17,-1
 60 0 l 1,0,-1
30 40 m 1,18,-1
 60 40 l 1,19,-1
 60 90 l 1,20,-1
 50 90 l 1,21,-1
 50 70 l 1,22,-1
 40 70 l 1,23,-1
 40 50 l 1,24,-1
 30 50 l 1,25,-1
 30 40 l 1,18,-1
EndSplineSet
EndChar

StartChar: seven
Encoding: 55 55 38
Width: 110
GlyphClass: 1
Flags: W
LayerCount: 2
Fore
SplineSet
30 0 m 1,0,-1
 30 30 l 1,1,-1
 40 30 l 1,2,-1
 40 50 l 1,3,-1
 50 50 l 1,4,-1
 50 70 l 1,5,-1
 60 70 l 1,6,-1
 60 90 l 1,7,-1
 70 90 l 1,8,-1
 70 100 l 1,9,-1
 10 100 l 1,10,-1
 10 120 l 1,11,-1
 90 120 l 1,12,-1
 90 80 l 1,13,-1
 80 80 l 1,14,-1
 80 60 l 1,15,-1
 70 60 l 1,16,-1
 70 40 l 1,17,-1
 60 40 l 1,18,-1
 60 20 l 1,19,-1
 50 20 l 1,20,-1
 50 0 l 1,21,-1
 30 0 l 1,0,-1
EndSplineSet
EndChar

StartChar: two
Encoding: 50 50 39
Width: 110
GlyphClass: 1
Flags: W
LayerCount: 2
Fore
SplineSet
10 0 m 1,0,-1
 10 30 l 1,1,-1
 20 30 l 1,2,-1
 20 40 l 1,3,-1
 30 40 l 1,4,-1
 30 50 l 1,5,-1
 40 50 l 1,6,-1
 40 60 l 1,7,-1
 60 60 l 1,8,-1
 60 70 l 1,9,-1
 70 70 l 1,10,-1
 70 100 l 1,11,-1
 30 100 l 1,12,-1
 30 90 l 1,13,-1
 10 90 l 1,14,-1
 10 110 l 1,15,-1
 20 110 l 1,16,-1
 20 120 l 1,17,-1
 80 120 l 1,18,-1
 80 110 l 1,19,-1
 90 110 l 1,20,-1
 90 60 l 1,21,-1
 80 60 l 1,22,-1
 80 50 l 1,23,-1
 70 50 l 1,24,-1
 70 40 l 1,25,-1
 50 40 l 1,26,-1
 50 30 l 1,27,-1
 40 30 l 1,28,-1
 40 20 l 1,29,-1
 90 20 l 1,30,-1
 90 0 l 1,31,-1
 10 0 l 1,0,-1
EndSplineSet
EndChar

StartChar: percent
Encoding: 37 37 40
Width: 110
GlyphClass: 1
Flags: W
LayerCount: 2
Fore
SplineSet
0 80 m 1,0,-1
 0 110 l 1,1,-1
 10 110 l 1,2,-1
 10 120 l 1,3,-1
 40 120 l 1,4,-1
 40 110 l 1,5,-1
 50 110 l 1,6,-1
 50 90 l 1,7,-1
 60 90 l 1,8,-1
 60 110 l 1,9,-1
 70 110 l 1,10,-1
 70 120 l 1,11,-1
 90 120 l 1,12,-1
 90 100 l 1,13,-1
 80 100 l 1,14,-1
 80 80 l 1,15,-1
 70 80 l 1,16,-1
 70 60 l 1,17,-1
 60 60 l 1,18,-1
 60 50 l 1,19,-1
 90 50 l 1,20,-1
 90 40 l 1,21,-1
 100 40 l 1,22,-1
 100 10 l 1,23,-1
 90 10 l 1,24,-1
 90 0 l 1,25,-1
 60 0 l 1,26,-1
 60 10 l 1,27,-1
 50 10 l 1,28,-1
 50 30 l 1,29,-1
 40 30 l 1,30,-1
 40 10 l 1,31,-1
 30 10 l 1,32,-1
 30 0 l 1,33,-1
 10 0 l 1,34,-1
 10 20 l 1,35,-1
 20 20 l 1,36,-1
 20 40 l 1,37,-1
 30 40 l 1,38,-1
 30 60 l 1,39,-1
 40 60 l 1,40,-1
 40 70 l 1,41,-1
 10 70 l 1,42,-1
 10 80 l 1,43,-1
 0 80 l 1,0,-1
30 110 m 1,44,-1
 20 110 l 1,45,-1
 20 80 l 1,46,-1
 30 80 l 1,47,-1
 30 110 l 1,44,-1
40 70 m 1,48,-1
 50 70 l 1,49,-1
 50 80 l 1,50,-1
 40 80 l 1,51,-1
 40 70 l 1,48,-1
60 40 m 1,52,-1
 60 50 l 1,53,-1
 50 50 l 1,54,-1
 50 40 l 1,55,-1
 60 40 l 1,52,-1
80 10 m 1,56,-1
 80 40 l 1,57,-1
 70 40 l 1,58,-1
 70 10 l 1,59,-1
 80 10 l 1,56,-1
EndSplineSet
EndChar

StartChar: colon
Encoding: 58 58 41
Width: 110
GlyphClass: 1
Flags: W
LayerCount: 2
Fore
SplineSet
40 70 m 1,0,-1
 40 100 l 1,1,-1
 70 100 l 1,2,-1
 70 70 l 1,3,-1
 40 70 l 1,0,-1
40 10 m 1,4,-1
 40 40 l 1,5,-1
 70 40 l 1,6,-1
 70 10 l 1,7,-1
 40 10 l 1,4,-1
EndSplineSet
EndChar

StartChar: semicolon
Encoding: 59 59 42
Width: 110
GlyphClass: 1
Flags: W
LayerCount: 2
Fore
SplineSet
40 70 m 1,0,-1
 40 100 l 1,1,-1
 70 100 l 1,2,-1
 70 70 l 1,3,-1
 40 70 l 1,0,-1
40 -10 m 1,4,-1
 40 40 l 1,5,-1
 70 40 l 1,6,-1
 70 10 l 1,7,-1
 60 10 l 1,8,-1
 60 -10 l 1,9,-1
 40 -10 l 1,4,-1
EndSplineSet
EndChar

StartChar: comma
Encoding: 44 44 43
Width: 110
GlyphClass: 1
Flags: W
LayerCount: 2
Fore
SplineSet
20 -10 m 1,0,-1
 20 40 l 1,1,-1
 50 40 l 1,2,-1
 50 10 l 1,3,-1
 40 10 l 1,4,-1
 40 -10 l 1,5,-1
 20 -10 l 1,0,-1
EndSplineSet
EndChar

StartChar: asterisk
Encoding: 42 42 44
Width: 110
GlyphClass: 1
Flags: W
LayerCount: 2
Fore
SplineSet
40 100 m 1,0,-1
 60 100 l 1,1,-1
 60 80 l 1,2,-1
 70 80 l 1,3,-1
 70 90 l 1,4,-1
 90 90 l 1,5,-1
 90 70 l 1,6,-1
 80 70 l 1,7,-1
 80 60 l 1,8,-1
 70 60 l 1,9,-1
 70 50 l 1,10,-1
 80 50 l 1,11,-1
 80 40 l 1,12,-1
 90 40 l 1,13,-1
 90 20 l 1,14,-1
 70 20 l 1,15,-1
 70 30 l 1,16,-1
 60 30 l 1,17,-1
 60 10 l 1,18,-1
 40 10 l 1,19,-1
 40 30 l 1,20,-1
 30 30 l 1,21,-1
 30 20 l 1,22,-1
 10 20 l 1,23,-1
 10 40 l 1,24,-1
 20 40 l 1,25,-1
 20 50 l 1,26,-1
 30 50 l 1,27,-1
 30 60 l 1,28,-1
 20 60 l 1,29,-1
 20 70 l 1,30,-1
 10 70 l 1,31,-1
 10 90 l 1,32,-1
 30 90 l 1,33,-1
 30 80 l 1,34,-1
 40 80 l 1,35,-1
 40 100 l 1,0,-1
EndSplineSet
EndChar

StartChar: period
Encoding: 46 46 45
Width: 110
GlyphClass: 1
Flags: W
LayerCount: 2
Fore
SplineSet
30 30 m 1,0,-1
 30 40 l 1,1,-1
 50 40 l 1,2,-1
 50 30 l 1,3,-1
 60 30 l 1,4,-1
 60 10 l 1,5,-1
 50 10 l 1,6,-1
 50 0 l 1,7,-1
 30 0 l 1,8,-1
 30 10 l 1,9,-1
 20 10 l 1,10,-1
 20 30 l 1,11,-1
 30 30 l 1,0,-1
EndSplineSet
EndChar

StartChar: multiply
Encoding: 215 215 46
Width: 110
GlyphClass: 1
Flags: W
LayerCount: 2
Fore
SplineSet
10 90 m 1,0,-1
 0 90 l 1,1,-1
 0 100 l 1,2,-1
 10 100 l 1,3,-1
 10 110 l 1,4,-1
 20 110 l 1,5,-1
 20 100 l 1,6,-1
 30 100 l 1,7,-1
 30 90 l 1,8,-1
 40 90 l 1,9,-1
 40 80 l 1,10,-1
 60 80 l 1,11,-1
 60 90 l 1,12,-1
 70 90 l 1,13,-1
 70 100 l 1,14,-1
 80 100 l 1,15,-1
 80 110 l 1,16,-1
 90 110 l 1,17,-1
 90 100 l 1,18,-1
 100 100 l 1,19,-1
 100 90 l 1,20,-1
 90 90 l 1,21,-1
 90 80 l 1,22,-1
 80 80 l 1,23,-1
 80 70 l 1,24,-1
 70 70 l 1,25,-1
 70 50 l 1,26,-1
 80 50 l 1,27,-1
 80 40 l 1,28,-1
 90 40 l 1,29,-1
 90 30 l 1,30,-1
 100 30 l 1,31,-1
 100 20 l 1,32,-1
 90 20 l 1,33,-1
 90 10 l 1,34,-1
 80 10 l 1,35,-1
 80 20 l 1,36,-1
 70 20 l 1,37,-1
 70 30 l 1,38,-1
 60 30 l 1,39,-1
 60 40 l 1,40,-1
 40 40 l 1,41,-1
 40 30 l 1,42,-1
 30 30 l 1,43,-1
 30 20 l 1,44,-1
 20 20 l 1,45,-1
 20 10 l 1,46,-1
 10 10 l 1,47,-1
 10 20 l 1,48,-1
 0 20 l 1,49,-1
 0 30 l 1,50,-1
 10 30 l 1,51,-1
 10 40 l 1,52,-1
 20 40 l 1,53,-1
 20 50 l 1,54,-1
 30 50 l 1,55,-1
 30 70 l 1,56,-1
 20 70 l 1,57,-1
 20 80 l 1,58,-1
 10 80 l 1,59,-1
 10 90 l 1,0,-1
EndSplineSet
EndChar

StartChar: divide
Encoding: 247 247 47
Width: 110
GlyphClass: 1
Flags: W
LayerCount: 2
Fore
SplineSet
40 120 m 1,0,-1
 60 120 l 1,1,-1
 60 90 l 1,2,-1
 40 90 l 1,3,-1
 40 120 l 1,0,-1
0 70 m 1,4,-1
 100 70 l 1,5,-1
 100 50 l 1,6,-1
 0 50 l 1,7,-1
 0 70 l 1,4,-1
40 30 m 1,8,-1
 60 30 l 1,9,-1
 60 0 l 1,10,-1
 40 0 l 1,11,-1
 40 30 l 1,8,-1
EndSplineSet
EndChar

StartChar: quotesingle
Encoding: 39 39 48
Width: 110
GlyphClass: 1
Flags: W
LayerCount: 2
Fore
SplineSet
40 80 m 1,0,-1
 40 120 l 1,1,-1
 60 120 l 1,2,-1
 60 80 l 1,3,-1
 40 80 l 1,0,-1
EndSplineSet
EndChar

StartChar: quotedbl
Encoding: 34 34 49
Width: 110
GlyphClass: 1
Flags: W
LayerCount: 2
Fore
SplineSet
20 80 m 1,0,-1
 20 120 l 1,1,-1
 40 120 l 1,2,-1
 40 80 l 1,3,-1
 20 80 l 1,0,-1
50 80 m 1,4,-1
 50 120 l 1,5,-1
 70 120 l 1,6,-1
 70 80 l 1,7,-1
 50 80 l 1,4,-1
EndSplineSet
EndChar

StartChar: exclam
Encoding: 33 33 50
Width: 110
GlyphClass: 1
Flags: W
LayerCount: 2
Fore
SplineSet
40 120 m 1,0,-1
 60 120 l 1,1,-1
 60 40 l 1,2,-1
 40 40 l 1,3,-1
 40 120 l 1,0,-1
40 20 m 1,4,-1
 60 20 l 1,5,-1
 60 0 l 1,6,-1
 40 0 l 1,7,-1
 40 20 l 1,4,-1
EndSplineSet
EndChar

StartChar: numbersign
Encoding: 35 35 51
Width: 110
GlyphClass: 1
Flags: W
LayerCount: 2
Fore
SplineSet
30 50 m 1,0,-1
 30 70 l 1,1,-1
 20 70 l 1,2,-1
 20 90 l 1,3,-1
 40 90 l 1,4,-1
 40 120 l 1,5,-1
 60 120 l 1,6,-1
 60 90 l 1,7,-1
 70 90 l 1,8,-1
 70 120 l 1,9,-1
 90 120 l 1,10,-1
 90 90 l 1,11,-1
 100 90 l 1,12,-1
 100 70 l 1,13,-1
 80 70 l 1,14,-1
 80 50 l 1,15,-1
 90 50 l 1,16,-1
 90 30 l 1,17,-1
 70 30 l 1,18,-1
 70 0 l 1,19,-1
 50 0 l 1,20,-1
 50 30 l 1,21,-1
 40 30 l 1,22,-1
 40 0 l 1,23,-1
 20 0 l 1,24,-1
 20 30 l 1,25,-1
 10 30 l 1,26,-1
 10 50 l 1,27,-1
 30 50 l 1,0,-1
50 50 m 1,28,-1
 60 50 l 1,29,-1
 60 70 l 1,30,-1
 50 70 l 1,31,-1
 50 50 l 1,28,-1
EndSplineSet
EndChar

StartChar: c
Encoding: 99 99 52
Width: 110
GlyphClass: 1
Flags: W
LayerCount: 2
Fore
SplineSet
10 10 m 1,0,-1
 10 80 l 1,1,-1
 20 80 l 1,2,-1
 20 90 l 1,3,-1
 80 90 l 1,4,-1
 80 80 l 1,5,-1
 90 80 l 1,6,-1
 90 60 l 1,7,-1
 70 60 l 1,8,-1
 70 70 l 1,9,-1
 30 70 l 1,10,-1
 30 20 l 1,11,-1
 70 20 l 1,12,-1
 70 30 l 1,13,-1
 90 30 l 1,14,-1
 90 10 l 1,15,-1
 80 10 l 1,16,-1
 80 0 l 1,17,-1
 20 0 l 1,18,-1
 20 10 l 1,19,-1
 10 10 l 1,0,-1
EndSplineSet
Substitution2: "Single Substitution lookup 1 subtable" Calth-gk
EndChar

StartChar: b
Encoding: 98 98 53
Width: 110
GlyphClass: 1
Flags: W
LayerCount: 2
Fore
SplineSet
10 120 m 1,0,-1
 30 120 l 1,1,-1
 30 90 l 1,2,-1
 80 90 l 1,3,-1
 80 80 l 1,4,-1
 90 80 l 1,5,-1
 90 10 l 1,6,-1
 80 10 l 1,7,-1
 80 0 l 1,8,-1
 10 0 l 1,9,-1
 10 120 l 1,0,-1
30 20 m 1,10,-1
 70 20 l 1,11,-1
 70 70 l 1,12,-1
 30 70 l 1,13,-1
 30 20 l 1,10,-1
EndSplineSet
EndChar

StartChar: d
Encoding: 100 100 54
Width: 110
GlyphClass: 1
Flags: W
LayerCount: 2
Fore
SplineSet
90 120 m 1,0,-1
 90 0 l 1,1,-1
 20 0 l 1,2,-1
 20 10 l 1,3,-1
 10 10 l 1,4,-1
 10 80 l 1,5,-1
 20 80 l 1,6,-1
 20 90 l 1,7,-1
 70 90 l 1,8,-1
 70 120 l 1,9,-1
 90 120 l 1,0,-1
70 20 m 1,10,-1
 70 70 l 1,11,-1
 30 70 l 1,12,-1
 30 20 l 1,13,-1
 70 20 l 1,10,-1
EndSplineSet
EndChar

StartChar: e
Encoding: 101 101 55
Width: 110
GlyphClass: 1
Flags: W
LayerCount: 2
Fore
SplineSet
10 10 m 1,0,-1
 10 80 l 1,1,-1
 20 80 l 1,2,-1
 20 90 l 1,3,-1
 80 90 l 1,4,-1
 80 80 l 1,5,-1
 90 80 l 1,6,-1
 90 40 l 1,7,-1
 30 40 l 1,8,-1
 30 20 l 1,9,-1
 70 20 l 1,10,-1
 70 30 l 1,11,-1
 90 30 l 1,12,-1
 90 10 l 1,13,-1
 80 10 l 1,14,-1
 80 0 l 1,15,-1
 20 0 l 1,16,-1
 20 10 l 1,17,-1
 10 10 l 1,0,-1
30 60 m 1,18,-1
 70 60 l 1,19,-1
 70 70 l 1,20,-1
 30 70 l 1,21,-1
 30 60 l 1,18,-1
EndSplineSet
EndChar

StartChar: h
Encoding: 104 104 56
Width: 110
GlyphClass: 1
Flags: W
LayerCount: 2
Fore
SplineSet
90 0 m 1,0,-1
 70 0 l 1,1,-1
 70 70 l 1,2,-1
 40 70 l 1,3,-1
 40 60 l 1,4,-1
 30 60 l 1,5,-1
 30 0 l 1,6,-1
 10 0 l 1,7,-1
 10 120 l 1,8,-1
 30 120 l 1,9,-1
 30 80 l 1,10,-1
 40 80 l 1,11,-1
 40 90 l 1,12,-1
 80 90 l 1,13,-1
 80 80 l 1,14,-1
 90 80 l 1,15,-1
 90 0 l 1,0,-1
EndSplineSet
Substitution2: "Single Substitution lookup 1 subtable" caltH-gk
EndChar

StartChar: n
Encoding: 110 110 57
Width: 110
GlyphClass: 1
Flags: W
LayerCount: 2
Fore
SplineSet
90 0 m 1,0,-1
 70 0 l 1,1,-1
 70 70 l 1,2,-1
 40 70 l 1,3,-1
 40 60 l 1,4,-1
 30 60 l 1,5,-1
 30 0 l 1,6,-1
 10 0 l 1,7,-1
 10 90 l 1,8,-1
 30 90 l 1,9,-1
 30 80 l 1,10,-1
 40 80 l 1,11,-1
 40 90 l 1,12,-1
 80 90 l 1,13,-1
 80 80 l 1,14,-1
 90 80 l 1,15,-1
 90 0 l 1,0,-1
EndSplineSet
EndChar

StartChar: o
Encoding: 111 111 58
Width: 110
GlyphClass: 1
Flags: W
LayerCount: 2
Fore
SplineSet
10 10 m 1,0,-1
 10 80 l 1,1,-1
 20 80 l 1,2,-1
 20 90 l 1,3,-1
 80 90 l 1,4,-1
 80 80 l 1,5,-1
 90 80 l 1,6,-1
 90 10 l 1,7,-1
 80 10 l 1,8,-1
 80 0 l 1,9,-1
 20 0 l 1,10,-1
 20 10 l 1,11,-1
 10 10 l 1,0,-1
30 20 m 1,12,-1
 70 20 l 1,13,-1
 70 70 l 1,14,-1
 30 70 l 1,15,-1
 30 20 l 1,12,-1
EndSplineSet
EndChar

StartChar: p
Encoding: 112 112 59
Width: 110
GlyphClass: 1
Flags: W
LayerCount: 2
Fore
SplineSet
10 -10 m 1,0,-1
 10 90 l 1,1,-1
 80 90 l 1,2,-1
 80 80 l 1,3,-1
 90 80 l 1,4,-1
 90 30 l 1,5,-1
 80 30 l 1,6,-1
 80 20 l 1,7,-1
 30 20 l 1,8,-1
 30 -10 l 1,9,-1
 10 -10 l 1,0,-1
30 70 m 1,10,-1
 30 40 l 1,11,-1
 70 40 l 1,12,-1
 70 70 l 1,13,-1
 30 70 l 1,10,-1
EndSplineSet
EndChar

StartChar: q
Encoding: 113 113 60
Width: 110
GlyphClass: 1
Flags: W
LayerCount: 2
Fore
SplineSet
90 -10 m 1,0,-1
 70 -10 l 1,1,-1
 70 20 l 1,2,-1
 20 20 l 1,3,-1
 20 30 l 1,4,-1
 10 30 l 1,5,-1
 10 80 l 1,6,-1
 20 80 l 1,7,-1
 20 90 l 1,8,-1
 90 90 l 1,9,-1
 90 -10 l 1,0,-1
70 70 m 1,10,-1
 30 70 l 1,11,-1
 30 40 l 1,12,-1
 70 40 l 1,13,-1
 70 70 l 1,10,-1
EndSplineSet
EndChar

StartChar: u
Encoding: 117 117 61
Width: 110
GlyphClass: 1
Flags: W
LayerCount: 2
Fore
SplineSet
10 90 m 1,0,-1
 30 90 l 1,1,-1
 30 20 l 1,2,-1
 60 20 l 1,3,-1
 60 30 l 1,4,-1
 70 30 l 1,5,-1
 70 90 l 1,6,-1
 90 90 l 1,7,-1
 90 0 l 1,8,-1
 70 0 l 1,9,-1
 70 10 l 1,10,-1
 60 10 l 1,11,-1
 60 0 l 1,12,-1
 20 0 l 1,13,-1
 20 10 l 1,14,-1
 10 10 l 1,15,-1
 10 90 l 1,0,-1
EndSplineSet
EndChar

StartChar: l
Encoding: 108 108 62
Width: 110
GlyphClass: 1
Flags: W
LayerCount: 2
Fore
SplineSet
20 100 m 1,0,-1
 20 120 l 1,1,-1
 60 120 l 1,2,-1
 60 20 l 1,3,-1
 80 20 l 1,4,-1
 80 0 l 1,5,-1
 20 0 l 1,6,-1
 20 20 l 1,7,-1
 40 20 l 1,8,-1
 40 100 l 1,9,-1
 20 100 l 1,0,-1
EndSplineSet
EndChar

StartChar: i
Encoding: 105 105 63
Width: 110
GlyphClass: 1
Flags: W
LayerCount: 2
Fore
SplineSet
40 100 m 1,0,-1
 40 120 l 1,1,-1
 60 120 l 1,2,-1
 60 100 l 1,3,-1
 40 100 l 1,0,-1
20 70 m 1,4,-1
 20 90 l 1,5,-1
 60 90 l 1,6,-1
 60 20 l 1,7,-1
 80 20 l 1,8,-1
 80 0 l 1,9,-1
 20 0 l 1,10,-1
 20 20 l 1,11,-1
 40 20 l 1,12,-1
 40 70 l 1,13,-1
 20 70 l 1,4,-1
EndSplineSet
EndChar

StartChar: j
Encoding: 106 106 64
Width: 110
GlyphClass: 1
Flags: W
LayerCount: 2
Fore
SplineSet
60 100 m 1,0,-1
 60 120 l 1,1,-1
 80 120 l 1,2,-1
 80 100 l 1,3,-1
 60 100 l 1,0,-1
40 70 m 1,4,-1
 40 90 l 1,5,-1
 80 90 l 1,6,-1
 80 0 l 1,7,-1
 70 0 l 1,8,-1
 70 -10 l 1,9,-1
 30 -10 l 1,10,-1
 30 10 l 1,11,-1
 60 10 l 1,12,-1
 60 70 l 1,13,-1
 40 70 l 1,4,-1
EndSplineSet
EndChar

StartChar: k
Encoding: 107 107 65
Width: 110
GlyphClass: 1
Flags: W
LayerCount: 2
Fore
SplineSet
10 0 m 1,0,-1
 10 120 l 1,1,-1
 30 120 l 1,2,-1
 30 50 l 1,3,-1
 40 50 l 1,4,-1
 40 60 l 1,5,-1
 50 60 l 1,6,-1
 50 70 l 1,7,-1
 60 70 l 1,8,-1
 60 80 l 1,9,-1
 70 80 l 1,10,-1
 70 90 l 1,11,-1
 90 90 l 1,12,-1
 90 70 l 1,13,-1
 80 70 l 1,14,-1
 80 60 l 1,15,-1
 70 60 l 1,16,-1
 70 50 l 1,17,-1
 60 50 l 1,18,-1
 60 40 l 1,19,-1
 70 40 l 1,20,-1
 70 30 l 1,21,-1
 80 30 l 1,22,-1
 80 20 l 1,23,-1
 90 20 l 1,24,-1
 90 0 l 1,25,-1
 70 0 l 1,26,-1
 70 10 l 1,27,-1
 60 10 l 1,28,-1
 60 20 l 1,29,-1
 50 20 l 1,30,-1
 50 30 l 1,31,-1
 40 30 l 1,32,-1
 40 20 l 1,33,-1
 30 20 l 1,34,-1
 30 0 l 1,35,-1
 10 0 l 1,0,-1
EndSplineSet
Substitution2: "Single Substitution lookup 3 subtable" Kgk
EndChar

StartChar: g
Encoding: 103 103 66
Width: 110
GlyphClass: 1
Flags: W
LayerCount: 2
Fore
SplineSet
10 0 m 1,0,-1
 10 30 l 1,1,-1
 20 30 l 1,2,-1
 20 40 l 1,3,-1
 30 40 l 1,4,-1
 30 50 l 1,5,-1
 20 50 l 1,6,-1
 20 60 l 1,7,-1
 10 60 l 1,8,-1
 10 90 l 1,9,-1
 20 90 l 1,10,-1
 20 100 l 1,11,-1
 90 100 l 1,12,-1
 90 80 l 1,13,-1
 80 80 l 1,14,-1
 80 60 l 1,15,-1
 70 60 l 1,16,-1
 70 50 l 1,17,-1
 50 50 l 1,18,-1
 50 40 l 1,19,-1
 80 40 l 1,20,-1
 80 30 l 1,21,-1
 90 30 l 1,22,-1
 90 0 l 1,23,-1
 80 0 l 1,24,-1
 80 -10 l 1,25,-1
 20 -10 l 1,26,-1
 20 0 l 1,27,-1
 10 0 l 1,0,-1
30 70 m 1,28,-1
 60 70 l 1,29,-1
 60 80 l 1,30,-1
 30 80 l 1,31,-1
 30 70 l 1,28,-1
30 10 m 1,32,-1
 70 10 l 1,33,-1
 70 20 l 1,34,-1
 30 20 l 1,35,-1
 30 10 l 1,32,-1
EndSplineSet
Substitution2: "'ss01' Style Set 1 lookup 5 subtable" uni0261
EndChar

StartChar: f
Encoding: 102 102 67
Width: 110
GlyphClass: 1
Flags: W
LayerCount: 2
Fore
SplineSet
10 60 m 1,0,-1
 10 80 l 1,1,-1
 30 80 l 1,2,-1
 30 110 l 1,3,-1
 40 110 l 1,4,-1
 40 120 l 1,5,-1
 80 120 l 1,6,-1
 80 110 l 1,7,-1
 90 110 l 1,8,-1
 90 90 l 1,9,-1
 70 90 l 1,10,-1
 70 100 l 1,11,-1
 50 100 l 1,12,-1
 50 80 l 1,13,-1
 80 80 l 1,14,-1
 80 60 l 1,15,-1
 50 60 l 1,16,-1
 50 0 l 1,17,-1
 30 0 l 1,18,-1
 30 60 l 1,19,-1
 10 60 l 1,0,-1
EndSplineSet
EndChar

StartChar: t
Encoding: 116 116 68
Width: 110
GlyphClass: 1
Flags: W
LayerCount: 2
Fore
SplineSet
10 90 m 1,0,-1
 30 90 l 1,1,-1
 30 110 l 1,2,-1
 50 110 l 1,3,-1
 50 90 l 1,4,-1
 80 90 l 1,5,-1
 80 70 l 1,6,-1
 50 70 l 1,7,-1
 50 20 l 1,8,-1
 80 20 l 1,9,-1
 80 0 l 1,10,-1
 40 0 l 1,11,-1
 40 10 l 1,12,-1
 30 10 l 1,13,-1
 30 70 l 1,14,-1
 10 70 l 1,15,-1
 10 90 l 1,0,-1
EndSplineSet
EndChar

StartChar: r
Encoding: 114 114 69
Width: 110
GlyphClass: 1
Flags: W
LayerCount: 2
Fore
SplineSet
90 70 m 1,0,-1
 50 70 l 1,1,-1
 50 60 l 1,2,-1
 40 60 l 1,3,-1
 40 0 l 1,4,-1
 20 0 l 1,5,-1
 20 90 l 1,6,-1
 40 90 l 1,7,-1
 40 80 l 1,8,-1
 50 80 l 1,9,-1
 50 90 l 1,10,-1
 90 90 l 1,11,-1
 90 70 l 1,0,-1
EndSplineSet
EndChar

StartChar: a
Encoding: 97 97 70
Width: 110
GlyphClass: 1
Flags: W
LayerCount: 2
Fore
SplineSet
80 80 m 1,0,-1
 90 80 l 1,1,-1
 90 0 l 1,2,-1
 20 0 l 1,3,-1
 20 10 l 1,4,-1
 10 10 l 1,5,-1
 10 50 l 1,6,-1
 20 50 l 1,7,-1
 20 60 l 1,8,-1
 70 60 l 1,9,-1
 70 70 l 1,10,-1
 20 70 l 1,11,-1
 20 90 l 1,12,-1
 80 90 l 1,13,-1
 80 80 l 1,0,-1
70 20 m 1,14,-1
 70 40 l 1,15,-1
 30 40 l 1,16,-1
 30 20 l 1,17,-1
 70 20 l 1,14,-1
EndSplineSet
Substitution2: "'ss01' Style Set 1 lookup 5 subtable" uni0251
Substitution2: "Single Substitution lookup 1 subtable" cAlth-gk
EndChar

StartChar: z
Encoding: 122 122 71
Width: 110
GlyphClass: 1
Flags: W
LayerCount: 2
Fore
SplineSet
10 70 m 1,0,-1
 10 90 l 1,1,-1
 90 90 l 1,2,-1
 90 70 l 1,3,-1
 80 70 l 1,4,-1
 80 60 l 1,5,-1
 70 60 l 1,6,-1
 70 50 l 1,7,-1
 60 50 l 1,8,-1
 60 40 l 1,9,-1
 50 40 l 1,10,-1
 50 30 l 1,11,-1
 40 30 l 1,12,-1
 40 20 l 1,13,-1
 90 20 l 1,14,-1
 90 0 l 1,15,-1
 10 0 l 1,16,-1
 10 30 l 1,17,-1
 20 30 l 1,18,-1
 20 40 l 1,19,-1
 30 40 l 1,20,-1
 30 50 l 1,21,-1
 40 50 l 1,22,-1
 40 60 l 1,23,-1
 50 60 l 1,24,-1
 50 70 l 1,25,-1
 10 70 l 1,0,-1
EndSplineSet
EndChar

StartChar: x
Encoding: 120 120 72
Width: 110
GlyphClass: 1
Flags: W
LayerCount: 2
Fore
SplineSet
20 60 m 1,0,-1
 20 70 l 1,1,-1
 10 70 l 1,2,-1
 10 90 l 1,3,-1
 30 90 l 1,4,-1
 30 80 l 1,5,-1
 40 80 l 1,6,-1
 40 70 l 1,7,-1
 60 70 l 1,8,-1
 60 80 l 1,9,-1
 70 80 l 1,10,-1
 70 90 l 1,11,-1
 90 90 l 1,12,-1
 90 70 l 1,13,-1
 80 70 l 1,14,-1
 80 60 l 1,15,-1
 70 60 l 1,16,-1
 70 50 l 1,17,-1
 60 50 l 1,18,-1
 60 40 l 1,19,-1
 70 40 l 1,20,-1
 70 30 l 1,21,-1
 80 30 l 1,22,-1
 80 20 l 1,23,-1
 90 20 l 1,24,-1
 90 0 l 1,25,-1
 70 0 l 1,26,-1
 70 10 l 1,27,-1
 60 10 l 1,28,-1
 60 20 l 1,29,-1
 40 20 l 1,30,-1
 40 10 l 1,31,-1
 30 10 l 1,32,-1
 30 0 l 1,33,-1
 10 0 l 1,34,-1
 10 20 l 1,35,-1
 20 20 l 1,36,-1
 20 30 l 1,37,-1
 30 30 l 1,38,-1
 30 40 l 1,39,-1
 40 40 l 1,40,-1
 40 50 l 1,41,-1
 30 50 l 1,42,-1
 30 60 l 1,43,-1
 20 60 l 1,0,-1
EndSplineSet
EndChar

StartChar: m
Encoding: 109 109 73
Width: 110
GlyphClass: 1
Flags: W
LayerCount: 2
Fore
SplineSet
60 0 m 1,0,-1
 40 0 l 1,1,-1
 40 70 l 1,2,-1
 30 70 l 1,3,-1
 30 60 l 1,4,-1
 20 60 l 1,5,-1
 20 0 l 1,6,-1
 0 0 l 1,7,-1
 0 90 l 1,8,-1
 20 90 l 1,9,-1
 20 80 l 1,10,-1
 30 80 l 1,11,-1
 30 90 l 1,12,-1
 50 90 l 1,13,-1
 50 80 l 1,14,-1
 60 80 l 1,15,-1
 60 90 l 1,16,-1
 90 90 l 1,17,-1
 90 80 l 1,18,-1
 100 80 l 1,19,-1
 100 0 l 1,20,-1
 80 0 l 1,21,-1
 80 70 l 1,22,-1
 70 70 l 1,23,-1
 70 60 l 1,24,-1
 60 60 l 1,25,-1
 60 0 l 1,0,-1
EndSplineSet
EndChar

StartChar: s
Encoding: 115 115 74
Width: 110
GlyphClass: 1
Flags: W
LayerCount: 2
Fore
SplineSet
10 10 m 1,0,-1
 10 30 l 1,1,-1
 30 30 l 1,2,-1
 30 20 l 1,3,-1
 70 20 l 1,4,-1
 70 30 l 1,5,-1
 50 30 l 1,6,-1
 50 40 l 1,7,-1
 20 40 l 1,8,-1
 20 50 l 1,9,-1
 10 50 l 1,10,-1
 10 80 l 1,11,-1
 20 80 l 1,12,-1
 20 90 l 1,13,-1
 80 90 l 1,14,-1
 80 80 l 1,15,-1
 90 80 l 1,16,-1
 90 60 l 1,17,-1
 70 60 l 1,18,-1
 70 70 l 1,19,-1
 30 70 l 1,20,-1
 30 60 l 1,21,-1
 60 60 l 1,22,-1
 60 50 l 1,23,-1
 80 50 l 1,24,-1
 80 40 l 1,25,-1
 90 40 l 1,26,-1
 90 10 l 1,27,-1
 80 10 l 1,28,-1
 80 0 l 1,29,-1
 20 0 l 1,30,-1
 20 10 l 1,31,-1
 10 10 l 1,0,-1
EndSplineSet
EndChar

StartChar: v
Encoding: 118 118 75
Width: 110
GlyphClass: 1
Flags: W
LayerCount: 2
Fore
SplineSet
10 60 m 1,0,-1
 10 90 l 1,1,-1
 30 90 l 1,2,-1
 30 60 l 1,3,-1
 40 60 l 1,4,-1
 40 40 l 1,5,-1
 60 40 l 1,6,-1
 60 60 l 1,7,-1
 70 60 l 1,8,-1
 70 90 l 1,9,-1
 90 90 l 1,10,-1
 90 60 l 1,11,-1
 80 60 l 1,12,-1
 80 40 l 1,13,-1
 70 40 l 1,14,-1
 70 20 l 1,15,-1
 60 20 l 1,16,-1
 60 0 l 1,17,-1
 40 0 l 1,18,-1
 40 20 l 1,19,-1
 30 20 l 1,20,-1
 30 40 l 1,21,-1
 20 40 l 1,22,-1
 20 60 l 1,23,-1
 10 60 l 1,0,-1
EndSplineSet
EndChar

StartChar: w
Encoding: 119 119 76
Width: 110
GlyphClass: 1
Flags: W
LayerCount: 2
Fore
SplineSet
10 0 m 1,0,-1
 10 40 l 1,1,-1
 0 40 l 1,2,-1
 0 90 l 1,3,-1
 20 90 l 1,4,-1
 20 40 l 1,5,-1
 30 40 l 1,6,-1
 30 60 l 1,7,-1
 40 60 l 1,8,-1
 40 90 l 1,9,-1
 60 90 l 1,10,-1
 60 60 l 1,11,-1
 70 60 l 1,12,-1
 70 40 l 1,13,-1
 80 40 l 1,14,-1
 80 90 l 1,15,-1
 100 90 l 1,16,-1
 100 40 l 1,17,-1
 90 40 l 1,18,-1
 90 0 l 1,19,-1
 70 0 l 1,20,-1
 70 20 l 1,21,-1
 60 20 l 1,22,-1
 60 40 l 1,23,-1
 40 40 l 1,24,-1
 40 20 l 1,25,-1
 30 20 l 1,26,-1
 30 0 l 1,27,-1
 10 0 l 1,0,-1
EndSplineSet
EndChar

StartChar: y
Encoding: 121 121 77
Width: 110
GlyphClass: 1
Flags: W
LayerCount: 2
Fore
SplineSet
10 70 m 1,0,-1
 10 90 l 1,1,-1
 30 90 l 1,2,-1
 30 70 l 1,3,-1
 40 70 l 1,4,-1
 40 50 l 1,5,-1
 60 50 l 1,6,-1
 60 70 l 1,7,-1
 70 70 l 1,8,-1
 70 90 l 1,9,-1
 90 90 l 1,10,-1
 90 70 l 1,11,-1
 80 70 l 1,12,-1
 80 50 l 1,13,-1
 70 50 l 1,14,-1
 70 30 l 1,15,-1
 60 30 l 1,16,-1
 60 10 l 1,17,-1
 50 10 l 1,18,-1
 50 0 l 1,19,-1
 40 0 l 1,20,-1
 40 -10 l 1,21,-1
 10 -10 l 1,22,-1
 10 10 l 1,23,-1
 30 10 l 1,24,-1
 30 20 l 1,25,-1
 40 20 l 1,26,-1
 40 30 l 1,27,-1
 30 30 l 1,28,-1
 30 50 l 1,29,-1
 20 50 l 1,30,-1
 20 70 l 1,31,-1
 10 70 l 1,0,-1
EndSplineSet
EndChar

StartChar: equal
Encoding: 61 61 78
Width: 110
GlyphClass: 1
Flags: W
LayerCount: 2
Fore
SplineSet
0 90 m 1,0,-1
 100 90 l 1,1,-1
 100 70 l 1,2,-1
 0 70 l 1,3,-1
 0 90 l 1,0,-1
0 50 m 1,4,-1
 100 50 l 1,5,-1
 100 30 l 1,6,-1
 0 30 l 1,7,-1
 0 50 l 1,4,-1
EndSplineSet
EndChar

StartChar: underscore
Encoding: 95 95 79
Width: 110
GlyphClass: 1
Flags: W
LayerCount: 2
Fore
SplineSet
0 10 m 1,0,-1
 100 10 l 1,1,-1
 100 -10 l 1,2,-1
 0 -10 l 1,3,-1
 0 10 l 1,0,-1
EndSplineSet
Substitution2: "'ss01' Style Set 1 lookup 5 subtable" cursor.replace
Substitution2: "'aalt' Access All Alternates lookup 0 subtable" cursor.replace
EndChar

StartChar: less
Encoding: 60 60 80
Width: 110
GlyphClass: 1
Flags: W
LayerCount: 2
Fore
SplineSet
80 0 m 1,0,-1
 60 0 l 1,1,-1
 60 10 l 1,2,-1
 50 10 l 1,3,-1
 50 20 l 1,4,-1
 40 20 l 1,5,-1
 40 30 l 1,6,-1
 30 30 l 1,7,-1
 30 40 l 1,8,-1
 20 40 l 1,9,-1
 20 70 l 1,10,-1
 30 70 l 1,11,-1
 30 80 l 1,12,-1
 40 80 l 1,13,-1
 40 90 l 1,14,-1
 50 90 l 1,15,-1
 50 100 l 1,16,-1
 60 100 l 1,17,-1
 60 110 l 1,18,-1
 80 110 l 1,19,-1
 80 90 l 1,20,-1
 70 90 l 1,21,-1
 70 80 l 1,22,-1
 60 80 l 1,23,-1
 60 70 l 1,24,-1
 50 70 l 1,25,-1
 50 60 l 1,26,-1
 40 60 l 1,27,-1
 40 50 l 1,28,-1
 50 50 l 1,29,-1
 50 40 l 1,30,-1
 60 40 l 1,31,-1
 60 30 l 1,32,-1
 70 30 l 1,33,-1
 70 20 l 1,34,-1
 80 20 l 1,35,-1
 80 0 l 1,0,-1
EndSplineSet
EndChar

StartChar: greater
Encoding: 62 62 81
Width: 110
GlyphClass: 1
Flags: W
LayerCount: 2
Fore
SplineSet
20 0 m 1,0,-1
 20 20 l 1,1,-1
 30 20 l 1,2,-1
 30 30 l 1,3,-1
 40 30 l 1,4,-1
 40 40 l 1,5,-1
 50 40 l 1,6,-1
 50 50 l 1,7,-1
 60 50 l 1,8,-1
 60 60 l 1,9,-1
 50 60 l 1,10,-1
 50 70 l 1,11,-1
 40 70 l 1,12,-1
 40 80 l 1,13,-1
 30 80 l 1,14,-1
 30 90 l 1,15,-1
 20 90 l 1,16,-1
 20 110 l 1,17,-1
 40 110 l 1,18,-1
 40 100 l 1,19,-1
 50 100 l 1,20,-1
 50 90 l 1,21,-1
 60 90 l 1,22,-1
 60 80 l 1,23,-1
 70 80 l 1,24,-1
 70 70 l 1,25,-1
 80 70 l 1,26,-1
 80 40 l 1,27,-1
 70 40 l 1,28,-1
 70 30 l 1,29,-1
 60 30 l 1,30,-1
 60 20 l 1,31,-1
 50 20 l 1,32,-1
 50 10 l 1,33,-1
 40 10 l 1,34,-1
 40 0 l 1,35,-1
 20 0 l 1,0,-1
EndSplineSet
EndChar

StartChar: slash
Encoding: 47 47 82
Width: 110
GlyphClass: 1
Flags: W
LayerCount: 2
Fore
SplineSet
20 0 m 1,0,-1
 20 30 l 1,1,-1
 30 30 l 1,2,-1
 30 50 l 1,3,-1
 40 50 l 1,4,-1
 40 80 l 1,5,-1
 50 80 l 1,6,-1
 50 100 l 1,7,-1
 60 100 l 1,8,-1
 60 120 l 1,9,-1
 80 120 l 1,10,-1
 80 90 l 1,11,-1
 70 90 l 1,12,-1
 70 70 l 1,13,-1
 60 70 l 1,14,-1
 60 40 l 1,15,-1
 50 40 l 1,16,-1
 50 20 l 1,17,-1
 40 20 l 1,18,-1
 40 0 l 1,19,-1
 20 0 l 1,0,-1
EndSplineSet
Substitution2: "'ss01' Style Set 1 lookup 5 subtable" div
Substitution2: "'aalt' Access All Alternates lookup 0 subtable" div
EndChar

StartChar: asciicircum
Encoding: 94 94 83
Width: 110
GlyphClass: 1
Flags: W
LayerCount: 2
Fore
SplineSet
10 80 m 1,0,-1
 10 100 l 1,1,-1
 20 100 l 1,2,-1
 20 110 l 1,3,-1
 30 110 l 1,4,-1
 30 120 l 1,5,-1
 70 120 l 1,6,-1
 70 110 l 1,7,-1
 80 110 l 1,8,-1
 80 100 l 1,9,-1
 90 100 l 1,10,-1
 90 80 l 1,11,-1
 70 80 l 1,12,-1
 70 90 l 1,13,-1
 60 90 l 1,14,-1
 60 100 l 1,15,-1
 40 100 l 1,16,-1
 40 90 l 1,17,-1
 30 90 l 1,18,-1
 30 80 l 1,19,-1
 10 80 l 1,0,-1
EndSplineSet
EndChar

StartChar: asciitilde
Encoding: 126 126 84
Width: 110
GlyphClass: 1
Flags: W
LayerCount: 2
Fore
SplineSet
0 40 m 1,0,-1
 0 70 l 1,1,-1
 10 70 l 1,2,-1
 10 80 l 1,3,-1
 50 80 l 1,4,-1
 50 70 l 1,5,-1
 70 70 l 1,6,-1
 70 60 l 1,7,-1
 80 60 l 1,8,-1
 80 80 l 1,9,-1
 100 80 l 1,10,-1
 100 50 l 1,11,-1
 90 50 l 1,12,-1
 90 40 l 1,13,-1
 60 40 l 1,14,-1
 60 50 l 1,15,-1
 40 50 l 1,16,-1
 40 60 l 1,17,-1
 20 60 l 1,18,-1
 20 40 l 1,19,-1
 0 40 l 1,0,-1
EndSplineSet
EndChar

StartChar: parenleft
Encoding: 40 40 86
Width: 110
GlyphClass: 1
Flags: W
LayerCount: 2
Fore
SplineSet
80 120 m 1,0,-1
 80 100 l 1,1,-1
 70 100 l 1,2,-1
 70 90 l 1,3,-1
 60 90 l 1,4,-1
 60 70 l 1,5,-1
 50 70 l 1,6,-1
 50 50 l 1,7,-1
 60 50 l 1,8,-1
 60 30 l 1,9,-1
 70 30 l 1,10,-1
 70 20 l 1,11,-1
 80 20 l 1,12,-1
 80 0 l 1,13,-1
 60 0 l 1,14,-1
 60 10 l 1,15,-1
 50 10 l 1,16,-1
 50 20 l 1,17,-1
 40 20 l 1,18,-1
 40 40 l 1,19,-1
 30 40 l 1,20,-1
 30 80 l 1,21,-1
 40 80 l 1,22,-1
 40 100 l 1,23,-1
 50 100 l 1,24,-1
 50 110 l 1,25,-1
 60 110 l 1,26,-1
 60 120 l 1,27,-1
 80 120 l 1,0,-1
EndSplineSet
EndChar

StartChar: parenright
Encoding: 41 41 87
Width: 110
GlyphClass: 1
Flags: W
LayerCount: 2
Fore
SplineSet
30 120 m 1,0,-1
 50 120 l 1,1,-1
 50 110 l 1,2,-1
 60 110 l 1,3,-1
 60 100 l 1,4,-1
 70 100 l 1,5,-1
 70 80 l 1,6,-1
 80 80 l 1,7,-1
 80 40 l 1,8,-1
 70 40 l 1,9,-1
 70 20 l 1,10,-1
 60 20 l 1,11,-1
 60 10 l 1,12,-1
 50 10 l 1,13,-1
 50 0 l 1,14,-1
 30 0 l 1,15,-1
 30 20 l 1,16,-1
 40 20 l 1,17,-1
 40 30 l 1,18,-1
 50 30 l 1,19,-1
 50 50 l 1,20,-1
 60 50 l 1,21,-1
 60 70 l 1,22,-1
 50 70 l 1,23,-1
 50 90 l 1,24,-1
 40 90 l 1,25,-1
 40 100 l 1,26,-1
 30 100 l 1,27,-1
 30 120 l 1,0,-1
EndSplineSet
EndChar

StartChar: bracketright
Encoding: 93 93 88
Width: 110
GlyphClass: 1
Flags: W
LayerCount: 2
Fore
SplineSet
30 120 m 1,0,-1
 80 120 l 1,1,-1
 80 0 l 1,2,-1
 30 0 l 1,3,-1
 30 20 l 1,4,-1
 60 20 l 1,5,-1
 60 100 l 1,6,-1
 30 100 l 1,7,-1
 30 120 l 1,0,-1
EndSplineSet
EndChar

StartChar: bracketleft
Encoding: 91 91 89
Width: 110
GlyphClass: 1
Flags: W
LayerCount: 2
Fore
SplineSet
20 0 m 1,0,-1
 20 120 l 1,1,-1
 70 120 l 1,2,-1
 70 100 l 1,3,-1
 40 100 l 1,4,-1
 40 20 l 1,5,-1
 70 20 l 1,6,-1
 70 0 l 1,7,-1
 20 0 l 1,0,-1
EndSplineSet
EndChar

StartChar: braceleft
Encoding: 123 123 90
Width: 110
GlyphClass: 1
Flags: W
LayerCount: 2
Fore
SplineSet
80 120 m 1,0,-1
 80 100 l 1,1,-1
 60 100 l 1,2,-1
 60 70 l 1,3,-1
 50 70 l 1,4,-1
 50 60 l 1,5,-1
 40 60 l 1,6,-1
 40 50 l 1,7,-1
 50 50 l 1,8,-1
 50 40 l 1,9,-1
 60 40 l 1,10,-1
 60 10 l 1,11,-1
 80 10 l 1,12,-1
 80 -10 l 1,13,-1
 50 -10 l 1,14,-1
 50 0 l 1,15,-1
 40 0 l 1,16,-1
 40 30 l 1,17,-1
 30 30 l 1,18,-1
 30 40 l 1,19,-1
 20 40 l 1,20,-1
 20 70 l 1,21,-1
 30 70 l 1,22,-1
 30 80 l 1,23,-1
 40 80 l 1,24,-1
 40 110 l 1,25,-1
 50 110 l 1,26,-1
 50 120 l 1,27,-1
 80 120 l 1,0,-1
EndSplineSet
EndChar

StartChar: braceright
Encoding: 125 125 91
Width: 110
GlyphClass: 1
Flags: W
LayerCount: 2
Fore
SplineSet
30 120 m 1,0,-1
 60 120 l 1,1,-1
 60 110 l 1,2,-1
 70 110 l 1,3,-1
 70 80 l 1,4,-1
 80 80 l 1,5,-1
 80 70 l 1,6,-1
 90 70 l 1,7,-1
 90 40 l 1,8,-1
 80 40 l 1,9,-1
 80 30 l 1,10,-1
 70 30 l 1,11,-1
 70 0 l 1,12,-1
 60 0 l 1,13,-1
 60 -10 l 1,14,-1
 30 -10 l 1,15,-1
 30 10 l 1,16,-1
 50 10 l 1,17,-1
 50 40 l 1,18,-1
 60 40 l 1,19,-1
 60 50 l 1,20,-1
 70 50 l 1,21,-1
 70 60 l 1,22,-1
 60 60 l 1,23,-1
 60 70 l 1,24,-1
 50 70 l 1,25,-1
 50 100 l 1,26,-1
 30 100 l 1,27,-1
 30 120 l 1,0,-1
EndSplineSet
EndChar

StartChar: question
Encoding: 63 63 92
Width: 110
GlyphClass: 1
Flags: W
LayerCount: 2
Fore
SplineSet
20 90 m 1,0,-1
 20 110 l 1,1,-1
 30 110 l 1,2,-1
 30 120 l 1,3,-1
 70 120 l 1,4,-1
 70 110 l 1,5,-1
 80 110 l 1,6,-1
 80 80 l 1,7,-1
 70 80 l 1,8,-1
 70 60 l 1,9,-1
 60 60 l 1,10,-1
 60 40 l 1,11,-1
 40 40 l 1,12,-1
 40 60 l 1,13,-1
 50 60 l 1,14,-1
 50 80 l 1,15,-1
 60 80 l 1,16,-1
 60 100 l 1,17,-1
 40 100 l 1,18,-1
 40 90 l 1,19,-1
 20 90 l 1,0,-1
40 0 m 1,20,-1
 40 20 l 1,21,-1
 60 20 l 1,22,-1
 60 0 l 1,23,-1
 40 0 l 1,20,-1
EndSplineSet
EndChar

StartChar: dollar
Encoding: 36 36 93
Width: 110
GlyphClass: 1
Flags: W
LayerCount: 2
Fore
SplineSet
10 20 m 1,0,-1
 10 40 l 1,1,-1
 30 40 l 1,2,-1
 30 30 l 1,3,-1
 40 30 l 1,4,-1
 40 50 l 1,5,-1
 20 50 l 1,6,-1
 20 60 l 1,7,-1
 10 60 l 1,8,-1
 10 100 l 1,9,-1
 20 100 l 1,10,-1
 20 110 l 1,11,-1
 40 110 l 1,12,-1
 40 120 l 1,13,-1
 60 120 l 1,14,-1
 60 110 l 1,15,-1
 80 110 l 1,16,-1
 80 100 l 1,17,-1
 90 100 l 1,18,-1
 90 80 l 1,19,-1
 70 80 l 1,20,-1
 70 90 l 1,21,-1
 60 90 l 1,22,-1
 60 70 l 1,23,-1
 80 70 l 1,24,-1
 80 60 l 1,25,-1
 90 60 l 1,26,-1
 90 20 l 1,27,-1
 80 20 l 1,28,-1
 80 10 l 1,29,-1
 60 10 l 1,30,-1
 60 0 l 1,31,-1
 40 0 l 1,32,-1
 40 10 l 1,33,-1
 20 10 l 1,34,-1
 20 20 l 1,35,-1
 10 20 l 1,0,-1
30 70 m 1,36,-1
 40 70 l 1,37,-1
 40 90 l 1,38,-1
 30 90 l 1,39,-1
 30 70 l 1,36,-1
60 30 m 1,40,-1
 70 30 l 1,41,-1
 70 50 l 1,42,-1
 60 50 l 1,43,-1
 60 30 l 1,40,-1
EndSplineSet
EndChar

StartChar: at
Encoding: 64 64 94
Width: 110
GlyphClass: 1
Flags: W
LayerCount: 2
Fore
SplineSet
0 10 m 1,0,-1
 0 100 l 1,1,-1
 10 100 l 1,2,-1
 10 110 l 1,3,-1
 20 110 l 1,4,-1
 20 120 l 1,5,-1
 80 120 l 1,6,-1
 80 110 l 1,7,-1
 90 110 l 1,8,-1
 90 100 l 1,9,-1
 100 100 l 1,10,-1
 100 30 l 1,11,-1
 90 30 l 1,12,-1
 90 20 l 1,13,-1
 70 20 l 1,14,-1
 70 30 l 1,15,-1
 60 30 l 1,16,-1
 60 20 l 1,17,-1
 40 20 l 1,18,-1
 40 30 l 1,19,-1
 30 30 l 1,20,-1
 30 80 l 1,21,-1
 40 80 l 1,22,-1
 40 90 l 1,23,-1
 70 90 l 1,24,-1
 70 40 l 1,25,-1
 80 40 l 1,26,-1
 80 90 l 1,27,-1
 70 90 l 1,28,-1
 70 100 l 1,29,-1
 30 100 l 1,30,-1
 30 90 l 1,31,-1
 20 90 l 1,32,-1
 20 20 l 1,33,-1
 30 20 l 1,34,-1
 30 10 l 1,35,-1
 90 10 l 1,36,-1
 90 -10 l 1,37,-1
 20 -10 l 1,38,-1
 20 0 l 1,39,-1
 10 0 l 1,40,-1
 10 10 l 1,41,-1
 0 10 l 1,0,-1
50 40 m 1,42,-1
 60 40 l 1,43,-1
 60 70 l 1,44,-1
 50 70 l 1,45,-1
 50 40 l 1,42,-1
EndSplineSet
EndChar

StartChar: ampersand
Encoding: 38 38 95
Width: 110
GlyphClass: 1
Flags: W
LayerCount: 2
Fore
SplineSet
0 10 m 1,0,-1
 0 50 l 1,1,-1
 10 50 l 1,2,-1
 10 60 l 1,3,-1
 20 60 l 1,4,-1
 20 70 l 1,5,-1
 10 70 l 1,6,-1
 10 110 l 1,7,-1
 20 110 l 1,8,-1
 20 120 l 1,9,-1
 60 120 l 1,10,-1
 60 110 l 1,11,-1
 70 110 l 1,12,-1
 70 80 l 1,13,-1
 60 80 l 1,14,-1
 60 70 l 1,15,-1
 50 70 l 1,16,-1
 50 60 l 1,17,-1
 60 60 l 1,18,-1
 60 40 l 1,19,-1
 70 40 l 1,20,-1
 70 60 l 1,21,-1
 90 60 l 1,22,-1
 90 30 l 1,23,-1
 80 30 l 1,24,-1
 80 20 l 1,25,-1
 100 20 l 1,26,-1
 100 0 l 1,27,-1
 70 0 l 1,28,-1
 70 10 l 1,29,-1
 60 10 l 1,30,-1
 60 0 l 1,31,-1
 10 0 l 1,32,-1
 10 10 l 1,33,-1
 0 10 l 1,0,-1
30 80 m 1,34,-1
 40 80 l 1,35,-1
 40 90 l 1,36,-1
 50 90 l 1,37,-1
 50 100 l 1,38,-1
 30 100 l 1,39,-1
 30 80 l 1,34,-1
40 30 m 1,40,-1
 40 50 l 1,41,-1
 30 50 l 1,42,-1
 30 40 l 1,43,-1
 20 40 l 1,44,-1
 20 20 l 1,45,-1
 50 20 l 1,46,-1
 50 30 l 1,47,-1
 40 30 l 1,40,-1
EndSplineSet
EndChar

StartChar: degree
Encoding: 176 176 96
Width: 110
GlyphClass: 1
Flags: W
LayerCount: 2
Fore
SplineSet
10 70 m 1,0,-1
 10 110 l 1,1,-1
 20 110 l 1,2,-1
 20 120 l 1,3,-1
 60 120 l 1,4,-1
 60 110 l 1,5,-1
 70 110 l 1,6,-1
 70 70 l 1,7,-1
 60 70 l 1,8,-1
 60 60 l 1,9,-1
 20 60 l 1,10,-1
 20 70 l 1,11,-1
 10 70 l 1,0,-1
30 80 m 1,12,-1
 50 80 l 1,13,-1
 50 100 l 1,14,-1
 30 100 l 1,15,-1
 30 80 l 1,12,-1
EndSplineSet
Substitution2: "'ss01' Style Set 1 lookup 5 subtable" dms
Substitution2: "'aalt' Access All Alternates lookup 0 subtable" dms
EndChar

StartChar: zero.superior
Encoding: 8304 8304 97
Width: 110
GlyphClass: 1
Flags: W
LayerCount: 2
Fore
SplineSet
20 60 m 1,0,-1
 20 110 l 1,1,-1
 30 110 l 1,2,-1
 30 120 l 1,3,-1
 70 120 l 1,4,-1
 70 110 l 1,5,-1
 80 110 l 1,6,-1
 80 60 l 1,7,-1
 70 60 l 1,8,-1
 70 50 l 1,9,-1
 30 50 l 1,10,-1
 30 60 l 1,11,-1
 20 60 l 1,0,-1
40 70 m 1,12,-1
 60 70 l 1,13,-1
 60 100 l 1,14,-1
 40 100 l 1,15,-1
 40 70 l 1,12,-1
EndSplineSet
EndChar

StartChar: onesuperior
Encoding: 185 185 98
Width: 110
GlyphClass: 1
Flags: W
LayerCount: 2
Fore
SplineSet
20 90 m 1,0,-1
 20 110 l 1,1,-1
 40 110 l 1,2,-1
 40 120 l 1,3,-1
 60 120 l 1,4,-1
 60 51 l 1,5,-1
 40 51 l 1,6,-1
 40 90 l 1,7,-1
 20 90 l 1,0,-1
EndSplineSet
EndChar

StartChar: twosuperior
Encoding: 178 178 99
Width: 110
GlyphClass: 1
Flags: W
LayerCount: 2
Fore
SplineSet
20 100 m 1,0,-1
 20 120 l 1,1,-1
 70 120 l 1,2,-1
 70 110 l 1,3,-1
 80 110 l 1,4,-1
 80 90 l 1,5,-1
 70 90 l 1,6,-1
 70 80 l 1,7,-1
 50 80 l 1,8,-1
 50 70 l 1,9,-1
 80 70 l 1,10,-1
 80 50 l 1,11,-1
 20 50 l 1,12,-1
 20 70 l 1,13,-1
 30 70 l 1,14,-1
 30 80 l 1,15,-1
 40 80 l 1,16,-1
 40 90 l 1,17,-1
 60 90 l 1,18,-1
 60 100 l 1,19,-1
 20 100 l 1,0,-1
EndSplineSet
EndChar

StartChar: threesuperior
Encoding: 179 179 100
Width: 110
GlyphClass: 1
Flags: W
LayerCount: 2
Fore
SplineSet
20 100 m 1,0,-1
 20 120 l 1,1,-1
 70 120 l 1,2,-1
 70 110 l 1,3,-1
 80 110 l 1,4,-1
 80 90 l 1,5,-1
 70 90 l 1,6,-1
 70 80 l 1,7,-1
 80 80 l 1,8,-1
 80 60 l 1,9,-1
 70 60 l 1,10,-1
 70 50 l 1,11,-1
 20 50 l 1,12,-1
 20 70 l 1,13,-1
 60 70 l 1,14,-1
 60 80 l 1,15,-1
 30 80 l 1,16,-1
 30 90 l 1,17,-1
 60 90 l 1,18,-1
 60 100 l 1,19,-1
 20 100 l 1,0,-1
EndSplineSet
EndChar

StartChar: four.superior
Encoding: 8308 8308 101
Width: 110
GlyphClass: 1
Flags: W
LayerCount: 2
Fore
SplineSet
30 90 m 1,0,-1
 30 110 l 1,1,-1
 40 110 l 1,2,-1
 40 120 l 1,3,-1
 70 120 l 1,4,-1
 70 80 l 1,5,-1
 80 80 l 1,6,-1
 80 60 l 1,7,-1
 70 60 l 1,8,-1
 70 51 l 1,9,-1
 50 51 l 1,10,-1
 50 60 l 1,11,-1
 20 60 l 1,12,-1
 20 90 l 1,13,-1
 30 90 l 1,0,-1
40 100 m 1,14,-1
 40 80 l 1,15,-1
 50 80 l 1,16,-1
 50 100 l 1,17,-1
 40 100 l 1,14,-1
EndSplineSet
EndChar

StartChar: five.superior
Encoding: 8309 8309 102
Width: 110
GlyphClass: 1
Flags: W
LayerCount: 2
Fore
SplineSet
20 70 m 1,0,-1
 60 70 l 1,1,-1
 60 80 l 1,2,-1
 20 80 l 1,3,-1
 20 120 l 1,4,-1
 80 120 l 1,5,-1
 80 100 l 1,6,-1
 40 100 l 1,7,-1
 40 90 l 1,8,-1
 70 90 l 1,9,-1
 70 80 l 1,10,-1
 80 80 l 1,11,-1
 80 60 l 1,12,-1
 70 60 l 1,13,-1
 70 50 l 1,14,-1
 20 50 l 1,15,-1
 20 70 l 1,0,-1
EndSplineSet
EndChar

StartChar: six.superior
Encoding: 8310 8310 103
Width: 110
GlyphClass: 1
Flags: W
LayerCount: 2
Fore
SplineSet
70 100 m 1,0,-1
 40 100 l 1,1,-1
 40 90 l 1,2,-1
 70 90 l 1,3,-1
 70 80 l 1,4,-1
 80 80 l 1,5,-1
 80 60 l 1,6,-1
 70 60 l 1,7,-1
 70 50 l 1,8,-1
 30 50 l 1,9,-1
 30 60 l 1,10,-1
 20 60 l 1,11,-1
 20 110 l 1,12,-1
 30 110 l 1,13,-1
 30 120 l 1,14,-1
 70 120 l 1,15,-1
 70 100 l 1,0,-1
40 70 m 1,16,-1
 60 70 l 1,17,-1
 60 80 l 1,18,-1
 40 80 l 1,19,-1
 40 70 l 1,16,-1
EndSplineSet
EndChar

StartChar: seven.superior
Encoding: 8311 8311 104
Width: 110
GlyphClass: 1
Flags: W
LayerCount: 2
Fore
SplineSet
10 100 m 1,0,-1
 10 120 l 1,1,-1
 70 120 l 1,2,-1
 70 90 l 1,3,-1
 60 90 l 1,4,-1
 60 70 l 1,5,-1
 50 70 l 1,6,-1
 50 50 l 1,7,-1
 30 50 l 1,8,-1
 30 70 l 1,9,-1
 40 70 l 1,10,-1
 40 90 l 1,11,-1
 50 90 l 1,12,-1
 50 100 l 1,13,-1
 10 100 l 1,0,-1
EndSplineSet
EndChar

StartChar: eight.superior
Encoding: 8312 8312 105
Width: 110
GlyphClass: 1
Flags: W
LayerCount: 2
Fore
SplineSet
20 60 m 1,0,-1
 20 80 l 1,1,-1
 30 80 l 1,2,-1
 30 90 l 1,3,-1
 20 90 l 1,4,-1
 20 110 l 1,5,-1
 30 110 l 1,6,-1
 30 120 l 1,7,-1
 70 120 l 1,8,-1
 70 110 l 1,9,-1
 80 110 l 1,10,-1
 80 90 l 1,11,-1
 70 90 l 1,12,-1
 70 80 l 1,13,-1
 80 80 l 1,14,-1
 80 60 l 1,15,-1
 70 60 l 1,16,-1
 70 50 l 1,17,-1
 30 50 l 1,18,-1
 30 60 l 1,19,-1
 20 60 l 1,0,-1
40 90 m 1,20,-1
 60 90 l 1,21,-1
 60 100 l 1,22,-1
 40 100 l 1,23,-1
 40 90 l 1,20,-1
40 70 m 1,24,-1
 60 70 l 1,25,-1
 60 80 l 1,26,-1
 40 80 l 1,27,-1
 40 70 l 1,24,-1
EndSplineSet
EndChar

StartChar: nine.superior
Encoding: 8313 8313 106
Width: 110
GlyphClass: 1
Flags: W
LayerCount: 2
Fore
SplineSet
30 70 m 1,0,-1
 60 70 l 1,1,-1
 60 80 l 1,2,-1
 30 80 l 1,3,-1
 30 90 l 1,4,-1
 20 90 l 1,5,-1
 20 110 l 1,6,-1
 30 110 l 1,7,-1
 30 120 l 1,8,-1
 70 120 l 1,9,-1
 70 110 l 1,10,-1
 80 110 l 1,11,-1
 80 60 l 1,12,-1
 70 60 l 1,13,-1
 70 50 l 1,14,-1
 30 50 l 1,15,-1
 30 70 l 1,0,-1
60 100 m 1,16,-1
 40 100 l 1,17,-1
 40 90 l 1,18,-1
 60 90 l 1,19,-1
 60 100 l 1,16,-1
EndSplineSet
EndChar

StartChar: four.inferior
Encoding: 8324 8324 107
Width: 110
GlyphClass: 1
Flags: W
LayerCount: 2
Fore
SplineSet
30 30 m 1,0,-1
 30 50 l 1,1,-1
 40 50 l 1,2,-1
 40 60 l 1,3,-1
 70 60 l 1,4,-1
 70 20 l 1,5,-1
 80 20 l 1,6,-1
 80 0 l 1,7,-1
 70 0 l 1,8,-1
 70 -9 l 1,9,-1
 50 -9 l 1,10,-1
 50 0 l 1,11,-1
 20 0 l 1,12,-1
 20 30 l 1,13,-1
 30 30 l 1,0,-1
40 40 m 1,14,-1
 40 20 l 1,15,-1
 50 20 l 1,16,-1
 50 40 l 1,17,-1
 40 40 l 1,14,-1
EndSplineSet
EndChar

StartChar: five.inferior
Encoding: 8325 8325 108
Width: 110
GlyphClass: 1
Flags: W
LayerCount: 2
Fore
SplineSet
20 10 m 1,0,-1
 60 10 l 1,1,-1
 60 20 l 1,2,-1
 20 20 l 1,3,-1
 20 60 l 1,4,-1
 80 60 l 1,5,-1
 80 40 l 1,6,-1
 40 40 l 1,7,-1
 40 30 l 1,8,-1
 70 30 l 1,9,-1
 70 20 l 1,10,-1
 80 20 l 1,11,-1
 80 0 l 1,12,-1
 70 0 l 1,13,-1
 70 -10 l 1,14,-1
 20 -10 l 1,15,-1
 20 10 l 1,0,-1
EndSplineSet
EndChar

StartChar: six.inferior
Encoding: 8326 8326 109
Width: 110
GlyphClass: 1
Flags: W
LayerCount: 2
Fore
SplineSet
70 40 m 1,0,-1
 40 40 l 1,1,-1
 40 30 l 1,2,-1
 70 30 l 1,3,-1
 70 20 l 1,4,-1
 80 20 l 1,5,-1
 80 0 l 1,6,-1
 70 0 l 1,7,-1
 70 -10 l 1,8,-1
 30 -10 l 1,9,-1
 30 0 l 1,10,-1
 20 0 l 1,11,-1
 20 50 l 1,12,-1
 30 50 l 1,13,-1
 30 60 l 1,14,-1
 70 60 l 1,15,-1
 70 40 l 1,0,-1
40 10 m 1,16,-1
 60 10 l 1,17,-1
 60 20 l 1,18,-1
 40 20 l 1,19,-1
 40 10 l 1,16,-1
EndSplineSet
EndChar

StartChar: seven.inferior
Encoding: 8327 8327 110
Width: 110
GlyphClass: 1
Flags: W
LayerCount: 2
Fore
SplineSet
10 40 m 1,0,-1
 10 60 l 1,1,-1
 70 60 l 1,2,-1
 70 30 l 1,3,-1
 60 30 l 1,4,-1
 60 10 l 1,5,-1
 50 10 l 1,6,-1
 50 -10 l 1,7,-1
 30 -10 l 1,8,-1
 30 10 l 1,9,-1
 40 10 l 1,10,-1
 40 30 l 1,11,-1
 50 30 l 1,12,-1
 50 40 l 1,13,-1
 10 40 l 1,0,-1
EndSplineSet
EndChar

StartChar: eight.inferior
Encoding: 8328 8328 111
Width: 110
GlyphClass: 1
Flags: W
LayerCount: 2
Fore
SplineSet
20 0 m 1,0,-1
 20 20 l 1,1,-1
 30 20 l 1,2,-1
 30 30 l 1,3,-1
 20 30 l 1,4,-1
 20 50 l 1,5,-1
 30 50 l 1,6,-1
 30 60 l 1,7,-1
 70 60 l 1,8,-1
 70 50 l 1,9,-1
 80 50 l 1,10,-1
 80 30 l 1,11,-1
 70 30 l 1,12,-1
 70 20 l 1,13,-1
 80 20 l 1,14,-1
 80 0 l 1,15,-1
 70 0 l 1,16,-1
 70 -10 l 1,17,-1
 30 -10 l 1,18,-1
 30 0 l 1,19,-1
 20 0 l 1,0,-1
40 30 m 1,20,-1
 60 30 l 1,21,-1
 60 40 l 1,22,-1
 40 40 l 1,23,-1
 40 30 l 1,20,-1
40 10 m 1,24,-1
 60 10 l 1,25,-1
 60 20 l 1,26,-1
 40 20 l 1,27,-1
 40 10 l 1,24,-1
EndSplineSet
EndChar

StartChar: nine.inferior
Encoding: 8329 8329 112
Width: 110
GlyphClass: 1
Flags: W
LayerCount: 2
Fore
SplineSet
30 10 m 1,0,-1
 60 10 l 1,1,-1
 60 20 l 1,2,-1
 30 20 l 1,3,-1
 30 30 l 1,4,-1
 20 30 l 1,5,-1
 20 50 l 1,6,-1
 30 50 l 1,7,-1
 30 60 l 1,8,-1
 70 60 l 1,9,-1
 70 50 l 1,10,-1
 80 50 l 1,11,-1
 80 0 l 1,12,-1
 70 0 l 1,13,-1
 70 -10 l 1,14,-1
 30 -10 l 1,15,-1
 30 10 l 1,0,-1
60 40 m 1,16,-1
 40 40 l 1,17,-1
 40 30 l 1,18,-1
 60 30 l 1,19,-1
 60 40 l 1,16,-1
EndSplineSet
EndChar

StartChar: zero.inferior
Encoding: 8320 8320 113
Width: 110
GlyphClass: 1
Flags: W
LayerCount: 2
Fore
SplineSet
20 0 m 1,0,-1
 20 50 l 1,1,-1
 30 50 l 1,2,-1
 30 60 l 1,3,-1
 70 60 l 1,4,-1
 70 50 l 1,5,-1
 80 50 l 1,6,-1
 80 0 l 1,7,-1
 70 0 l 1,8,-1
 70 -10 l 1,9,-1
 30 -10 l 1,10,-1
 30 0 l 1,11,-1
 20 0 l 1,0,-1
40 10 m 1,12,-1
 60 10 l 1,13,-1
 60 40 l 1,14,-1
 40 40 l 1,15,-1
 40 10 l 1,12,-1
EndSplineSet
EndChar

StartChar: two.inferior
Encoding: 8322 8322 114
Width: 110
GlyphClass: 1
Flags: W
LayerCount: 2
Fore
SplineSet
20 40 m 1,0,-1
 20 60 l 1,1,-1
 70 60 l 1,2,-1
 70 50 l 1,3,-1
 80 50 l 1,4,-1
 80 30 l 1,5,-1
 70 30 l 1,6,-1
 70 20 l 1,7,-1
 50 20 l 1,8,-1
 50 10 l 1,9,-1
 80 10 l 1,10,-1
 80 -10 l 1,11,-1
 20 -10 l 1,12,-1
 20 10 l 1,13,-1
 30 10 l 1,14,-1
 30 20 l 1,15,-1
 40 20 l 1,16,-1
 40 30 l 1,17,-1
 60 30 l 1,18,-1
 60 40 l 1,19,-1
 20 40 l 1,0,-1
EndSplineSet
EndChar

StartChar: three.inferior
Encoding: 8323 8323 115
Width: 110
GlyphClass: 1
Flags: W
LayerCount: 2
Fore
SplineSet
20 40 m 1,0,-1
 20 60 l 1,1,-1
 70 60 l 1,2,-1
 70 50 l 1,3,-1
 80 50 l 1,4,-1
 80 30 l 1,5,-1
 70 30 l 1,6,-1
 70 20 l 1,7,-1
 80 20 l 1,8,-1
 80 0 l 1,9,-1
 70 0 l 1,10,-1
 70 -10 l 1,11,-1
 20 -10 l 1,12,-1
 20 10 l 1,13,-1
 60 10 l 1,14,-1
 60 20 l 1,15,-1
 30 20 l 1,16,-1
 30 30 l 1,17,-1
 60 30 l 1,18,-1
 60 40 l 1,19,-1
 20 40 l 1,0,-1
EndSplineSet
EndChar

StartChar: one.inferior
Encoding: 8321 8321 116
Width: 110
GlyphClass: 1
Flags: W
LayerCount: 2
Fore
SplineSet
20 30 m 1,0,-1
 20 50 l 1,1,-1
 40 50 l 1,2,-1
 40 60 l 1,3,-1
 60 60 l 1,4,-1
 60 -9 l 1,5,-1
 40 -9 l 1,6,-1
 40 30 l 1,7,-1
 20 30 l 1,0,-1
EndSplineSet
EndChar

StartChar: n.superior
Encoding: 8319 8319 117
Width: 110
GlyphClass: 1
Flags: W
LayerCount: 2
Fore
SplineSet
80 50 m 1,0,-1
 60 50 l 1,1,-1
 60 100 l 1,2,-1
 40 100 l 1,3,-1
 40 90 l 1,4,-1
 30 90 l 1,5,-1
 30 50 l 1,6,-1
 10 50 l 1,7,-1
 10 120 l 1,8,-1
 30 120 l 1,9,-1
 30 110 l 1,10,-1
 40 110 l 1,11,-1
 40 120 l 1,12,-1
 70 120 l 1,13,-1
 70 110 l 1,14,-1
 80 110 l 1,15,-1
 80 50 l 1,0,-1
EndSplineSet
EndChar

StartChar: rsupmod
Encoding: 691 691 118
Width: 110
GlyphClass: 1
Flags: W
LayerCount: 2
Fore
SplineSet
80 100 m 1,0,-1
 50 100 l 1,1,-1
 50 90 l 1,2,-1
 40 90 l 1,3,-1
 40 60 l 1,4,-1
 20 60 l 1,5,-1
 20 120 l 1,6,-1
 40 120 l 1,7,-1
 40 110 l 1,8,-1
 50 110 l 1,9,-1
 50 120 l 1,10,-1
 80 120 l 1,11,-1
 80 100 l 1,0,-1
EndSplineSet
EndChar

StartChar: gmod
Encoding: 7501 7501 119
Width: 110
GlyphClass: 1
Flags: W
LayerCount: 2
Fore
SplineSet
90 110 m 1,0,-1
 80 110 l 1,1,-1
 80 120 l 1,2,-1
 90 120 l 1,3,-1
 90 110 l 1,0,-1
10 110 m 1,4,-1
 20 110 l 1,5,-1
 20 120 l 1,6,-1
 70 120 l 1,7,-1
 70 110 l 1,8,-1
 80 110 l 1,9,-1
 80 100 l 1,10,-1
 70 100 l 1,11,-1
 70 90 l 1,12,-1
 50 90 l 1,13,-1
 50 80 l 1,14,-1
 80 80 l 1,15,-1
 80 70 l 1,16,-1
 90 70 l 1,17,-1
 90 60 l 1,18,-1
 80 60 l 1,19,-1
 80 50 l 1,20,-1
 20 50 l 1,21,-1
 20 60 l 1,22,-1
 10 60 l 1,23,-1
 10 70 l 1,24,-1
 20 70 l 1,25,-1
 20 80 l 1,26,-1
 30 80 l 1,27,-1
 30 90 l 1,28,-1
 20 90 l 1,29,-1
 20 100 l 1,30,-1
 10 100 l 1,31,-1
 10 110 l 1,4,-1
50 110 m 1,32,-1
 40 110 l 1,33,-1
 40 100 l 1,34,-1
 50 100 l 1,35,-1
 50 110 l 1,32,-1
40 70 m 1,36,-1
 40 60 l 1,37,-1
 60 60 l 1,38,-1
 60 70 l 1,39,-1
 40 70 l 1,36,-1
EndSplineSet
EndChar

StartChar: einferior
Encoding: 8337 8337 120
Width: 110
GlyphClass: 1
Flags: W
LayerCount: 2
Fore
SplineSet
10 0 m 1,0,-1
 10 30 l 1,1,-1
 20 30 l 1,2,-1
 20 40 l 1,3,-1
 60 40 l 1,4,-1
 60 30 l 1,5,-1
 70 30 l 1,6,-1
 70 10 l 1,7,-1
 30 10 l 1,8,-1
 30 0 l 1,9,-1
 70 0 l 1,10,-1
 70 -10 l 1,11,-1
 20 -10 l 1,12,-1
 20 0 l 1,13,-1
 10 0 l 1,0,-1
30 20 m 1,14,-1
 50 20 l 1,15,-1
 50 30 l 1,16,-1
 30 30 l 1,17,-1
 30 20 l 1,14,-1
EndSplineSet
EndChar

StartChar: pinferior
Encoding: 8346 8346 121
Width: 110
GlyphClass: 1
Flags: W
LayerCount: 2
Fore
SplineSet
20 -10 m 1,0,-1
 20 50 l 1,1,-1
 70 50 l 1,2,-1
 70 40 l 1,3,-1
 80 40 l 1,4,-1
 80 10 l 1,5,-1
 70 10 l 1,6,-1
 70 0 l 1,7,-1
 40 0 l 1,8,-1
 40 -10 l 1,9,-1
 20 -10 l 1,0,-1
40 30 m 1,10,-1
 40 20 l 1,11,-1
 60 20 l 1,12,-1
 60 30 l 1,13,-1
 40 30 l 1,10,-1
EndSplineSet
EndChar

StartChar: ninferior
Encoding: 8345 8345 122
Width: 110
GlyphClass: 1
Flags: W
LayerCount: 2
Fore
SplineSet
80 -10 m 1,0,-1
 60 -10 l 1,1,-1
 60 30 l 1,2,-1
 40 30 l 1,3,-1
 40 20 l 1,4,-1
 30 20 l 1,5,-1
 30 -10 l 1,6,-1
 10 -10 l 1,7,-1
 10 50 l 1,8,-1
 30 50 l 1,9,-1
 30 40 l 1,10,-1
 40 40 l 1,11,-1
 40 50 l 1,12,-1
 70 50 l 1,13,-1
 70 40 l 1,14,-1
 80 40 l 1,15,-1
 80 -10 l 1,0,-1
EndSplineSet
EndChar

StartChar: minferior
Encoding: 8344 8344 123
Width: 110
GlyphClass: 1
Flags: W
LayerCount: 2
Fore
SplineSet
60 -10 m 1,0,-1
 40 -10 l 1,1,-1
 40 30 l 1,2,-1
 20 30 l 1,3,-1
 20 -10 l 1,4,-1
 0 -10 l 1,5,-1
 0 50 l 1,6,-1
 10 50 l 1,7,-1
 10 40 l 1,8,-1
 20 40 l 1,9,-1
 20 50 l 1,10,-1
 50 50 l 1,11,-1
 50 40 l 1,12,-1
 60 40 l 1,13,-1
 60 50 l 1,14,-1
 90 50 l 1,15,-1
 90 40 l 1,16,-1
 100 40 l 1,17,-1
 100 -10 l 1,18,-1
 80 -10 l 1,19,-1
 80 30 l 1,20,-1
 60 30 l 1,21,-1
 60 -10 l 1,0,-1
EndSplineSet
EndChar

StartChar: Asmall
Encoding: 7424 7424 124
Width: 110
GlyphClass: 1
Flags: W
LayerCount: 2
Fore
SplineSet
10 -10 m 1,0,-1
 10 10 l 1,1,-1
 20 10 l 1,2,-1
 20 30 l 1,3,-1
 30 30 l 1,4,-1
 30 50 l 1,5,-1
 40 50 l 1,6,-1
 40 60 l 1,7,-1
 60 60 l 1,8,-1
 60 50 l 1,9,-1
 70 50 l 1,10,-1
 70 30 l 1,11,-1
 80 30 l 1,12,-1
 80 10 l 1,13,-1
 90 10 l 1,14,-1
 90 -10 l 1,15,-1
 70 -10 l 1,16,-1
 70 0 l 1,17,-1
 30 0 l 1,18,-1
 30 -10 l 1,19,-1
 10 -10 l 1,0,-1
60 20 m 1,20,-1
 60 30 l 1,21,-1
 40 30 l 1,22,-1
 40 20 l 1,23,-1
 60 20 l 1,20,-1
EndSplineSet
EndChar

StartChar: Bsmall
Encoding: 665 665 125
Width: 110
GlyphClass: 1
Flags: W
LayerCount: 2
Fore
SplineSet
20 -10 m 1,0,-1
 20 60 l 1,1,-1
 70 60 l 1,2,-1
 70 50 l 1,3,-1
 80 50 l 1,4,-1
 80 30 l 1,5,-1
 70 30 l 1,6,-1
 70 20 l 1,7,-1
 80 20 l 1,8,-1
 80 0 l 1,9,-1
 70 0 l 1,10,-1
 70 -10 l 1,11,-1
 20 -10 l 1,0,-1
40 30 m 1,12,-1
 60 30 l 1,13,-1
 60 40 l 1,14,-1
 40 40 l 1,15,-1
 40 30 l 1,12,-1
40 10 m 1,16,-1
 60 10 l 1,17,-1
 60 20 l 1,18,-1
 40 20 l 1,19,-1
 40 10 l 1,16,-1
EndSplineSet
EndChar

StartChar: Csmall
Encoding: 7428 7428 126
Width: 110
GlyphClass: 1
Flags: W
LayerCount: 2
Fore
SplineSet
10 0 m 1,0,-1
 10 50 l 1,1,-1
 20 50 l 1,2,-1
 20 60 l 1,3,-1
 70 60 l 1,4,-1
 70 50 l 1,5,-1
 80 50 l 1,6,-1
 80 30 l 1,7,-1
 60 30 l 1,8,-1
 60 40 l 1,9,-1
 30 40 l 1,10,-1
 30 10 l 1,11,-1
 60 10 l 1,12,-1
 60 20 l 1,13,-1
 80 20 l 1,14,-1
 80 0 l 1,15,-1
 70 0 l 1,16,-1
 70 -10 l 1,17,-1
 20 -10 l 1,18,-1
 20 0 l 1,19,-1
 10 0 l 1,0,-1
EndSplineSet
EndChar

StartChar: Fsmall
Encoding: 42800 42800 127
Width: 110
GlyphClass: 1
Flags: W
LayerCount: 2
Fore
SplineSet
10 -10 m 1,0,-1
 10 60 l 1,1,-1
 70 60 l 1,2,-1
 70 40 l 1,3,-1
 30 40 l 1,4,-1
 30 30 l 1,5,-1
 60 30 l 1,6,-1
 60 10 l 1,7,-1
 30 10 l 1,8,-1
 30 -10 l 1,9,-1
 10 -10 l 1,0,-1
EndSplineSet
EndChar

StartChar: Jsmall
Encoding: 7434 7434 128
Width: 110
GlyphClass: 1
Flags: W
LayerCount: 2
Fore
SplineSet
10 0 m 1,0,-1
 10 20 l 1,1,-1
 30 20 l 1,2,-1
 30 10 l 1,3,-1
 50 10 l 1,4,-1
 50 60 l 1,5,-1
 70 60 l 1,6,-1
 70 0 l 1,7,-1
 60 0 l 1,8,-1
 60 -10 l 1,9,-1
 20 -10 l 1,10,-1
 20 0 l 1,11,-1
 10 0 l 1,0,-1
EndSplineSet
EndChar

StartChar: Ksmall
Encoding: 7435 7435 129
Width: 110
GlyphClass: 1
Flags: W
LayerCount: 2
Fore
SplineSet
20 -10 m 1,0,-1
 20 60 l 1,1,-1
 40 60 l 1,2,-1
 40 40 l 1,3,-1
 50 40 l 1,4,-1
 50 50 l 1,5,-1
 60 50 l 1,6,-1
 60 60 l 1,7,-1
 90 60 l 1,8,-1
 90 50 l 1,9,-1
 80 50 l 1,10,-1
 80 40 l 1,11,-1
 70 40 l 1,12,-1
 70 30 l 1,13,-1
 60 30 l 1,14,-1
 60 20 l 1,15,-1
 70 20 l 1,16,-1
 70 10 l 1,17,-1
 80 10 l 1,18,-1
 80 0 l 1,19,-1
 90 0 l 1,20,-1
 90 -10 l 1,21,-1
 60 -10 l 1,22,-1
 60 0 l 1,23,-1
 50 0 l 1,24,-1
 50 10 l 1,25,-1
 40 10 l 1,26,-1
 40 -10 l 1,27,-1
 20 -10 l 1,0,-1
EndSplineSet
EndChar

StartChar: Nsmall
Encoding: 628 628 130
Width: 110
GlyphClass: 1
Flags: W
LayerCount: 2
Fore
SplineSet
20 -10 m 1,0,-1
 20 60 l 1,1,-1
 40 60 l 1,2,-1
 40 50 l 1,3,-1
 50 50 l 1,4,-1
 50 40 l 1,5,-1
 60 40 l 1,6,-1
 60 30 l 1,7,-1
 70 30 l 1,8,-1
 70 60 l 1,9,-1
 90 60 l 1,10,-1
 90 -10 l 1,11,-1
 70 -10 l 1,12,-1
 70 0 l 1,13,-1
 60 0 l 1,14,-1
 60 10 l 1,15,-1
 50 10 l 1,16,-1
 50 20 l 1,17,-1
 40 20 l 1,18,-1
 40 -10 l 1,19,-1
 20 -10 l 1,0,-1
EndSplineSet
EndChar

StartChar: Psmall
Encoding: 7448 7448 131
Width: 110
GlyphClass: 1
Flags: W
LayerCount: 2
Fore
SplineSet
30 -10 m 1,0,-1
 30 60 l 1,1,-1
 80 60 l 1,2,-1
 80 50 l 1,3,-1
 90 50 l 1,4,-1
 90 20 l 1,5,-1
 80 20 l 1,6,-1
 80 10 l 1,7,-1
 50 10 l 1,8,-1
 50 -10 l 1,9,-1
 30 -10 l 1,0,-1
50 40 m 1,10,-1
 50 30 l 1,11,-1
 70 30 l 1,12,-1
 70 40 l 1,13,-1
 50 40 l 1,10,-1
EndSplineSet
EndChar

StartChar: HexA
Encoding: 57345 57345 132
Width: 110
GlyphClass: 1
Flags: W
LayerCount: 2
Fore
SplineSet
0 0 m 1,0,-1
 0 50 l 1,1,-1
 10 50 l 1,2,-1
 10 80 l 1,3,-1
 20 80 l 1,4,-1
 20 100 l 1,5,-1
 30 100 l 1,6,-1
 30 120 l 1,7,-1
 70 120 l 1,8,-1
 70 100 l 1,9,-1
 80 100 l 1,10,-1
 80 80 l 1,11,-1
 90 80 l 1,12,-1
 90 50 l 1,13,-1
 100 50 l 1,14,-1
 100 0 l 1,15,-1
 70 0 l 1,16,-1
 70 30 l 1,17,-1
 20 30 l 1,18,-1
 20 0 l 1,19,-1
 0 0 l 1,0,-1
50 50 m 1,20,-1
 50 70 l 1,21,-1
 30 70 l 1,22,-1
 30 50 l 1,23,-1
 50 50 l 1,20,-1
EndSplineSet
EndChar

StartChar: HexB
Encoding: 57346 57346 133
Width: 110
GlyphClass: 1
Flags: W
LayerCount: 2
Fore
SplineSet
0 0 m 1,0,-1
 0 120 l 1,1,-1
 90 120 l 1,2,-1
 90 110 l 1,3,-1
 100 110 l 1,4,-1
 100 70 l 1,5,-1
 90 70 l 1,6,-1
 90 60 l 1,7,-1
 100 60 l 1,8,-1
 100 10 l 1,9,-1
 90 10 l 1,10,-1
 90 0 l 1,11,-1
 0 0 l 1,0,-1
40 100 m 1,12,-1
 40 70 l 1,13,-1
 80 70 l 1,14,-1
 80 100 l 1,15,-1
 40 100 l 1,12,-1
40 20 m 1,16,-1
 80 20 l 1,17,-1
 80 50 l 1,18,-1
 40 50 l 1,19,-1
 40 20 l 1,16,-1
EndSplineSet
EndChar

StartChar: HexC-nCr
Encoding: 57347 57347 134
Width: 110
GlyphClass: 1
Flags: W
LayerCount: 2
Fore
SplineSet
0 30 m 1,0,-1
 0 90 l 1,1,-1
 10 90 l 1,2,-1
 10 110 l 1,3,-1
 30 110 l 1,4,-1
 30 120 l 1,5,-1
 90 120 l 1,6,-1
 90 110 l 1,7,-1
 100 110 l 1,8,-1
 100 90 l 1,9,-1
 80 90 l 1,10,-1
 80 100 l 1,11,-1
 50 100 l 1,12,-1
 50 90 l 1,13,-1
 40 90 l 1,14,-1
 40 30 l 1,15,-1
 50 30 l 1,16,-1
 50 20 l 1,17,-1
 80 20 l 1,18,-1
 80 30 l 1,19,-1
 100 30 l 1,20,-1
 100 10 l 1,21,-1
 90 10 l 1,22,-1
 90 0 l 1,23,-1
 30 0 l 1,24,-1
 30 10 l 1,25,-1
 10 10 l 1,26,-1
 10 30 l 1,27,-1
 0 30 l 1,0,-1
EndSplineSet
EndChar

StartChar: HexD
Encoding: 57348 57348 135
Width: 110
GlyphClass: 1
Flags: W
LayerCount: 2
Fore
SplineSet
100 20 m 1,0,-1
 90 20 l 1,1,-1
 90 10 l 1,2,-1
 80 10 l 1,3,-1
 80 0 l 1,4,-1
 0 0 l 1,5,-1
 0 120 l 1,6,-1
 80 120 l 1,7,-1
 80 110 l 1,8,-1
 90 110 l 1,9,-1
 90 100 l 1,10,-1
 100 100 l 1,11,-1
 100 20 l 1,0,-1
40 20 m 1,12,-1
 70 20 l 1,13,-1
 70 30 l 1,14,-1
 80 30 l 1,15,-1
 80 90 l 1,16,-1
 70 90 l 1,17,-1
 70 100 l 1,18,-1
 40 100 l 1,19,-1
 40 20 l 1,12,-1
EndSplineSet
EndChar

StartChar: HexE
Encoding: 57349 57349 136
Width: 110
GlyphClass: 1
Flags: W
LayerCount: 2
Fore
SplineSet
10 0 m 1,0,-1
 10 120 l 1,1,-1
 100 120 l 1,2,-1
 100 100 l 1,3,-1
 50 100 l 1,4,-1
 50 70 l 1,5,-1
 90 70 l 1,6,-1
 90 50 l 1,7,-1
 50 50 l 1,8,-1
 50 20 l 1,9,-1
 100 20 l 1,10,-1
 100 0 l 1,11,-1
 10 0 l 1,0,-1
EndSplineSet
EndChar

StartChar: HexF
Encoding: 57350 57350 137
Width: 110
GlyphClass: 1
Flags: W
LayerCount: 2
Fore
SplineSet
10 0 m 1,0,-1
 10 120 l 1,1,-1
 100 120 l 1,2,-1
 100 100 l 1,3,-1
 50 100 l 1,4,-1
 50 70 l 1,5,-1
 90 70 l 1,6,-1
 90 50 l 1,7,-1
 50 50 l 1,8,-1
 50 0 l 1,9,-1
 10 0 l 1,0,-1
EndSplineSet
EndChar

StartChar: nPr
Encoding: 57351 57351 138
Width: 110
GlyphClass: 1
Flags: W
LayerCount: 2
Fore
SplineSet
0 0 m 1,0,-1
 0 120 l 1,1,-1
 90 120 l 1,2,-1
 90 110 l 1,3,-1
 100 110 l 1,4,-1
 100 60 l 1,5,-1
 90 60 l 1,6,-1
 90 50 l 1,7,-1
 40 50 l 1,8,-1
 40 0 l 1,9,-1
 0 0 l 1,0,-1
40 100 m 1,10,-1
 40 70 l 1,11,-1
 80 70 l 1,12,-1
 80 100 l 1,13,-1
 40 100 l 1,10,-1
EndSplineSet
EndChar

StartChar: x.bar
Encoding: 57352 57352 139
Width: 110
GlyphClass: 1
Flags: W
LayerCount: 2
Fore
SplineSet
10 100 m 1,0,-1
 10 120 l 1,1,-1
 90 120 l 1,2,-1
 90 100 l 1,3,-1
 10 100 l 1,0,-1
20 60 m 1,4,-1
 20 70 l 1,5,-1
 10 70 l 1,6,-1
 10 90 l 1,7,-1
 30 90 l 1,8,-1
 30 80 l 1,9,-1
 40 80 l 1,10,-1
 40 70 l 1,11,-1
 60 70 l 1,12,-1
 60 80 l 1,13,-1
 70 80 l 1,14,-1
 70 90 l 1,15,-1
 90 90 l 1,16,-1
 90 70 l 1,17,-1
 80 70 l 1,18,-1
 80 60 l 1,19,-1
 70 60 l 1,20,-1
 70 50 l 1,21,-1
 60 50 l 1,22,-1
 60 40 l 1,23,-1
 70 40 l 1,24,-1
 70 30 l 1,25,-1
 80 30 l 1,26,-1
 80 20 l 1,27,-1
 90 20 l 1,28,-1
 90 0 l 1,29,-1
 70 0 l 1,30,-1
 70 10 l 1,31,-1
 60 10 l 1,32,-1
 60 20 l 1,33,-1
 40 20 l 1,34,-1
 40 10 l 1,35,-1
 30 10 l 1,36,-1
 30 0 l 1,37,-1
 10 0 l 1,38,-1
 10 20 l 1,39,-1
 20 20 l 1,40,-1
 20 30 l 1,41,-1
 30 30 l 1,42,-1
 30 40 l 1,43,-1
 40 40 l 1,44,-1
 40 50 l 1,45,-1
 30 50 l 1,46,-1
 30 60 l 1,47,-1
 20 60 l 1,4,-1
EndSplineSet
LCarets2: 1 0
Ligature2: "'ccmp' Glyph Composition/Decomposition lookup 6 subtable" x uni0305
EndChar

StartChar: x.hat
Encoding: 57353 57353 140
Width: 110
GlyphClass: 1
Flags: W
LayerCount: 2
Fore
SplineSet
10 90 m 1,0,-1
 10 100 l 1,1,-1
 20 100 l 1,2,-1
 20 110 l 1,3,-1
 30 110 l 1,4,-1
 30 120 l 1,5,-1
 60 120 l 1,6,-1
 60 110 l 1,7,-1
 70 110 l 1,8,-1
 70 100 l 1,9,-1
 80 100 l 1,10,-1
 80 90 l 1,11,-1
 50 90 l 1,12,-1
 50 100 l 1,13,-1
 40 100 l 1,14,-1
 40 90 l 1,15,-1
 10 90 l 1,0,-1
20 50 m 1,16,-1
 20 60 l 1,17,-1
 10 60 l 1,18,-1
 10 80 l 1,19,-1
 30 80 l 1,20,-1
 30 70 l 1,21,-1
 40 70 l 1,22,-1
 40 60 l 1,23,-1
 60 60 l 1,24,-1
 60 70 l 1,25,-1
 70 70 l 1,26,-1
 70 80 l 1,27,-1
 90 80 l 1,28,-1
 90 60 l 1,29,-1
 80 60 l 1,30,-1
 80 50 l 1,31,-1
 70 50 l 1,32,-1
 70 30 l 1,33,-1
 80 30 l 1,34,-1
 80 20 l 1,35,-1
 90 20 l 1,36,-1
 90 0 l 1,37,-1
 70 0 l 1,38,-1
 70 10 l 1,39,-1
 60 10 l 1,40,-1
 60 20 l 1,41,-1
 40 20 l 1,42,-1
 40 10 l 1,43,-1
 30 10 l 1,44,-1
 30 0 l 1,45,-1
 10 0 l 1,46,-1
 10 20 l 1,47,-1
 20 20 l 1,48,-1
 20 30 l 1,49,-1
 30 30 l 1,50,-1
 30 50 l 1,51,-1
 20 50 l 1,16,-1
EndSplineSet
LCarets2: 1 0
Ligature2: "'ccmp' Glyph Composition/Decomposition lookup 6 subtable" x uni0302
EndChar

StartChar: y.bar
Encoding: 57354 57354 141
Width: 110
GlyphClass: 1
Flags: W
LayerCount: 2
Fore
SplineSet
90 100 m 1,0,-1
 10 100 l 1,1,-1
 10 120 l 1,2,-1
 90 120 l 1,3,-1
 90 100 l 1,0,-1
10 70 m 1,4,-1
 10 90 l 1,5,-1
 30 90 l 1,6,-1
 30 70 l 1,7,-1
 40 70 l 1,8,-1
 40 50 l 1,9,-1
 60 50 l 1,10,-1
 60 70 l 1,11,-1
 70 70 l 1,12,-1
 70 90 l 1,13,-1
 90 90 l 1,14,-1
 90 70 l 1,15,-1
 80 70 l 1,16,-1
 80 50 l 1,17,-1
 70 50 l 1,18,-1
 70 30 l 1,19,-1
 60 30 l 1,20,-1
 60 10 l 1,21,-1
 50 10 l 1,22,-1
 50 0 l 1,23,-1
 40 0 l 1,24,-1
 40 -10 l 1,25,-1
 10 -10 l 1,26,-1
 10 10 l 1,27,-1
 30 10 l 1,28,-1
 30 20 l 1,29,-1
 40 20 l 1,30,-1
 40 30 l 1,31,-1
 30 30 l 1,32,-1
 30 50 l 1,33,-1
 20 50 l 1,34,-1
 20 70 l 1,35,-1
 10 70 l 1,4,-1
EndSplineSet
Ligature2: "'ccmp' Glyph Composition/Decomposition lookup 6 subtable" y uni0305
EndChar

StartChar: y.hat
Encoding: 57355 57355 142
Width: 110
GlyphClass: 1
Flags: W
LayerCount: 2
Fore
SplineSet
10 90 m 1,0,-1
 10 100 l 1,1,-1
 20 100 l 1,2,-1
 20 110 l 1,3,-1
 30 110 l 1,4,-1
 30 120 l 1,5,-1
 60 120 l 1,6,-1
 60 110 l 1,7,-1
 70 110 l 1,8,-1
 70 100 l 1,9,-1
 80 100 l 1,10,-1
 80 90 l 1,11,-1
 50 90 l 1,12,-1
 50 100 l 1,13,-1
 40 100 l 1,14,-1
 40 90 l 1,15,-1
 10 90 l 1,0,-1
10 60 m 1,16,-1
 10 80 l 1,17,-1
 30 80 l 1,18,-1
 30 60 l 1,19,-1
 40 60 l 1,20,-1
 40 40 l 1,21,-1
 60 40 l 1,22,-1
 60 60 l 1,23,-1
 70 60 l 1,24,-1
 70 80 l 1,25,-1
 90 80 l 1,26,-1
 90 60 l 1,27,-1
 80 60 l 1,28,-1
 80 40 l 1,29,-1
 70 40 l 1,30,-1
 70 20 l 1,31,-1
 60 20 l 1,32,-1
 60 0 l 1,33,-1
 50 0 l 1,34,-1
 50 -10 l 1,35,-1
 10 -10 l 1,36,-1
 10 10 l 1,37,-1
 40 10 l 1,38,-1
 40 20 l 1,39,-1
 30 20 l 1,40,-1
 30 40 l 1,41,-1
 20 40 l 1,42,-1
 20 60 l 1,43,-1
 10 60 l 1,16,-1
EndSplineSet
Ligature2: "'ccmp' Glyph Composition/Decomposition lookup 6 subtable" y uni0302
EndChar

StartChar: times.small
Encoding: 57356 57356 143
Width: 110
GlyphClass: 1
Flags: W
LayerCount: 2
Fore
SplineSet
30 20 m 1,0,-1
 40 20 l 1,1,-1
 40 30 l 1,2,-1
 50 30 l 1,3,-1
 50 40 l 1,4,-1
 40 40 l 1,5,-1
 40 50 l 1,6,-1
 30 50 l 1,7,-1
 30 70 l 1,8,-1
 40 70 l 1,9,-1
 40 60 l 1,10,-1
 50 60 l 1,11,-1
 50 50 l 1,12,-1
 70 50 l 1,13,-1
 70 60 l 1,14,-1
 80 60 l 1,15,-1
 80 70 l 1,16,-1
 90 70 l 1,17,-1
 90 50 l 1,18,-1
 80 50 l 1,19,-1
 80 40 l 1,20,-1
 70 40 l 1,21,-1
 70 30 l 1,22,-1
 80 30 l 1,23,-1
 80 20 l 1,24,-1
 90 20 l 1,25,-1
 90 0 l 1,26,-1
 80 0 l 1,27,-1
 80 10 l 1,28,-1
 70 10 l 1,29,-1
 70 20 l 1,30,-1
 50 20 l 1,31,-1
 50 10 l 1,32,-1
 40 10 l 1,33,-1
 40 0 l 1,34,-1
 30 0 l 1,35,-1
 30 20 l 1,0,-1
EndSplineSet
EndChar

StartChar: EE
Encoding: 57357 57357 144
Width: 110
GlyphClass: 1
Flags: W
LayerCount: 2
Fore
SplineSet
50 10 m 1,0,-1
 50 50 l 1,1,-1
 60 50 l 1,2,-1
 60 60 l 1,3,-1
 90 60 l 1,4,-1
 90 50 l 1,5,-1
 100 50 l 1,6,-1
 100 10 l 1,7,-1
 90 10 l 1,8,-1
 90 0 l 1,9,-1
 60 0 l 1,10,-1
 60 10 l 1,11,-1
 50 10 l 1,0,-1
10 60 m 1,12,-1
 30 60 l 1,13,-1
 30 0 l 1,14,-1
 10 0 l 1,15,-1
 10 60 l 1,12,-1
70 40 m 1,16,-1
 70 20 l 1,17,-1
 80 20 l 1,18,-1
 80 40 l 1,19,-1
 70 40 l 1,16,-1
EndSplineSet
EndChar

StartChar: times.small.2
Encoding: 57358 57358 145
Width: 110
GlyphClass: 1
Flags: W
LayerCount: 2
Fore
SplineSet
80 0 m 1,0,-1
 70 0 l 1,1,-1
 70 10 l 1,2,-1
 60 10 l 1,3,-1
 60 20 l 1,4,-1
 40 20 l 1,5,-1
 40 10 l 1,6,-1
 30 10 l 1,7,-1
 30 0 l 1,8,-1
 20 0 l 1,9,-1
 20 20 l 1,10,-1
 30 20 l 1,11,-1
 30 30 l 1,12,-1
 40 30 l 1,13,-1
 40 40 l 1,14,-1
 30 40 l 1,15,-1
 30 50 l 1,16,-1
 20 50 l 1,17,-1
 20 70 l 1,18,-1
 30 70 l 1,19,-1
 30 60 l 1,20,-1
 40 60 l 1,21,-1
 40 50 l 1,22,-1
 60 50 l 1,23,-1
 60 60 l 1,24,-1
 70 60 l 1,25,-1
 70 70 l 1,26,-1
 80 70 l 1,27,-1
 80 50 l 1,28,-1
 70 50 l 1,29,-1
 70 40 l 1,30,-1
 60 40 l 1,31,-1
 60 30 l 1,32,-1
 70 30 l 1,33,-1
 70 20 l 1,34,-1
 80 20 l 1,35,-1
 80 0 l 1,0,-1
EndSplineSet
EndChar

StartChar: EE-
Encoding: 57359 57359 146
Width: 110
GlyphClass: 1
Flags: W
LayerCount: 2
Fore
SplineSet
50 80 m 1,0,-1
 50 100 l 1,1,-1
 100 100 l 1,2,-1
 100 80 l 1,3,-1
 50 80 l 1,0,-1
30 10 m 1,4,-1
 30 50 l 1,5,-1
 40 50 l 1,6,-1
 40 60 l 1,7,-1
 70 60 l 1,8,-1
 70 50 l 1,9,-1
 80 50 l 1,10,-1
 80 10 l 1,11,-1
 70 10 l 1,12,-1
 70 0 l 1,13,-1
 40 0 l 1,14,-1
 40 10 l 1,15,-1
 30 10 l 1,4,-1
0 60 m 1,16,-1
 20 60 l 1,17,-1
 20 0 l 1,18,-1
 0 0 l 1,19,-1
 0 60 l 1,16,-1
50 40 m 1,20,-1
 50 20 l 1,21,-1
 60 20 l 1,22,-1
 60 40 l 1,23,-1
 50 40 l 1,20,-1
EndSplineSet
EndChar

StartChar: ten.small
Encoding: 9192 9192 147
AltUni2: 00e010.ffffffff.0 00e010.ffffffff.0
Width: 110
GlyphClass: 1
Flags: W
LayerCount: 2
Fore
SplineSet
10 50 m 1,0,-1
 0 50 l 1,1,-1
 0 70 l 1,2,-1
 10 70 l 1,3,-1
 10 80 l 1,4,-1
 30 80 l 1,5,-1
 30 0 l 1,6,-1
 10 0 l 1,7,-1
 10 50 l 1,0,-1
50 10 m 1,8,-1
 50 70 l 1,9,-1
 60 70 l 1,10,-1
 60 80 l 1,11,-1
 90 80 l 1,12,-1
 90 70 l 1,13,-1
 100 70 l 1,14,-1
 100 10 l 1,15,-1
 90 10 l 1,16,-1
 90 0 l 1,17,-1
 60 0 l 1,18,-1
 60 10 l 1,19,-1
 50 10 l 1,8,-1
70 60 m 1,20,-1
 70 20 l 1,21,-1
 80 20 l 1,22,-1
 80 60 l 1,23,-1
 70 60 l 1,20,-1
EndSplineSet
EndChar

StartChar: minus.one.superior
Encoding: 57361 57361 148
Width: 110
GlyphClass: 1
Flags: W
LayerCount: 2
Fore
SplineSet
70 90 m 1,0,-1
 50 90 l 1,1,-1
 50 110 l 1,2,-1
 70 110 l 1,3,-1
 70 120 l 1,4,-1
 90 120 l 1,5,-1
 90 50 l 1,6,-1
 70 50 l 1,7,-1
 70 90 l 1,0,-1
0 70 m 1,8,-1
 0 90 l 1,9,-1
 50 90 l 1,10,-1
 50 70 l 1,11,-1
 0 70 l 1,8,-1
EndSplineSet
EndChar

StartChar: ten.superior
Encoding: 57362 57362 149
Width: 110
GlyphClass: 1
Flags: W
LayerCount: 2
Fore
SplineSet
10 50 m 1,0,-1
 10 90 l 1,1,-1
 0 90 l 1,2,-1
 0 110 l 1,3,-1
 10 110 l 1,4,-1
 10 120 l 1,5,-1
 30 120 l 1,6,-1
 30 50 l 1,7,-1
 10 50 l 1,0,-1
50 50 m 1,8,-1
 50 60 l 1,9,-1
 40 60 l 1,10,-1
 40 110 l 1,11,-1
 50 110 l 1,12,-1
 50 120 l 1,13,-1
 90 120 l 1,14,-1
 90 110 l 1,15,-1
 100 110 l 1,16,-1
 100 60 l 1,17,-1
 90 60 l 1,18,-1
 90 50 l 1,19,-1
 50 50 l 1,8,-1
60 70 m 1,20,-1
 80 70 l 1,21,-1
 80 100 l 1,22,-1
 60 100 l 1,23,-1
 60 70 l 1,20,-1
EndSplineSet
EndChar

StartChar: x.itc.superior
Encoding: 57363 57363 150
Width: 110
GlyphClass: 1
Flags: W
LayerCount: 2
Fore
SplineSet
10 50 m 1,0,-1
 10 70 l 1,1,-1
 30 70 l 1,2,-1
 30 80 l 1,3,-1
 40 80 l 1,4,-1
 40 100 l 1,5,-1
 30 100 l 1,6,-1
 30 90 l 1,7,-1
 20 90 l 1,8,-1
 20 80 l 1,9,-1
 10 80 l 1,10,-1
 10 100 l 1,11,-1
 20 100 l 1,12,-1
 20 110 l 1,13,-1
 50 110 l 1,14,-1
 50 100 l 1,15,-1
 60 100 l 1,16,-1
 60 110 l 1,17,-1
 80 110 l 1,18,-1
 80 90 l 1,19,-1
 60 90 l 1,20,-1
 60 80 l 1,21,-1
 50 80 l 1,22,-1
 50 60 l 1,23,-1
 60 60 l 1,24,-1
 60 70 l 1,25,-1
 80 70 l 1,26,-1
 80 60 l 1,27,-1
 70 60 l 1,28,-1
 70 50 l 1,29,-1
 40 50 l 1,30,-1
 40 60 l 1,31,-1
 30 60 l 1,32,-1
 30 50 l 1,33,-1
 10 50 l 1,0,-1
EndSplineSet
EndChar

StartChar: tau.itc.inferior
Encoding: 57364 57364 151
Width: 110
GlyphClass: 1
Flags: W
LayerCount: 2
Fore
SplineSet
10 30 m 1,0,-1
 20 30 l 1,1,-1
 20 40 l 1,2,-1
 90 40 l 1,3,-1
 90 30 l 1,4,-1
 60 30 l 1,5,-1
 60 10 l 1,6,-1
 90 10 l 1,7,-1
 90 0 l 1,8,-1
 80 0 l 1,9,-1
 80 -10 l 1,10,-1
 50 -10 l 1,11,-1
 50 0 l 1,12,-1
 40 0 l 1,13,-1
 40 30 l 1,14,-1
 20 30 l 1,15,-1
 20 20 l 1,16,-1
 10 20 l 1,17,-1
 10 30 l 1,0,-1
EndSplineSet
EndChar

StartChar: mu.itc.inferior
Encoding: 57365 57365 152
Width: 110
GlyphClass: 1
Flags: W
LayerCount: 2
Fore
SplineSet
10 10 m 1,0,-1
 20 10 l 1,1,-1
 20 40 l 1,2,-1
 30 40 l 1,3,-1
 30 60 l 1,4,-1
 50 60 l 1,5,-1
 50 40 l 1,6,-1
 40 40 l 1,7,-1
 40 20 l 1,8,-1
 60 20 l 1,9,-1
 60 40 l 1,10,-1
 70 40 l 1,11,-1
 70 60 l 1,12,-1
 90 60 l 1,13,-1
 90 40 l 1,14,-1
 80 40 l 1,15,-1
 80 10 l 1,16,-1
 90 10 l 1,17,-1
 90 0 l 1,18,-1
 70 0 l 1,19,-1
 70 10 l 1,20,-1
 60 10 l 1,21,-1
 60 0 l 1,22,-1
 40 0 l 1,23,-1
 40 10 l 1,24,-1
 30 10 l 1,25,-1
 30 -10 l 1,26,-1
 10 -10 l 1,27,-1
 10 10 l 1,0,-1
EndSplineSet
EndChar

StartChar: pm.inferior
Encoding: 57366 57366 153
Width: 110
GlyphClass: 1
Flags: W
LayerCount: 2
Fore
SplineSet
80 30 m 1,0,-1
 80 10 l 1,1,-1
 60 10 l 1,2,-1
 60 30 l 1,3,-1
 40 30 l 1,4,-1
 40 40 l 1,5,-1
 60 40 l 1,6,-1
 60 60 l 1,7,-1
 80 60 l 1,8,-1
 80 40 l 1,9,-1
 100 40 l 1,10,-1
 100 30 l 1,11,-1
 80 30 l 1,0,-1
40 0 m 1,12,-1
 100 0 l 1,13,-1
 100 -10 l 1,14,-1
 40 -10 l 1,15,-1
 40 0 l 1,12,-1
EndSplineSet
EndChar

StartChar: infty.inferior
Encoding: 57367 57367 154
Width: 110
GlyphClass: 1
Flags: W
LayerCount: 2
Fore
SplineSet
90 -10 m 1,0,-1
 60 -10 l 1,1,-1
 60 0 l 1,2,-1
 40 0 l 1,3,-1
 40 -10 l 1,4,-1
 10 -10 l 1,5,-1
 10 0 l 1,6,-1
 0 0 l 1,7,-1
 0 60 l 1,8,-1
 10 60 l 1,9,-1
 10 70 l 1,10,-1
 40 70 l 1,11,-1
 40 60 l 1,12,-1
 60 60 l 1,13,-1
 60 70 l 1,14,-1
 90 70 l 1,15,-1
 90 60 l 1,16,-1
 100 60 l 1,17,-1
 100 0 l 1,18,-1
 90 0 l 1,19,-1
 90 -10 l 1,0,-1
40 10 m 1,20,-1
 40 50 l 1,21,-1
 20 50 l 1,22,-1
 20 10 l 1,23,-1
 40 10 l 1,20,-1
80 10 m 1,24,-1
 80 50 l 1,25,-1
 60 50 l 1,26,-1
 60 10 l 1,27,-1
 80 10 l 1,24,-1
EndSplineSet
EndChar

StartChar: Calth-gk
Encoding: 57368 57368 155
Width: 110
GlyphClass: 1
Flags: W
LayerCount: 2
Fore
SplineSet
10 20 m 1,0,-1
 10 70 l 1,1,-1
 20 70 l 1,2,-1
 20 80 l 1,3,-1
 30 80 l 1,4,-1
 30 90 l 1,5,-1
 80 90 l 1,6,-1
 80 80 l 1,7,-1
 90 80 l 1,8,-1
 90 60 l 1,9,-1
 70 60 l 1,10,-1
 70 70 l 1,11,-1
 40 70 l 1,12,-1
 40 60 l 1,13,-1
 30 60 l 1,14,-1
 30 30 l 1,15,-1
 40 30 l 1,16,-1
 40 20 l 1,17,-1
 70 20 l 1,18,-1
 70 30 l 1,19,-1
 90 30 l 1,20,-1
 90 10 l 1,21,-1
 80 10 l 1,22,-1
 80 0 l 1,23,-1
 30 0 l 1,24,-1
 30 10 l 1,25,-1
 20 10 l 1,26,-1
 20 20 l 1,27,-1
 10 20 l 1,0,-1
EndSplineSet
EndChar

StartChar: cAlth-gk
Encoding: 57369 57369 156
Width: 110
GlyphClass: 1
Flags: W
LayerCount: 2
Fore
SplineSet
80 80 m 1,0,-1
 90 80 l 1,1,-1
 90 0 l 1,2,-1
 20 0 l 1,3,-1
 20 10 l 1,4,-1
 10 10 l 1,5,-1
 10 50 l 1,6,-1
 20 50 l 1,7,-1
 20 60 l 1,8,-1
 70 60 l 1,9,-1
 70 70 l 1,10,-1
 20 70 l 1,11,-1
 20 90 l 1,12,-1
 80 90 l 1,13,-1
 80 80 l 1,0,-1
70 20 m 1,14,-1
 70 40 l 1,15,-1
 30 40 l 1,16,-1
 30 20 l 1,17,-1
 70 20 l 1,14,-1
EndSplineSet
EndChar

StartChar: caLTh-gk
Encoding: 57370 57370 157
Width: 110
GlyphClass: 1
Flags: W
LayerCount: 2
Fore
SplineSet
0 100 m 1,0,-1
 0 120 l 1,1,-1
 30 120 l 1,2,-1
 30 20 l 1,3,-1
 40 20 l 1,4,-1
 40 0 l 1,5,-1
 0 0 l 1,6,-1
 0 20 l 1,7,-1
 10 20 l 1,8,-1
 10 100 l 1,9,-1
 0 100 l 1,0,-1
100 30 m 1,10,-1
 80 30 l 1,11,-1
 80 10 l 1,12,-1
 100 10 l 1,13,-1
 100 -10 l 1,14,-1
 70 -10 l 1,15,-1
 70 0 l 1,16,-1
 60 0 l 1,17,-1
 60 30 l 1,18,-1
 50 30 l 1,19,-1
 50 50 l 1,20,-1
 60 50 l 1,21,-1
 60 60 l 1,22,-1
 80 60 l 1,23,-1
 80 50 l 1,24,-1
 100 50 l 1,25,-1
 100 30 l 1,10,-1
EndSplineSet
Ligature2: "Ligature Substitution lookup 2 subtable" l t
EndChar

StartChar: caltH-gk
Encoding: 57371 57371 158
Width: 110
GlyphClass: 1
Flags: W
LayerCount: 2
Fore
SplineSet
30 20 m 1,0,-1
 30 -10 l 1,1,-1
 10 -10 l 1,2,-1
 10 60 l 1,3,-1
 30 60 l 1,4,-1
 30 40 l 1,5,-1
 60 40 l 1,6,-1
 60 30 l 1,7,-1
 70 30 l 1,8,-1
 70 -10 l 1,9,-1
 50 -10 l 1,10,-1
 50 20 l 1,11,-1
 30 20 l 1,0,-1
EndSplineSet
EndChar

StartChar: calth-gk
Encoding: 57372 57372 159
Width: 110
GlyphClass: 1
Flags: W
LayerCount: 2
Fore
SplineSet
0 0 m 1,0,-1
 0 30 l 1,1,-1
 10 30 l 1,2,-1
 10 60 l 1,3,-1
 20 60 l 1,4,-1
 20 90 l 1,5,-1
 30 90 l 1,6,-1
 30 120 l 1,7,-1
 50 120 l 1,8,-1
 50 80 l 1,9,-1
 40 80 l 1,10,-1
 40 50 l 1,11,-1
 30 50 l 1,12,-1
 30 20 l 1,13,-1
 20 20 l 1,14,-1
 20 0 l 1,15,-1
 0 0 l 1,0,-1
100 120 m 1,16,-1
 100 100 l 1,17,-1
 90 100 l 1,18,-1
 90 80 l 1,19,-1
 80 80 l 1,20,-1
 80 40 l 1,21,-1
 90 40 l 1,22,-1
 90 20 l 1,23,-1
 100 20 l 1,24,-1
 100 0 l 1,25,-1
 80 0 l 1,26,-1
 80 10 l 1,27,-1
 70 10 l 1,28,-1
 70 30 l 1,29,-1
 60 30 l 1,30,-1
 60 90 l 1,31,-1
 70 90 l 1,32,-1
 70 110 l 1,33,-1
 80 110 l 1,34,-1
 80 120 l 1,35,-1
 100 120 l 1,16,-1
EndSplineSet
LCarets2: 1 0
Ligature2: "Ligature Substitution lookup 2 subtable" slash parenleft
EndChar

StartChar: calth-Gk
Encoding: 57373 57373 160
Width: 110
GlyphClass: 1
Flags: W
LayerCount: 2
Fore
SplineSet
10 0 m 1,0,-1
 0 0 l 1,1,-1
 0 20 l 1,2,-1
 10 20 l 1,3,-1
 10 40 l 1,4,-1
 20 40 l 1,5,-1
 20 50 l 1,6,-1
 10 50 l 1,7,-1
 10 80 l 1,8,-1
 20 80 l 1,9,-1
 20 90 l 1,10,-1
 60 90 l 1,11,-1
 60 80 l 1,12,-1
 70 80 l 1,13,-1
 70 90 l 1,14,-1
 90 90 l 1,15,-1
 90 70 l 1,16,-1
 70 70 l 1,17,-1
 70 50 l 1,18,-1
 60 50 l 1,19,-1
 60 40 l 1,20,-1
 30 40 l 1,21,-1
 30 30 l 1,22,-1
 60 30 l 1,23,-1
 60 20 l 1,24,-1
 70 20 l 1,25,-1
 70 0 l 1,26,-1
 60 0 l 1,27,-1
 60 -10 l 1,28,-1
 10 -10 l 1,29,-1
 10 0 l 1,0,-1
28 70 m 1,30,-1
 28 60 l 1,31,-1
 51 60 l 1,32,-1
 51 70 l 1,33,-1
 28 70 l 1,30,-1
80 60 m 1,34,-1
 100 60 l 1,35,-1
 100 40 l 1,36,-1
 80 40 l 1,37,-1
 80 60 l 1,34,-1
20 10 m 1,38,-1
 50 10 l 1,39,-1
 50 20 l 1,40,-1
 20 20 l 1,41,-1
 20 10 l 1,38,-1
EndSplineSet
Ligature2: "Ligature Substitution lookup 2 subtable" g asterisk
EndChar

StartChar: calth-gK
Encoding: 57374 57374 161
Width: 110
GlyphClass: 1
Flags: W
LayerCount: 2
Fore
SplineSet
0 0 m 1,0,-1
 0 120 l 1,1,-1
 20 120 l 1,2,-1
 20 90 l 1,3,-1
 30 90 l 1,4,-1
 30 120 l 1,5,-1
 50 120 l 1,6,-1
 50 90 l 1,7,-1
 40 90 l 1,8,-1
 40 70 l 1,9,-1
 30 70 l 1,10,-1
 30 50 l 1,11,-1
 40 50 l 1,12,-1
 40 30 l 1,13,-1
 50 30 l 1,14,-1
 50 0 l 1,15,-1
 30 0 l 1,16,-1
 30 30 l 1,17,-1
 20 30 l 1,18,-1
 20 0 l 1,19,-1
 0 0 l 1,0,-1
60 120 m 1,20,-1
 80 120 l 1,21,-1
 80 110 l 1,22,-1
 90 110 l 1,23,-1
 90 90 l 1,24,-1
 100 90 l 1,25,-1
 100 30 l 1,26,-1
 90 30 l 1,27,-1
 90 10 l 1,28,-1
 80 10 l 1,29,-1
 80 0 l 1,30,-1
 60 0 l 1,31,-1
 60 20 l 1,32,-1
 70 20 l 1,33,-1
 70 40 l 1,34,-1
 80 40 l 1,35,-1
 80 80 l 1,36,-1
 70 80 l 1,37,-1
 70 100 l 1,38,-1
 60 100 l 1,39,-1
 60 120 l 1,20,-1
EndSplineSet
Ligature2: "Ligature Substitution lookup 2 subtable" K parenright
EndChar

StartChar: to
Encoding: 57375 57375 162
Width: 110
GlyphClass: 1
Flags: W
LayerCount: 2
Fore
SplineSet
30 30 m 1,0,-1
 30 20 l 1,1,-1
 10 20 l 1,2,-1
 10 90 l 1,3,-1
 30 90 l 1,4,-1
 30 80 l 1,5,-1
 50 80 l 1,6,-1
 50 70 l 1,7,-1
 70 70 l 1,8,-1
 70 60 l 1,9,-1
 90 60 l 1,10,-1
 90 50 l 1,11,-1
 70 50 l 1,12,-1
 70 40 l 1,13,-1
 50 40 l 1,14,-1
 50 30 l 1,15,-1
 30 30 l 1,0,-1
EndSplineSet
EndChar

StartChar: kgk
Encoding: 57376 57376 163
Width: 110
GlyphClass: 1
Flags: W
LayerCount: 2
Fore
SplineSet
0 0 m 1,0,-1
 0 30 l 1,1,-1
 10 30 l 1,2,-1
 10 60 l 1,3,-1
 20 60 l 1,4,-1
 20 90 l 1,5,-1
 30 90 l 1,6,-1
 30 120 l 1,7,-1
 50 120 l 1,8,-1
 50 80 l 1,9,-1
 40 80 l 1,10,-1
 40 50 l 1,11,-1
 30 50 l 1,12,-1
 30 20 l 1,13,-1
 20 20 l 1,14,-1
 20 0 l 1,15,-1
 0 0 l 1,0,-1
100 120 m 1,16,-1
 100 100 l 1,17,-1
 90 100 l 1,18,-1
 90 80 l 1,19,-1
 80 80 l 1,20,-1
 80 40 l 1,21,-1
 90 40 l 1,22,-1
 90 20 l 1,23,-1
 100 20 l 1,24,-1
 100 0 l 1,25,-1
 80 0 l 1,26,-1
 80 10 l 1,27,-1
 70 10 l 1,28,-1
 70 30 l 1,29,-1
 60 30 l 1,30,-1
 60 90 l 1,31,-1
 70 90 l 1,32,-1
 70 110 l 1,33,-1
 80 110 l 1,34,-1
 80 120 l 1,35,-1
 100 120 l 1,16,-1
EndSplineSet
Ligature2: "Ligature Substitution lookup 4 subtable" slash parenleft
EndChar

StartChar: Kgk
Encoding: 57377 57377 164
Width: 110
GlyphClass: 1
Flags: W
LayerCount: 2
Fore
SplineSet
20 0 m 1,0,-1
 20 120 l 1,1,-1
 40 120 l 1,2,-1
 40 60 l 1,3,-1
 50 60 l 1,4,-1
 50 70 l 1,5,-1
 60 70 l 1,6,-1
 60 80 l 1,7,-1
 70 80 l 1,8,-1
 70 90 l 1,9,-1
 90 90 l 1,10,-1
 90 70 l 1,11,-1
 80 70 l 1,12,-1
 80 60 l 1,13,-1
 70 60 l 1,14,-1
 70 40 l 1,15,-1
 80 40 l 1,16,-1
 80 30 l 1,17,-1
 90 30 l 1,18,-1
 90 20 l 1,19,-1
 100 20 l 1,20,-1
 100 0 l 1,21,-1
 80 0 l 1,22,-1
 80 10 l 1,23,-1
 70 10 l 1,24,-1
 70 20 l 1,25,-1
 60 20 l 1,26,-1
 60 30 l 1,27,-1
 50 30 l 1,28,-1
 50 40 l 1,29,-1
 40 40 l 1,30,-1
 40 0 l 1,31,-1
 20 0 l 1,0,-1
EndSplineSet
EndChar

StartChar: kGk
Encoding: 57378 57378 165
Width: 110
GlyphClass: 1
Flags: W
LayerCount: 2
Fore
SplineSet
10 0 m 1,0,-1
 0 0 l 1,1,-1
 0 20 l 1,2,-1
 10 20 l 1,3,-1
 10 40 l 1,4,-1
 20 40 l 1,5,-1
 20 50 l 1,6,-1
 10 50 l 1,7,-1
 10 80 l 1,8,-1
 20 80 l 1,9,-1
 20 90 l 1,10,-1
 60 90 l 1,11,-1
 60 80 l 1,12,-1
 70 80 l 1,13,-1
 70 90 l 1,14,-1
 90 90 l 1,15,-1
 90 70 l 1,16,-1
 70 70 l 1,17,-1
 70 50 l 1,18,-1
 60 50 l 1,19,-1
 60 40 l 1,20,-1
 30 40 l 1,21,-1
 30 30 l 1,22,-1
 60 30 l 1,23,-1
 60 20 l 1,24,-1
 70 20 l 1,25,-1
 70 0 l 1,26,-1
 60 0 l 1,27,-1
 60 -10 l 1,28,-1
 10 -10 l 1,29,-1
 10 0 l 1,0,-1
28 70 m 1,30,-1
 28 60 l 1,31,-1
 51 60 l 1,32,-1
 51 70 l 1,33,-1
 28 70 l 1,30,-1
80 60 m 1,34,-1
 100 60 l 1,35,-1
 100 40 l 1,36,-1
 80 40 l 1,37,-1
 80 60 l 1,34,-1
20 10 m 1,38,-1
 50 10 l 1,39,-1
 50 20 l 1,40,-1
 20 20 l 1,41,-1
 20 10 l 1,38,-1
EndSplineSet
Ligature2: "Ligature Substitution lookup 4 subtable" g asterisk
EndChar

StartChar: kgK
Encoding: 57379 57379 166
Width: 110
GlyphClass: 1
Flags: W
LayerCount: 2
Fore
SplineSet
0 0 m 1,0,-1
 0 120 l 1,1,-1
 20 120 l 1,2,-1
 20 90 l 1,3,-1
 30 90 l 1,4,-1
 30 120 l 1,5,-1
 50 120 l 1,6,-1
 50 90 l 1,7,-1
 40 90 l 1,8,-1
 40 70 l 1,9,-1
 30 70 l 1,10,-1
 30 50 l 1,11,-1
 40 50 l 1,12,-1
 40 30 l 1,13,-1
 50 30 l 1,14,-1
 50 0 l 1,15,-1
 30 0 l 1,16,-1
 30 30 l 1,17,-1
 20 30 l 1,18,-1
 20 0 l 1,19,-1
 0 0 l 1,0,-1
60 120 m 1,20,-1
 80 120 l 1,21,-1
 80 110 l 1,22,-1
 90 110 l 1,23,-1
 90 90 l 1,24,-1
 100 90 l 1,25,-1
 100 30 l 1,26,-1
 90 30 l 1,27,-1
 90 10 l 1,28,-1
 80 10 l 1,29,-1
 80 0 l 1,30,-1
 60 0 l 1,31,-1
 60 20 l 1,32,-1
 70 20 l 1,33,-1
 70 40 l 1,34,-1
 80 40 l 1,35,-1
 80 80 l 1,36,-1
 70 80 l 1,37,-1
 70 100 l 1,38,-1
 60 100 l 1,39,-1
 60 120 l 1,20,-1
EndSplineSet
Ligature2: "Ligature Substitution lookup 4 subtable" K parenright
EndChar

StartChar: div
Encoding: 8991 8991 167
AltUni2: 00e024.ffffffff.0 00e024.ffffffff.0
Width: 110
GlyphClass: 1
Flags: W
LayerCount: 2
Fore
SplineSet
10 20 m 1,0,-1
 70 20 l 1,1,-1
 70 90 l 1,2,-1
 90 90 l 1,3,-1
 90 0 l 1,4,-1
 10 0 l 1,5,-1
 10 20 l 1,0,-1
EndSplineSet
EndChar

StartChar: dms
Encoding: 57381 57381 168
Width: 110
GlyphClass: 1
Flags: W
LayerCount: 2
Fore
SplineSet
10 120 m 1,0,-1
 60 120 l 1,1,-1
 60 70 l 1,2,-1
 10 70 l 1,3,-1
 10 120 l 1,0,-1
20 110 m 1,4,-1
 20 80 l 1,5,-1
 50 80 l 1,6,-1
 50 110 l 1,7,-1
 20 110 l 1,4,-1
EndSplineSet
EndChar

StartChar: cursor.replace
Encoding: 57382 57382 169
Width: 110
GlyphClass: 1
Flags: W
LayerCount: 2
Fore
SplineSet
0 20 m 1,0,-1
 100 20 l 1,1,-1
 100 -10 l 1,2,-1
 0 -10 l 1,3,-1
 0 20 l 1,0,-1
EndSplineSet
EndChar

StartChar: cursor.full
Encoding: 57383 57383 170
Width: 110
GlyphClass: 1
Flags: W
LayerCount: 2
Fore
SplineSet
0 120 m 1,0,-1
 100 120 l 1,1,-1
 100 -10 l 1,2,-1
 0 -10 l 1,3,-1
 0 120 l 1,0,-1
EndSplineSet
EndChar

StartChar: BOX
Encoding: 57384 57384 171
Width: 110
GlyphClass: 1
Flags: W
LayerCount: 2
Fore
SplineSet
0 120 m 1,0,-1
 100 120 l 1,1,-1
 100 -10 l 1,2,-1
 0 -10 l 1,3,-1
 0 120 l 1,0,-1
20 100 m 1,4,-1
 20 10 l 1,5,-1
 80 10 l 1,6,-1
 80 100 l 1,7,-1
 20 100 l 1,4,-1
EndSplineSet
Substitution2: "'ss01' Style Set 1 lookup 5 subtable" box.superior
Substitution2: "'aalt' Access All Alternates lookup 0 subtable" box.superior
EndChar

StartChar: cut
Encoding: 57385 57385 172
Width: 110
GlyphClass: 1
Flags: W
LayerCount: 2
Fore
SplineSet
0 0 m 1,0,-1
 0 120 l 1,1,-1
 100 120 l 1,2,-1
 100 0 l 1,3,-1
 0 0 l 1,0,-1
10 40 m 1,4,-1
 10 20 l 1,5,-1
 20 20 l 1,6,-1
 20 10 l 1,7,-1
 40 10 l 1,8,-1
 40 20 l 1,9,-1
 60 20 l 1,10,-1
 60 10 l 1,11,-1
 80 10 l 1,12,-1
 80 20 l 1,13,-1
 60 20 l 1,14,-1
 60 40 l 1,15,-1
 80 40 l 1,16,-1
 80 20 l 1,17,-1
 90 20 l 1,18,-1
 90 40 l 1,19,-1
 80 40 l 1,20,-1
 80 50 l 1,21,-1
 60 50 l 1,22,-1
 60 60 l 1,23,-1
 70 60 l 1,24,-1
 70 80 l 1,25,-1
 80 80 l 1,26,-1
 80 110 l 1,27,-1
 70 110 l 1,28,-1
 70 90 l 1,29,-1
 60 90 l 1,30,-1
 60 70 l 1,31,-1
 40 70 l 1,32,-1
 40 90 l 1,33,-1
 30 90 l 1,34,-1
 30 110 l 1,35,-1
 20 110 l 1,36,-1
 20 80 l 1,37,-1
 30 80 l 1,38,-1
 30 60 l 1,39,-1
 40 60 l 1,40,-1
 40 50 l 1,41,-1
 20 50 l 1,42,-1
 20 40 l 1,43,-1
 10 40 l 1,4,-1
20 40 m 1,44,-1
 40 40 l 1,45,-1
 40 20 l 1,46,-1
 20 20 l 1,47,-1
 20 40 l 1,44,-1
EndSplineSet
EndChar

StartChar: paste
Encoding: 57386 57386 173
Width: 110
GlyphClass: 1
Flags: W
LayerCount: 2
Fore
SplineSet
100 0 m 1,0,-1
 0 0 l 1,1,-1
 0 120 l 1,2,-1
 100 120 l 1,3,-1
 100 0 l 1,0,-1
10 110 m 1,4,-1
 10 40 l 1,5,-1
 40 40 l 1,6,-1
 40 10 l 1,7,-1
 90 10 l 1,8,-1
 90 80 l 1,9,-1
 60 80 l 1,10,-1
 60 110 l 1,11,-1
 10 110 l 1,4,-1
20 100 m 1,12,-1
 50 100 l 1,13,-1
 50 80 l 1,14,-1
 40 80 l 1,15,-1
 40 50 l 1,16,-1
 20 50 l 1,17,-1
 20 100 l 1,12,-1
50 20 m 1,18,-1
 50 70 l 1,19,-1
 80 70 l 1,20,-1
 80 20 l 1,21,-1
 50 20 l 1,18,-1
EndSplineSet
EndChar

StartChar: divR-Fr
Encoding: 57387 57387 174
Width: 110
GlyphClass: 1
Flags: W
LayerCount: 2
Fore
SplineSet
30 0 m 1,0,-1
 30 120 l 1,1,-1
 50 120 l 1,2,-1
 50 70 l 1,3,-1
 100 70 l 1,4,-1
 100 50 l 1,5,-1
 50 50 l 1,6,-1
 50 0 l 1,7,-1
 30 0 l 1,0,-1
EndSplineSet
EndChar

StartChar: divR-Sp
Encoding: 8985 8985 175
AltUni2: 00e02c.ffffffff.0 00e02c.ffffffff.0
Width: 110
GlyphClass: 1
Flags: W
LayerCount: 2
Fore
SplineSet
0 20 m 1,0,-1
 0 90 l 1,1,-1
 20 90 l 1,2,-1
 20 40 l 1,3,-1
 100 40 l 1,4,-1
 100 20 l 1,5,-1
 0 20 l 1,0,-1
EndSplineSet
EndChar

StartChar: arrow-hook.up
Encoding: 57389 57389 176
Width: 110
GlyphClass: 1
Flags: W
LayerCount: 2
Fore
SplineSet
0 80 m 1,0,-1
 0 90 l 1,1,-1
 10 90 l 1,2,-1
 10 100 l 1,3,-1
 20 100 l 1,4,-1
 20 110 l 1,5,-1
 30 110 l 1,6,-1
 30 120 l 1,7,-1
 50 120 l 1,8,-1
 50 110 l 1,9,-1
 60 110 l 1,10,-1
 60 100 l 1,11,-1
 70 100 l 1,12,-1
 70 90 l 1,13,-1
 80 90 l 1,14,-1
 80 80 l 1,15,-1
 50 80 l 1,16,-1
 50 20 l 1,17,-1
 80 20 l 1,18,-1
 80 70 l 1,19,-1
 100 70 l 1,20,-1
 100 10 l 1,21,-1
 90 10 l 1,22,-1
 90 0 l 1,23,-1
 40 0 l 1,24,-1
 40 10 l 1,25,-1
 30 10 l 1,26,-1
 30 80 l 1,27,-1
 0 80 l 1,0,-1
EndSplineSet
EndChar

StartChar: Shaku.Length
Encoding: 57600 57600 177
Width: 110
GlyphClass: 1
Flags: W
LayerCount: 2
Fore
SplineSet
20 10 m 1,0,-1
 10 10 l 1,1,-1
 10 0 l 1,2,-1
 0 0 l 1,3,-1
 0 20 l 1,4,-1
 10 20 l 1,5,-1
 10 40 l 1,6,-1
 20 40 l 1,7,-1
 20 120 l 1,8,-1
 90 120 l 1,9,-1
 90 60 l 1,10,-1
 60 60 l 1,11,-1
 60 50 l 1,12,-1
 70 50 l 1,13,-1
 70 30 l 1,14,-1
 80 30 l 1,15,-1
 80 20 l 1,16,-1
 90 20 l 1,17,-1
 90 10 l 1,18,-1
 100 10 l 1,19,-1
 100 0 l 1,20,-1
 80 0 l 1,21,-1
 80 10 l 1,22,-1
 70 10 l 1,23,-1
 70 20 l 1,24,-1
 60 20 l 1,25,-1
 60 40 l 1,26,-1
 50 40 l 1,27,-1
 50 60 l 1,28,-1
 30 60 l 1,29,-1
 30 30 l 1,30,-1
 20 30 l 1,31,-1
 20 10 l 1,0,-1
30 110 m 1,32,-1
 30 70 l 1,33,-1
 80 70 l 1,34,-1
 80 110 l 1,35,-1
 30 110 l 1,32,-1
EndSplineSet
EndChar

StartChar: Sun
Encoding: 57601 57601 178
Width: 110
GlyphClass: 1
Flags: W
LayerCount: 2
Fore
SplineSet
70 0 m 1,0,-1
 40 0 l 1,1,-1
 40 10 l 1,2,-1
 60 10 l 1,3,-1
 60 80 l 1,4,-1
 0 80 l 1,5,-1
 0 90 l 1,6,-1
 60 90 l 1,7,-1
 60 120 l 1,8,-1
 70 120 l 1,9,-1
 70 90 l 1,10,-1
 100 90 l 1,11,-1
 100 80 l 1,12,-1
 70 80 l 1,13,-1
 70 0 l 1,0,-1
20 60 m 1,14,-1
 30 60 l 1,15,-1
 30 50 l 1,16,-1
 40 50 l 1,17,-1
 40 30 l 1,18,-1
 30 30 l 1,19,-1
 30 40 l 1,20,-1
 20 40 l 1,21,-1
 20 60 l 1,14,-1
EndSplineSet
EndChar

StartChar: Fun
Encoding: 57602 57602 179
Width: 110
GlyphClass: 1
Flags: W
LayerCount: 2
Fore
SplineSet
20 110 m 1,0,-1
 30 110 l 1,1,-1
 30 120 l 1,2,-1
 40 120 l 1,3,-1
 40 100 l 1,4,-1
 30 100 l 1,5,-1
 30 80 l 1,6,-1
 20 80 l 1,7,-1
 20 70 l 1,8,-1
 10 70 l 1,9,-1
 10 60 l 1,10,-1
 0 60 l 1,11,-1
 0 80 l 1,12,-1
 10 80 l 1,13,-1
 10 90 l 1,14,-1
 20 90 l 1,15,-1
 20 110 l 1,0,-1
70 100 m 1,16,-1
 60 100 l 1,17,-1
 60 120 l 1,18,-1
 70 120 l 1,19,-1
 70 110 l 1,20,-1
 80 110 l 1,21,-1
 80 90 l 1,22,-1
 90 90 l 1,23,-1
 90 80 l 1,24,-1
 100 80 l 1,25,-1
 100 60 l 1,26,-1
 90 60 l 1,27,-1
 90 70 l 1,28,-1
 80 70 l 1,29,-1
 80 80 l 1,30,-1
 70 80 l 1,31,-1
 70 100 l 1,16,-1
50 60 m 1,32,-1
 50 30 l 1,33,-1
 40 30 l 1,34,-1
 40 10 l 1,35,-1
 30 10 l 1,36,-1
 30 0 l 1,37,-1
 10 0 l 1,38,-1
 10 10 l 1,39,-1
 20 10 l 1,40,-1
 20 20 l 1,41,-1
 30 20 l 1,42,-1
 30 40 l 1,43,-1
 40 40 l 1,44,-1
 40 60 l 1,45,-1
 20 60 l 1,46,-1
 20 70 l 1,47,-1
 80 70 l 1,48,-1
 80 0 l 1,49,-1
 50 0 l 1,50,-1
 50 10 l 1,51,-1
 70 10 l 1,52,-1
 70 60 l 1,53,-1
 50 60 l 1,32,-1
EndSplineSet
EndChar

StartChar: Ken
Encoding: 57603 57603 180
Width: 110
GlyphClass: 1
Flags: W
LayerCount: 2
Fore
SplineSet
10 70 m 1,0,-1
 10 0 l 1,1,-1
 0 0 l 1,2,-1
 0 120 l 1,3,-1
 40 120 l 1,4,-1
 40 70 l 1,5,-1
 10 70 l 1,0,-1
30 60 m 1,6,-1
 70 60 l 1,7,-1
 70 10 l 1,8,-1
 90 10 l 1,9,-1
 90 70 l 1,10,-1
 60 70 l 1,11,-1
 60 120 l 1,12,-1
 100 120 l 1,13,-1
 100 0 l 1,14,-1
 70 0 l 1,15,-1
 70 10 l 1,16,-1
 30 10 l 1,17,-1
 30 60 l 1,6,-1
10 110 m 1,18,-1
 10 100 l 1,19,-1
 30 100 l 1,20,-1
 30 110 l 1,21,-1
 10 110 l 1,18,-1
70 110 m 1,22,-1
 70 100 l 1,23,-1
 90 100 l 1,24,-1
 90 110 l 1,25,-1
 70 110 l 1,22,-1
10 90 m 1,26,-1
 10 80 l 1,27,-1
 30 80 l 1,28,-1
 30 90 l 1,29,-1
 10 90 l 1,26,-1
70 90 m 1,30,-1
 70 80 l 1,31,-1
 90 80 l 1,32,-1
 90 90 l 1,33,-1
 70 90 l 1,30,-1
40 50 m 1,34,-1
 40 40 l 1,35,-1
 60 40 l 1,36,-1
 60 50 l 1,37,-1
 40 50 l 1,34,-1
40 30 m 1,38,-1
 40 20 l 1,39,-1
 60 20 l 1,40,-1
 60 30 l 1,41,-1
 40 30 l 1,38,-1
EndSplineSet
EndChar

StartChar: Chou
Encoding: 57604 57604 181
Width: 110
GlyphClass: 1
Flags: W
LayerCount: 2
Fore
SplineSet
0 30 m 1,0,-1
 0 120 l 1,1,-1
 50 120 l 1,2,-1
 50 100 l 1,3,-1
 100 100 l 1,4,-1
 100 90 l 1,5,-1
 80 90 l 1,6,-1
 80 0 l 1,7,-1
 50 0 l 1,8,-1
 50 10 l 1,9,-1
 70 10 l 1,10,-1
 70 90 l 1,11,-1
 50 90 l 1,12,-1
 50 30 l 1,13,-1
 0 30 l 1,0,-1
10 110 m 1,14,-1
 10 80 l 1,15,-1
 20 80 l 1,16,-1
 20 110 l 1,17,-1
 10 110 l 1,14,-1
30 110 m 1,18,-1
 30 80 l 1,19,-1
 40 80 l 1,20,-1
 40 110 l 1,21,-1
 30 110 l 1,18,-1
30 70 m 1,22,-1
 30 40 l 1,23,-1
 40 40 l 1,24,-1
 40 70 l 1,25,-1
 30 70 l 1,22,-1
10 70 m 1,26,-1
 10 40 l 1,27,-1
 20 40 l 1,28,-1
 20 70 l 1,29,-1
 10 70 l 1,26,-1
EndSplineSet
EndChar

StartChar: Ri
Encoding: 57605 57605 182
Width: 110
GlyphClass: 1
Flags: W
LayerCount: 2
Fore
SplineSet
50 50 m 1,0,-1
 20 50 l 1,1,-1
 20 120 l 1,2,-1
 90 120 l 1,3,-1
 90 50 l 1,4,-1
 60 50 l 1,5,-1
 60 40 l 1,6,-1
 90 40 l 1,7,-1
 90 30 l 1,8,-1
 60 30 l 1,9,-1
 60 10 l 1,10,-1
 100 10 l 1,11,-1
 100 0 l 1,12,-1
 10 0 l 1,13,-1
 10 10 l 1,14,-1
 50 10 l 1,15,-1
 50 30 l 1,16,-1
 20 30 l 1,17,-1
 20 40 l 1,18,-1
 50 40 l 1,19,-1
 50 50 l 1,0,-1
30 110 m 1,20,-1
 30 90 l 1,21,-1
 50 90 l 1,22,-1
 50 110 l 1,23,-1
 30 110 l 1,20,-1
60 110 m 1,24,-1
 60 90 l 1,25,-1
 80 90 l 1,26,-1
 80 110 l 1,27,-1
 60 110 l 1,24,-1
30 80 m 1,28,-1
 30 60 l 1,29,-1
 50 60 l 1,30,-1
 50 80 l 1,31,-1
 30 80 l 1,28,-1
60 80 m 1,32,-1
 60 60 l 1,33,-1
 80 60 l 1,34,-1
 80 80 l 1,35,-1
 60 80 l 1,32,-1
EndSplineSet
EndChar

StartChar: Kai
Encoding: 57606 57606 183
Width: 110
GlyphClass: 1
Flags: W
LayerCount: 2
Fore
SplineSet
40 80 m 1,0,-1
 30 80 l 1,1,-1
 30 70 l 1,2,-1
 20 70 l 1,3,-1
 20 90 l 1,4,-1
 10 90 l 1,5,-1
 10 100 l 1,6,-1
 0 100 l 1,7,-1
 0 120 l 1,8,-1
 10 120 l 1,9,-1
 10 110 l 1,10,-1
 20 110 l 1,11,-1
 20 90 l 1,12,-1
 30 90 l 1,13,-1
 30 120 l 1,14,-1
 40 120 l 1,15,-1
 40 110 l 1,16,-1
 100 110 l 1,17,-1
 100 100 l 1,18,-1
 40 100 l 1,19,-1
 40 90 l 1,20,-1
 90 90 l 1,21,-1
 90 60 l 1,22,-1
 100 60 l 1,23,-1
 100 50 l 1,24,-1
 90 50 l 1,25,-1
 90 30 l 1,26,-1
 100 30 l 1,27,-1
 100 20 l 1,28,-1
 90 20 l 1,29,-1
 90 0 l 1,30,-1
 60 0 l 1,31,-1
 60 10 l 1,32,-1
 80 10 l 1,33,-1
 80 20 l 1,34,-1
 50 20 l 1,35,-1
 50 10 l 1,36,-1
 40 10 l 1,37,-1
 40 50 l 1,38,-1
 30 50 l 1,39,-1
 30 60 l 1,40,-1
 40 60 l 1,41,-1
 40 80 l 1,0,-1
10 70 m 1,42,-1
 20 70 l 1,43,-1
 20 50 l 1,44,-1
 10 50 l 1,45,-1
 10 60 l 1,46,-1
 0 60 l 1,47,-1
 0 80 l 1,48,-1
 10 80 l 1,49,-1
 10 70 l 1,42,-1
50 80 m 1,50,-1
 50 60 l 1,51,-1
 60 60 l 1,52,-1
 60 80 l 1,53,-1
 50 80 l 1,50,-1
70 80 m 1,54,-1
 70 60 l 1,55,-1
 80 60 l 1,56,-1
 80 80 l 1,57,-1
 70 80 l 1,54,-1
50 50 m 1,58,-1
 50 30 l 1,59,-1
 60 30 l 1,60,-1
 60 50 l 1,61,-1
 50 50 l 1,58,-1
70 50 m 1,62,-1
 70 30 l 1,63,-1
 80 30 l 1,64,-1
 80 50 l 1,65,-1
 70 50 l 1,62,-1
20 10 m 1,66,-1
 10 10 l 1,67,-1
 10 0 l 1,68,-1
 0 0 l 1,69,-1
 0 20 l 1,70,-1
 10 20 l 1,71,-1
 10 40 l 1,72,-1
 20 40 l 1,73,-1
 20 50 l 1,74,-1
 30 50 l 1,75,-1
 30 30 l 1,76,-1
 20 30 l 1,77,-1
 20 10 l 1,66,-1
EndSplineSet
EndChar

StartChar: Jou
Encoding: 57607 57607 184
Width: 110
GlyphClass: 1
Flags: W
LayerCount: 2
Fore
SplineSet
100 90 m 1,0,-1
 70 90 l 1,1,-1
 70 60 l 1,2,-1
 60 60 l 1,3,-1
 60 40 l 1,4,-1
 50 40 l 1,5,-1
 50 30 l 1,6,-1
 60 30 l 1,7,-1
 60 20 l 1,8,-1
 80 20 l 1,9,-1
 80 10 l 1,10,-1
 100 10 l 1,11,-1
 100 0 l 1,12,-1
 70 0 l 1,13,-1
 70 10 l 1,14,-1
 50 10 l 1,15,-1
 50 20 l 1,16,-1
 40 20 l 1,17,-1
 40 10 l 1,18,-1
 20 10 l 1,19,-1
 20 0 l 1,20,-1
 0 0 l 1,21,-1
 0 10 l 1,22,-1
 10 10 l 1,23,-1
 10 20 l 1,24,-1
 30 20 l 1,25,-1
 30 30 l 1,26,-1
 40 30 l 1,27,-1
 40 40 l 1,28,-1
 30 40 l 1,29,-1
 30 60 l 1,30,-1
 20 60 l 1,31,-1
 20 80 l 1,32,-1
 30 80 l 1,33,-1
 30 70 l 1,34,-1
 40 70 l 1,35,-1
 40 50 l 1,36,-1
 50 50 l 1,37,-1
 50 70 l 1,38,-1
 60 70 l 1,39,-1
 60 90 l 1,40,-1
 0 90 l 1,41,-1
 0 100 l 1,42,-1
 60 100 l 1,43,-1
 60 120 l 1,44,-1
 70 120 l 1,45,-1
 70 100 l 1,46,-1
 100 100 l 1,47,-1
 100 90 l 1,0,-1
EndSplineSet
EndChar

StartChar: Mou
Encoding: 57608 57608 185
Width: 110
GlyphClass: 1
Flags: W
LayerCount: 2
Fore
SplineSet
40 120 m 1,0,-1
 90 120 l 1,1,-1
 90 110 l 1,2,-1
 50 110 l 1,3,-1
 50 80 l 1,4,-1
 60 80 l 1,5,-1
 60 90 l 1,6,-1
 90 90 l 1,7,-1
 90 80 l 1,8,-1
 70 80 l 1,9,-1
 70 70 l 1,10,-1
 50 70 l 1,11,-1
 50 50 l 1,12,-1
 60 50 l 1,13,-1
 60 60 l 1,14,-1
 100 60 l 1,15,-1
 100 50 l 1,16,-1
 70 50 l 1,17,-1
 70 40 l 1,18,-1
 50 40 l 1,19,-1
 50 10 l 1,20,-1
 90 10 l 1,21,-1
 90 20 l 1,22,-1
 100 20 l 1,23,-1
 100 0 l 1,24,-1
 40 0 l 1,25,-1
 40 40 l 1,26,-1
 30 40 l 1,27,-1
 30 30 l 1,28,-1
 0 30 l 1,29,-1
 0 40 l 1,30,-1
 20 40 l 1,31,-1
 20 50 l 1,32,-1
 40 50 l 1,33,-1
 40 70 l 1,34,-1
 30 70 l 1,35,-1
 30 60 l 1,36,-1
 0 60 l 1,37,-1
 0 70 l 1,38,-1
 20 70 l 1,39,-1
 20 80 l 1,40,-1
 40 80 l 1,41,-1
 40 100 l 1,42,-1
 10 100 l 1,43,-1
 10 110 l 1,44,-1
 40 110 l 1,45,-1
 40 120 l 1,0,-1
EndSplineSet
EndChar

StartChar: Rin
Encoding: 57609 57609 186
Width: 110
GlyphClass: 1
Flags: W
LayerCount: 2
Fore
SplineSet
20 30 m 1,0,-1
 10 30 l 1,1,-1
 10 0 l 1,2,-1
 0 0 l 1,3,-1
 0 40 l 1,4,-1
 10 40 l 1,5,-1
 10 120 l 1,6,-1
 90 120 l 1,7,-1
 90 110 l 1,8,-1
 20 110 l 1,9,-1
 20 30 l 1,0,-1
60 10 m 1,10,-1
 90 10 l 1,11,-1
 90 0 l 1,12,-1
 20 0 l 1,13,-1
 20 10 l 1,14,-1
 50 10 l 1,15,-1
 50 30 l 1,16,-1
 30 30 l 1,17,-1
 30 40 l 1,18,-1
 50 40 l 1,19,-1
 50 50 l 1,20,-1
 30 50 l 1,21,-1
 30 100 l 1,22,-1
 80 100 l 1,23,-1
 80 50 l 1,24,-1
 60 50 l 1,25,-1
 60 40 l 1,26,-1
 80 40 l 1,27,-1
 80 30 l 1,28,-1
 60 30 l 1,29,-1
 60 10 l 1,10,-1
40 90 m 1,30,-1
 40 80 l 1,31,-1
 50 80 l 1,32,-1
 50 90 l 1,33,-1
 40 90 l 1,30,-1
60 90 m 1,34,-1
 60 80 l 1,35,-1
 70 80 l 1,36,-1
 70 90 l 1,37,-1
 60 90 l 1,34,-1
40 70 m 1,38,-1
 40 60 l 1,39,-1
 50 60 l 1,40,-1
 50 70 l 1,41,-1
 40 70 l 1,38,-1
60 70 m 1,42,-1
 60 60 l 1,43,-1
 70 60 l 1,44,-1
 70 70 l 1,45,-1
 60 70 l 1,42,-1
EndSplineSet
EndChar

StartChar: Bu
Encoding: 57610 57610 187
Width: 110
GlyphClass: 1
Flags: W
LayerCount: 2
Fore
SplineSet
70 40 m 1,0,-1
 80 40 l 1,1,-1
 80 20 l 1,2,-1
 70 20 l 1,3,-1
 70 10 l 1,4,-1
 50 10 l 1,5,-1
 50 0 l 1,6,-1
 20 0 l 1,7,-1
 20 10 l 1,8,-1
 40 10 l 1,9,-1
 40 20 l 1,10,-1
 60 20 l 1,11,-1
 60 30 l 1,12,-1
 40 30 l 1,13,-1
 40 40 l 1,14,-1
 50 40 l 1,15,-1
 50 70 l 1,16,-1
 10 70 l 1,17,-1
 10 80 l 1,18,-1
 20 80 l 1,19,-1
 20 110 l 1,20,-1
 30 110 l 1,21,-1
 30 80 l 1,22,-1
 50 80 l 1,23,-1
 50 120 l 1,24,-1
 60 120 l 1,25,-1
 60 100 l 1,26,-1
 90 100 l 1,27,-1
 90 90 l 1,28,-1
 60 90 l 1,29,-1
 60 80 l 1,30,-1
 100 80 l 1,31,-1
 100 70 l 1,32,-1
 60 70 l 1,33,-1
 60 30 l 1,34,-1
 70 30 l 1,35,-1
 70 40 l 1,0,-1
20 60 m 1,36,-1
 30 60 l 1,37,-1
 30 40 l 1,38,-1
 20 40 l 1,39,-1
 20 30 l 1,40,-1
 10 30 l 1,41,-1
 10 50 l 1,42,-1
 20 50 l 1,43,-1
 20 60 l 1,36,-1
80 60 m 1,44,-1
 90 60 l 1,45,-1
 90 50 l 1,46,-1
 100 50 l 1,47,-1
 100 30 l 1,48,-1
 90 30 l 1,49,-1
 90 40 l 1,50,-1
 80 40 l 1,51,-1
 80 60 l 1,44,-1
EndSplineSet
EndChar

StartChar: Shaku.Volume
Encoding: 57611 57611 188
Width: 110
GlyphClass: 1
Flags: W
LayerCount: 2
Fore
SplineSet
20 70 m 1,0,-1
 10 70 l 1,1,-1
 10 60 l 1,2,-1
 0 60 l 1,3,-1
 0 80 l 1,4,-1
 10 80 l 1,5,-1
 10 100 l 1,6,-1
 20 100 l 1,7,-1
 20 120 l 1,8,-1
 30 120 l 1,9,-1
 30 100 l 1,10,-1
 100 100 l 1,11,-1
 100 10 l 1,12,-1
 90 10 l 1,13,-1
 90 0 l 1,14,-1
 50 0 l 1,15,-1
 50 10 l 1,16,-1
 80 10 l 1,17,-1
 80 20 l 1,18,-1
 90 20 l 1,19,-1
 90 90 l 1,20,-1
 20 90 l 1,21,-1
 20 70 l 1,0,-1
30 60 m 1,22,-1
 40 60 l 1,23,-1
 40 50 l 1,24,-1
 50 50 l 1,25,-1
 50 30 l 1,26,-1
 40 30 l 1,27,-1
 40 40 l 1,28,-1
 30 40 l 1,29,-1
 30 50 l 1,30,-1
 20 50 l 1,31,-1
 20 70 l 1,32,-1
 30 70 l 1,33,-1
 30 60 l 1,22,-1
EndSplineSet
EndChar

StartChar: Tsubo
Encoding: 57612 57612 189
Width: 110
GlyphClass: 1
Flags: W
LayerCount: 2
Fore
SplineSet
30 50 m 1,0,-1
 30 60 l 1,1,-1
 60 60 l 1,2,-1
 60 110 l 1,3,-1
 30 110 l 1,4,-1
 30 120 l 1,5,-1
 100 120 l 1,6,-1
 100 110 l 1,7,-1
 70 110 l 1,8,-1
 70 60 l 1,9,-1
 100 60 l 1,10,-1
 100 50 l 1,11,-1
 70 50 l 1,12,-1
 70 0 l 1,13,-1
 60 0 l 1,14,-1
 60 50 l 1,15,-1
 30 50 l 1,0,-1
30 40 m 1,16,-1
 30 30 l 1,17,-1
 20 30 l 1,18,-1
 20 20 l 1,19,-1
 0 20 l 1,20,-1
 0 30 l 1,21,-1
 10 30 l 1,22,-1
 10 90 l 1,23,-1
 0 90 l 1,24,-1
 0 100 l 1,25,-1
 10 100 l 1,26,-1
 10 120 l 1,27,-1
 20 120 l 1,28,-1
 20 100 l 1,29,-1
 40 100 l 1,30,-1
 40 90 l 1,31,-1
 50 90 l 1,32,-1
 50 70 l 1,33,-1
 40 70 l 1,34,-1
 40 80 l 1,35,-1
 30 80 l 1,36,-1
 30 90 l 1,37,-1
 20 90 l 1,38,-1
 20 40 l 1,39,-1
 30 40 l 1,16,-1
90 70 m 1,40,-1
 80 70 l 1,41,-1
 80 90 l 1,42,-1
 90 90 l 1,43,-1
 90 100 l 1,44,-1
 100 100 l 1,45,-1
 100 80 l 1,46,-1
 90 80 l 1,47,-1
 90 70 l 1,40,-1
EndSplineSet
EndChar

StartChar: Se
Encoding: 57613 57613 190
Width: 110
GlyphClass: 1
Flags: W
LayerCount: 2
Fore
SplineSet
0 10 m 1,0,-1
 0 80 l 1,1,-1
 50 80 l 1,2,-1
 50 90 l 1,3,-1
 0 90 l 1,4,-1
 0 100 l 1,5,-1
 20 100 l 1,6,-1
 20 120 l 1,7,-1
 30 120 l 1,8,-1
 30 100 l 1,9,-1
 50 100 l 1,10,-1
 50 90 l 1,11,-1
 60 90 l 1,12,-1
 60 100 l 1,13,-1
 70 100 l 1,14,-1
 70 120 l 1,15,-1
 80 120 l 1,16,-1
 80 100 l 1,17,-1
 100 100 l 1,18,-1
 100 70 l 1,19,-1
 90 70 l 1,20,-1
 90 50 l 1,21,-1
 80 50 l 1,22,-1
 80 40 l 1,23,-1
 90 40 l 1,24,-1
 90 20 l 1,25,-1
 100 20 l 1,26,-1
 100 0 l 1,27,-1
 90 0 l 1,28,-1
 90 10 l 1,29,-1
 80 10 l 1,30,-1
 80 30 l 1,31,-1
 70 30 l 1,32,-1
 70 10 l 1,33,-1
 60 10 l 1,34,-1
 60 0 l 1,35,-1
 50 0 l 1,36,-1
 50 10 l 1,37,-1
 0 10 l 1,0,-1
70 80 m 1,38,-1
 60 80 l 1,39,-1
 60 60 l 1,40,-1
 50 60 l 1,41,-1
 50 20 l 1,42,-1
 60 20 l 1,43,-1
 60 40 l 1,44,-1
 70 40 l 1,45,-1
 70 60 l 1,46,-1
 80 60 l 1,47,-1
 80 80 l 1,48,-1
 90 80 l 1,49,-1
 90 90 l 1,50,-1
 70 90 l 1,51,-1
 70 80 l 1,38,-1
10 70 m 1,52,-1
 10 50 l 1,53,-1
 20 50 l 1,54,-1
 20 70 l 1,55,-1
 10 70 l 1,52,-1
30 70 m 1,56,-1
 30 50 l 1,57,-1
 40 50 l 1,58,-1
 40 70 l 1,59,-1
 30 70 l 1,56,-1
30 40 m 1,60,-1
 30 20 l 1,61,-1
 40 20 l 1,62,-1
 40 40 l 1,63,-1
 30 40 l 1,60,-1
10 40 m 1,64,-1
 10 20 l 1,65,-1
 20 20 l 1,66,-1
 20 40 l 1,67,-1
 10 40 l 1,64,-1
EndSplineSet
EndChar

StartChar: Tan
Encoding: 57614 57614 191
Width: 110
GlyphClass: 1
Flags: W
LayerCount: 2
Fore
SplineSet
30 80 m 1,0,-1
 20 80 l 1,1,-1
 20 20 l 1,2,-1
 10 20 l 1,3,-1
 10 0 l 1,4,-1
 0 0 l 1,5,-1
 0 30 l 1,6,-1
 10 30 l 1,7,-1
 10 120 l 1,8,-1
 100 120 l 1,9,-1
 100 110 l 1,10,-1
 20 110 l 1,11,-1
 20 90 l 1,12,-1
 90 90 l 1,13,-1
 90 60 l 1,14,-1
 80 60 l 1,15,-1
 80 40 l 1,16,-1
 70 40 l 1,17,-1
 70 30 l 1,18,-1
 80 30 l 1,19,-1
 80 20 l 1,20,-1
 90 20 l 1,21,-1
 90 10 l 1,22,-1
 100 10 l 1,23,-1
 100 0 l 1,24,-1
 80 0 l 1,25,-1
 80 10 l 1,26,-1
 70 10 l 1,27,-1
 70 20 l 1,28,-1
 50 20 l 1,29,-1
 50 10 l 1,30,-1
 40 10 l 1,31,-1
 40 0 l 1,32,-1
 20 0 l 1,33,-1
 20 10 l 1,34,-1
 30 10 l 1,35,-1
 30 20 l 1,36,-1
 40 20 l 1,37,-1
 40 30 l 1,38,-1
 50 30 l 1,39,-1
 50 40 l 1,40,-1
 40 40 l 1,41,-1
 40 60 l 1,42,-1
 30 60 l 1,43,-1
 30 80 l 1,0,-1
70 70 m 1,44,-1
 80 70 l 1,45,-1
 80 80 l 1,46,-1
 40 80 l 1,47,-1
 40 70 l 1,48,-1
 50 70 l 1,49,-1
 50 50 l 1,50,-1
 70 50 l 1,51,-1
 70 70 l 1,44,-1
EndSplineSet
EndChar

StartChar: Shou
Encoding: 57615 57615 192
Width: 110
GlyphClass: 1
Flags: W
LayerCount: 2
Fore
SplineSet
40 120 m 1,0,-1
 60 120 l 1,1,-1
 60 110 l 1,2,-1
 50 110 l 1,3,-1
 50 100 l 1,4,-1
 40 100 l 1,5,-1
 40 70 l 1,6,-1
 70 70 l 1,7,-1
 70 120 l 1,8,-1
 80 120 l 1,9,-1
 80 70 l 1,10,-1
 100 70 l 1,11,-1
 100 60 l 1,12,-1
 80 60 l 1,13,-1
 80 0 l 1,14,-1
 70 0 l 1,15,-1
 70 60 l 1,16,-1
 40 60 l 1,17,-1
 40 40 l 1,18,-1
 30 40 l 1,19,-1
 30 20 l 1,20,-1
 20 20 l 1,21,-1
 20 0 l 1,22,-1
 0 0 l 1,23,-1
 0 10 l 1,24,-1
 10 10 l 1,25,-1
 10 30 l 1,26,-1
 20 30 l 1,27,-1
 20 50 l 1,28,-1
 30 50 l 1,29,-1
 30 60 l 1,30,-1
 0 60 l 1,31,-1
 0 70 l 1,32,-1
 30 70 l 1,33,-1
 30 90 l 1,34,-1
 0 90 l 1,35,-1
 0 100 l 1,36,-1
 20 100 l 1,37,-1
 20 110 l 1,38,-1
 40 110 l 1,39,-1
 40 120 l 1,0,-1
EndSplineSet
EndChar

StartChar: Gou
Encoding: 57616 57616 193
Width: 110
GlyphClass: 1
Flags: W
LayerCount: 2
Fore
SplineSet
30 80 m 1,0,-1
 20 80 l 1,1,-1
 20 70 l 1,2,-1
 0 70 l 1,3,-1
 0 80 l 1,4,-1
 10 80 l 1,5,-1
 10 90 l 1,6,-1
 20 90 l 1,7,-1
 20 100 l 1,8,-1
 30 100 l 1,9,-1
 30 110 l 1,10,-1
 40 110 l 1,11,-1
 40 120 l 1,12,-1
 60 120 l 1,13,-1
 60 110 l 1,14,-1
 70 110 l 1,15,-1
 70 100 l 1,16,-1
 80 100 l 1,17,-1
 80 90 l 1,18,-1
 90 90 l 1,19,-1
 90 80 l 1,20,-1
 100 80 l 1,21,-1
 100 70 l 1,22,-1
 80 70 l 1,23,-1
 80 80 l 1,24,-1
 70 80 l 1,25,-1
 70 70 l 1,26,-1
 30 70 l 1,27,-1
 30 80 l 1,0,-1
30 90 m 1,28,-1
 30 80 l 1,29,-1
 70 80 l 1,30,-1
 70 90 l 1,31,-1
 60 90 l 1,32,-1
 60 100 l 1,33,-1
 40 100 l 1,34,-1
 40 90 l 1,35,-1
 30 90 l 1,28,-1
20 50 m 1,36,-1
 80 50 l 1,37,-1
 80 0 l 1,38,-1
 70 0 l 1,39,-1
 70 10 l 1,40,-1
 30 10 l 1,41,-1
 30 0 l 1,42,-1
 20 0 l 1,43,-1
 20 50 l 1,36,-1
30 40 m 1,44,-1
 30 20 l 1,45,-1
 70 20 l 1,46,-1
 70 40 l 1,47,-1
 30 40 l 1,44,-1
EndSplineSet
EndChar

StartChar: To
Encoding: 57617 57617 194
Width: 110
GlyphClass: 1
Flags: W
LayerCount: 2
Fore
SplineSet
60 50 m 1,0,-1
 60 120 l 1,1,-1
 70 120 l 1,2,-1
 70 60 l 1,3,-1
 100 60 l 1,4,-1
 100 50 l 1,5,-1
 70 50 l 1,6,-1
 70 0 l 1,7,-1
 60 0 l 1,8,-1
 60 40 l 1,9,-1
 40 40 l 1,10,-1
 40 30 l 1,11,-1
 0 30 l 1,12,-1
 0 40 l 1,13,-1
 30 40 l 1,14,-1
 30 50 l 1,15,-1
 60 50 l 1,0,-1
20 110 m 1,16,-1
 40 110 l 1,17,-1
 40 100 l 1,18,-1
 50 100 l 1,19,-1
 50 90 l 1,20,-1
 30 90 l 1,21,-1
 30 100 l 1,22,-1
 20 100 l 1,23,-1
 20 110 l 1,16,-1
10 80 m 1,24,-1
 30 80 l 1,25,-1
 30 70 l 1,26,-1
 40 70 l 1,27,-1
 40 60 l 1,28,-1
 20 60 l 1,29,-1
 20 70 l 1,30,-1
 10 70 l 1,31,-1
 10 80 l 1,24,-1
EndSplineSet
EndChar

StartChar: Koku
Encoding: 57618 57618 195
Width: 110
GlyphClass: 1
Flags: W
LayerCount: 2
Fore
SplineSet
80 10 m 1,0,-1
 30 10 l 1,1,-1
 30 0 l 1,2,-1
 20 0 l 1,3,-1
 20 50 l 1,4,-1
 10 50 l 1,5,-1
 10 40 l 1,6,-1
 0 40 l 1,7,-1
 0 60 l 1,8,-1
 10 60 l 1,9,-1
 10 70 l 1,10,-1
 20 70 l 1,11,-1
 20 90 l 1,12,-1
 30 90 l 1,13,-1
 30 100 l 1,14,-1
 0 100 l 1,15,-1
 0 110 l 1,16,-1
 100 110 l 1,17,-1
 100 100 l 1,18,-1
 40 100 l 1,19,-1
 40 80 l 1,20,-1
 30 80 l 1,21,-1
 30 70 l 1,22,-1
 90 70 l 1,23,-1
 90 0 l 1,24,-1
 80 0 l 1,25,-1
 80 10 l 1,0,-1
30 60 m 1,26,-1
 30 20 l 1,27,-1
 80 20 l 1,28,-1
 80 60 l 1,29,-1
 30 60 l 1,26,-1
EndSplineSet
EndChar

StartChar: Kan
Encoding: 57619 57619 196
Width: 110
GlyphClass: 1
Flags: W
LayerCount: 2
Fore
SplineSet
80 10 m 1,0,-1
 30 10 l 1,1,-1
 30 0 l 1,2,-1
 10 0 l 1,3,-1
 10 10 l 1,4,-1
 30 10 l 1,5,-1
 30 20 l 1,6,-1
 20 20 l 1,7,-1
 20 70 l 1,8,-1
 30 70 l 1,9,-1
 30 80 l 1,10,-1
 20 80 l 1,11,-1
 20 90 l 1,12,-1
 10 90 l 1,13,-1
 10 100 l 1,14,-1
 20 100 l 1,15,-1
 20 120 l 1,16,-1
 90 120 l 1,17,-1
 90 100 l 1,18,-1
 100 100 l 1,19,-1
 100 90 l 1,20,-1
 90 90 l 1,21,-1
 90 80 l 1,22,-1
 80 80 l 1,23,-1
 80 90 l 1,24,-1
 60 90 l 1,25,-1
 60 80 l 1,26,-1
 80 80 l 1,27,-1
 80 70 l 1,28,-1
 90 70 l 1,29,-1
 90 20 l 1,30,-1
 80 20 l 1,31,-1
 80 30 l 1,32,-1
 30 30 l 1,33,-1
 30 20 l 1,34,-1
 80 20 l 1,35,-1
 80 10 l 1,36,-1
 100 10 l 1,37,-1
 100 0 l 1,38,-1
 80 0 l 1,39,-1
 80 10 l 1,0,-1
30 110 m 1,40,-1
 30 100 l 1,41,-1
 50 100 l 1,42,-1
 50 110 l 1,43,-1
 30 110 l 1,40,-1
60 110 m 1,44,-1
 60 100 l 1,45,-1
 80 100 l 1,46,-1
 80 110 l 1,47,-1
 60 110 l 1,44,-1
30 90 m 1,48,-1
 30 80 l 1,49,-1
 50 80 l 1,50,-1
 50 90 l 1,51,-1
 30 90 l 1,48,-1
30 70 m 1,52,-1
 30 60 l 1,53,-1
 80 60 l 1,54,-1
 80 70 l 1,55,-1
 30 70 l 1,52,-1
30 50 m 1,56,-1
 30 40 l 1,57,-1
 80 40 l 1,58,-1
 80 50 l 1,59,-1
 30 50 l 1,56,-1
EndSplineSet
EndChar

StartChar: Monme
Encoding: 57620 57620 197
Width: 110
GlyphClass: 1
Flags: W
LayerCount: 2
Fore
SplineSet
30 100 m 1,0,-1
 30 120 l 1,1,-1
 40 120 l 1,2,-1
 40 100 l 1,3,-1
 90 100 l 1,4,-1
 90 20 l 1,5,-1
 100 20 l 1,6,-1
 100 10 l 1,7,-1
 80 10 l 1,8,-1
 80 0 l 1,9,-1
 50 0 l 1,10,-1
 50 10 l 1,11,-1
 70 10 l 1,12,-1
 70 20 l 1,13,-1
 60 20 l 1,14,-1
 60 30 l 1,15,-1
 50 30 l 1,16,-1
 50 40 l 1,17,-1
 40 40 l 1,18,-1
 40 20 l 1,19,-1
 30 20 l 1,20,-1
 30 10 l 1,21,-1
 20 10 l 1,22,-1
 20 0 l 1,23,-1
 0 0 l 1,24,-1
 0 10 l 1,25,-1
 10 10 l 1,26,-1
 10 20 l 1,27,-1
 20 20 l 1,28,-1
 20 30 l 1,29,-1
 30 30 l 1,30,-1
 30 50 l 1,31,-1
 40 50 l 1,32,-1
 40 60 l 1,33,-1
 30 60 l 1,34,-1
 30 70 l 1,35,-1
 20 70 l 1,36,-1
 20 60 l 1,37,-1
 0 60 l 1,38,-1
 0 70 l 1,39,-1
 10 70 l 1,40,-1
 10 80 l 1,41,-1
 20 80 l 1,42,-1
 20 100 l 1,43,-1
 30 100 l 1,0,-1
50 90 m 1,44,-1
 30 90 l 1,45,-1
 30 80 l 1,46,-1
 40 80 l 1,47,-1
 40 70 l 1,48,-1
 50 70 l 1,49,-1
 50 90 l 1,44,-1
50 50 m 1,50,-1
 60 50 l 1,51,-1
 60 40 l 1,52,-1
 70 40 l 1,53,-1
 70 30 l 1,54,-1
 80 30 l 1,55,-1
 80 90 l 1,56,-1
 60 90 l 1,57,-1
 60 60 l 1,58,-1
 50 60 l 1,59,-1
 50 50 l 1,50,-1
EndSplineSet
EndChar

StartChar: Kin
Encoding: 57621 57621 198
Width: 110
GlyphClass: 1
Flags: W
LayerCount: 2
Fore
SplineSet
60 120 m 1,0,-1
 90 120 l 1,1,-1
 90 110 l 1,2,-1
 70 110 l 1,3,-1
 70 100 l 1,4,-1
 30 100 l 1,5,-1
 30 70 l 1,6,-1
 100 70 l 1,7,-1
 100 60 l 1,8,-1
 70 60 l 1,9,-1
 70 0 l 1,10,-1
 60 0 l 1,11,-1
 60 60 l 1,12,-1
 30 60 l 1,13,-1
 30 30 l 1,14,-1
 20 30 l 1,15,-1
 20 10 l 1,16,-1
 10 10 l 1,17,-1
 10 0 l 1,18,-1
 0 0 l 1,19,-1
 0 20 l 1,20,-1
 10 20 l 1,21,-1
 10 40 l 1,22,-1
 20 40 l 1,23,-1
 20 110 l 1,24,-1
 60 110 l 1,25,-1
 60 120 l 1,0,-1
EndSplineSet
EndChar

StartChar: Gbold
Encoding: 119814 119814 199
Width: 110
GlyphClass: 1
Flags: W
LayerCount: 2
Fore
SplineSet
0 30 m 1,0,-1
 0 90 l 1,1,-1
 10 90 l 1,2,-1
 10 110 l 1,3,-1
 30 110 l 1,4,-1
 30 120 l 1,5,-1
 90 120 l 1,6,-1
 90 110 l 1,7,-1
 100 110 l 1,8,-1
 100 90 l 1,9,-1
 80 90 l 1,10,-1
 80 100 l 1,11,-1
 50 100 l 1,12,-1
 50 90 l 1,13,-1
 40 90 l 1,14,-1
 40 30 l 1,15,-1
 50 30 l 1,16,-1
 50 20 l 1,17,-1
 80 20 l 1,18,-1
 80 50 l 1,19,-1
 60 50 l 1,20,-1
 60 70 l 1,21,-1
 100 70 l 1,22,-1
 100 10 l 1,23,-1
 90 10 l 1,24,-1
 90 0 l 1,25,-1
 30 0 l 1,26,-1
 30 10 l 1,27,-1
 10 10 l 1,28,-1
 10 30 l 1,29,-1
 0 30 l 1,0,-1
EndSplineSet
EndChar

StartChar: Mbold
Encoding: 119820 119820 200
Width: 110
GlyphClass: 1
Flags: W
LayerCount: 2
Fore
SplineSet
0 0 m 1,0,-1
 0 120 l 1,1,-1
 30 120 l 1,2,-1
 30 100 l 1,3,-1
 40 100 l 1,4,-1
 40 60 l 1,5,-1
 60 60 l 1,6,-1
 60 100 l 1,7,-1
 70 100 l 1,8,-1
 70 120 l 1,9,-1
 100 120 l 1,10,-1
 100 0 l 1,11,-1
 70 0 l 1,12,-1
 70 40 l 1,13,-1
 60 40 l 1,14,-1
 60 0 l 1,15,-1
 40 0 l 1,16,-1
 40 40 l 1,17,-1
 30 40 l 1,18,-1
 30 0 l 1,19,-1
 0 0 l 1,0,-1
EndSplineSet
EndChar

StartChar: Pbold
Encoding: 119823 119823 201
Width: 110
GlyphClass: 1
Flags: W
LayerCount: 2
Fore
SplineSet
10 0 m 1,0,-1
 10 120 l 1,1,-1
 90 120 l 1,2,-1
 90 110 l 1,3,-1
 100 110 l 1,4,-1
 100 60 l 1,5,-1
 90 60 l 1,6,-1
 90 50 l 1,7,-1
 40 50 l 1,8,-1
 40 0 l 1,9,-1
 10 0 l 1,0,-1
40 100 m 1,10,-1
 40 70 l 1,11,-1
 70 70 l 1,12,-1
 70 100 l 1,13,-1
 40 100 l 1,10,-1
EndSplineSet
EndChar

StartChar: Tbold
Encoding: 119827 119827 202
Width: 110
GlyphClass: 1
Flags: W
LayerCount: 2
Fore
SplineSet
10 100 m 1,0,-1
 10 120 l 1,1,-1
 100 120 l 1,2,-1
 100 100 l 1,3,-1
 70 100 l 1,4,-1
 70 0 l 1,5,-1
 40 0 l 1,6,-1
 40 100 l 1,7,-1
 10 100 l 1,0,-1
EndSplineSet
EndChar

StartChar: fbold
Encoding: 119839 119839 203
Width: 110
GlyphClass: 1
Flags: W
LayerCount: 2
Fore
SplineSet
10 60 m 1,0,-1
 10 80 l 1,1,-1
 30 80 l 1,2,-1
 30 110 l 1,3,-1
 40 110 l 1,4,-1
 40 120 l 1,5,-1
 90 120 l 1,6,-1
 90 110 l 1,7,-1
 100 110 l 1,8,-1
 100 90 l 1,9,-1
 80 90 l 1,10,-1
 80 100 l 1,11,-1
 60 100 l 1,12,-1
 60 80 l 1,13,-1
 90 80 l 1,14,-1
 90 60 l 1,15,-1
 60 60 l 1,16,-1
 60 0 l 1,17,-1
 30 0 l 1,18,-1
 30 60 l 1,19,-1
 10 60 l 1,0,-1
EndSplineSet
EndChar

StartChar: kbold
Encoding: 119844 119844 204
Width: 110
GlyphClass: 1
Flags: W
LayerCount: 2
Fore
SplineSet
10 0 m 1,0,-1
 10 120 l 1,1,-1
 40 120 l 1,2,-1
 40 60 l 1,3,-1
 50 60 l 1,4,-1
 50 70 l 1,5,-1
 60 70 l 1,6,-1
 60 80 l 1,7,-1
 70 80 l 1,8,-1
 70 90 l 1,9,-1
 100 90 l 1,10,-1
 100 70 l 1,11,-1
 90 70 l 1,12,-1
 90 60 l 1,13,-1
 80 60 l 1,14,-1
 80 50 l 1,15,-1
 70 50 l 1,16,-1
 70 40 l 1,17,-1
 80 40 l 1,18,-1
 80 30 l 1,19,-1
 90 30 l 1,20,-1
 90 20 l 1,21,-1
 100 20 l 1,22,-1
 100 0 l 1,23,-1
 70 0 l 1,24,-1
 70 10 l 1,25,-1
 60 10 l 1,26,-1
 60 20 l 1,27,-1
 50 20 l 1,28,-1
 50 30 l 1,29,-1
 40 30 l 1,30,-1
 40 0 l 1,31,-1
 10 0 l 1,0,-1
EndSplineSet
EndChar

StartChar: mbold
Encoding: 119846 119846 205
Width: 110
GlyphClass: 1
Flags: W
LayerCount: 2
Fore
SplineSet
100 80 m 1,0,-1
 100 0 l 1,1,-1
 70 0 l 1,2,-1
 70 70 l 1,3,-1
 60 70 l 1,4,-1
 60 0 l 1,5,-1
 40 0 l 1,6,-1
 40 70 l 1,7,-1
 30 70 l 1,8,-1
 30 0 l 1,9,-1
 0 0 l 1,10,-1
 0 90 l 1,11,-1
 20 90 l 1,12,-1
 20 80 l 1,13,-1
 30 80 l 1,14,-1
 30 90 l 1,15,-1
 50 90 l 1,16,-1
 50 80 l 1,17,-1
 60 80 l 1,18,-1
 60 90 l 1,19,-1
 90 90 l 1,20,-1
 90 80 l 1,21,-1
 100 80 l 1,0,-1
EndSplineSet
EndChar

StartChar: nbold
Encoding: 119847 119847 206
Width: 110
GlyphClass: 1
Flags: W
LayerCount: 2
Fore
SplineSet
90 0 m 1,0,-1
 60 0 l 1,1,-1
 60 70 l 1,2,-1
 50 70 l 1,3,-1
 50 60 l 1,4,-1
 40 60 l 1,5,-1
 40 0 l 1,6,-1
 10 0 l 1,7,-1
 10 90 l 1,8,-1
 30 90 l 1,9,-1
 30 80 l 1,10,-1
 40 80 l 1,11,-1
 40 90 l 1,12,-1
 80 90 l 1,13,-1
 80 80 l 1,14,-1
 90 80 l 1,15,-1
 90 0 l 1,0,-1
EndSplineSet
EndChar

StartChar: pbold
Encoding: 119849 119849 207
Width: 110
GlyphClass: 1
Flags: W
LayerCount: 2
Fore
SplineSet
10 -10 m 1,0,-1
 10 90 l 1,1,-1
 90 90 l 1,2,-1
 90 80 l 1,3,-1
 100 80 l 1,4,-1
 100 30 l 1,5,-1
 90 30 l 1,6,-1
 90 20 l 1,7,-1
 40 20 l 1,8,-1
 40 -10 l 1,9,-1
 10 -10 l 1,0,-1
40 70 m 1,10,-1
 40 40 l 1,11,-1
 70 40 l 1,12,-1
 70 70 l 1,13,-1
 40 70 l 1,10,-1
EndSplineSet
EndChar

StartChar: Fitalic
Encoding: 119865 119865 208
Width: 110
GlyphClass: 1
Flags: W
LayerCount: 2
Fore
SplineSet
40 50 m 1,0,-1
 40 30 l 1,1,-1
 30 30 l 1,2,-1
 30 0 l 1,3,-1
 10 0 l 1,4,-1
 10 40 l 1,5,-1
 20 40 l 1,6,-1
 20 90 l 1,7,-1
 30 90 l 1,8,-1
 30 120 l 1,9,-1
 100 120 l 1,10,-1
 100 100 l 1,11,-1
 50 100 l 1,12,-1
 50 80 l 1,13,-1
 40 80 l 1,14,-1
 40 70 l 1,15,-1
 90 70 l 1,16,-1
 90 50 l 1,17,-1
 40 50 l 1,0,-1
EndSplineSet
EndChar

StartChar: titalic
Encoding: 119905 119905 209
Width: 110
GlyphClass: 1
Flags: W
LayerCount: 2
Fore
SplineSet
30 50 m 1,0,-1
 30 70 l 1,1,-1
 10 70 l 1,2,-1
 10 90 l 1,3,-1
 40 90 l 1,4,-1
 40 110 l 1,5,-1
 60 110 l 1,6,-1
 60 90 l 1,7,-1
 90 90 l 1,8,-1
 90 70 l 1,9,-1
 50 70 l 1,10,-1
 50 40 l 1,11,-1
 40 40 l 1,12,-1
 40 20 l 1,13,-1
 60 20 l 1,14,-1
 60 30 l 1,15,-1
 80 30 l 1,16,-1
 80 10 l 1,17,-1
 70 10 l 1,18,-1
 70 0 l 1,19,-1
 30 0 l 1,20,-1
 30 10 l 1,21,-1
 20 10 l 1,22,-1
 20 50 l 1,23,-1
 30 50 l 1,0,-1
EndSplineSet
EndChar

StartChar: ebolditalic
Encoding: 119942 119942 210
Width: 110
GlyphClass: 1
Flags: W
LayerCount: 2
Fore
SplineSet
0 50 m 1,0,-1
 10 50 l 1,1,-1
 10 70 l 1,2,-1
 20 70 l 1,3,-1
 20 80 l 1,4,-1
 40 80 l 1,5,-1
 40 90 l 1,6,-1
 90 90 l 1,7,-1
 90 80 l 1,8,-1
 100 80 l 1,9,-1
 100 60 l 1,10,-1
 90 60 l 1,11,-1
 90 50 l 1,12,-1
 80 50 l 1,13,-1
 80 40 l 1,14,-1
 60 40 l 1,15,-1
 60 30 l 1,16,-1
 30 30 l 1,17,-1
 30 20 l 1,18,-1
 60 20 l 1,19,-1
 60 30 l 1,20,-1
 90 30 l 1,21,-1
 90 10 l 1,22,-1
 80 10 l 1,23,-1
 80 0 l 1,24,-1
 20 0 l 1,25,-1
 20 10 l 1,26,-1
 10 10 l 1,27,-1
 10 20 l 1,28,-1
 0 20 l 1,29,-1
 0 50 l 1,0,-1
40 40 m 1,30,-1
 40 50 l 1,31,-1
 60 50 l 1,32,-1
 60 60 l 1,33,-1
 70 60 l 1,34,-1
 70 70 l 1,35,-1
 50 70 l 1,36,-1
 50 60 l 1,37,-1
 40 60 l 1,38,-1
 40 50 l 1,39,-1
 30 50 l 1,40,-1
 30 40 l 1,41,-1
 40 40 l 1,30,-1
EndSplineSet
EndChar

StartChar: ibolditalic
Encoding: 119946 119946 211
Width: 110
GlyphClass: 1
Flags: W
LayerCount: 2
Fore
SplineSet
50 120 m 1,0,-1
 80 120 l 1,1,-1
 80 100 l 1,2,-1
 50 100 l 1,3,-1
 50 120 l 1,0,-1
20 10 m 1,4,-1
 20 40 l 1,5,-1
 30 40 l 1,6,-1
 30 60 l 1,7,-1
 40 60 l 1,8,-1
 40 70 l 1,9,-1
 30 70 l 1,10,-1
 30 90 l 1,11,-1
 70 90 l 1,12,-1
 70 50 l 1,13,-1
 60 50 l 1,14,-1
 60 30 l 1,15,-1
 50 30 l 1,16,-1
 50 20 l 1,17,-1
 70 20 l 1,18,-1
 70 30 l 1,19,-1
 90 30 l 1,20,-1
 90 10 l 1,21,-1
 80 10 l 1,22,-1
 80 0 l 1,23,-1
 30 0 l 1,24,-1
 30 10 l 1,25,-1
 20 10 l 1,4,-1
EndSplineSet
EndChar

StartChar: xbolditalic
Encoding: 119961 119961 212
Width: 110
GlyphClass: 1
Flags: W
LayerCount: 2
Fore
SplineSet
20 0 m 1,0,-1
 0 0 l 1,1,-1
 0 20 l 1,2,-1
 10 20 l 1,3,-1
 10 30 l 1,4,-1
 20 30 l 1,5,-1
 20 40 l 1,6,-1
 30 40 l 1,7,-1
 30 50 l 1,8,-1
 40 50 l 1,9,-1
 40 60 l 1,10,-1
 30 60 l 1,11,-1
 30 70 l 1,12,-1
 20 70 l 1,13,-1
 20 60 l 1,14,-1
 0 60 l 1,15,-1
 0 80 l 1,16,-1
 10 80 l 1,17,-1
 10 90 l 1,18,-1
 50 90 l 1,19,-1
 50 80 l 1,20,-1
 60 80 l 1,21,-1
 60 70 l 1,22,-1
 70 70 l 1,23,-1
 70 80 l 1,24,-1
 80 80 l 1,25,-1
 80 90 l 1,26,-1
 100 90 l 1,27,-1
 100 70 l 1,28,-1
 90 70 l 1,29,-1
 90 60 l 1,30,-1
 80 60 l 1,31,-1
 80 50 l 1,32,-1
 70 50 l 1,33,-1
 70 40 l 1,34,-1
 60 40 l 1,35,-1
 60 30 l 1,36,-1
 70 30 l 1,37,-1
 70 20 l 1,38,-1
 80 20 l 1,39,-1
 80 30 l 1,40,-1
 100 30 l 1,41,-1
 100 10 l 1,42,-1
 90 10 l 1,43,-1
 90 0 l 1,44,-1
 50 0 l 1,45,-1
 50 10 l 1,46,-1
 40 10 l 1,47,-1
 40 20 l 1,48,-1
 30 20 l 1,49,-1
 30 10 l 1,50,-1
 20 10 l 1,51,-1
 20 0 l 1,0,-1
EndSplineSet
EndChar

StartChar: ybolditalic
Encoding: 119962 119962 213
Width: 110
GlyphClass: 1
Flags: W
LayerCount: 2
Fore
SplineSet
0 0 m 1,0,-1
 0 20 l 1,1,-1
 20 20 l 1,2,-1
 20 10 l 1,3,-1
 40 10 l 1,4,-1
 40 20 l 1,5,-1
 50 20 l 1,6,-1
 50 30 l 1,7,-1
 40 30 l 1,8,-1
 40 40 l 1,9,-1
 30 40 l 1,10,-1
 30 70 l 1,11,-1
 10 70 l 1,12,-1
 10 90 l 1,13,-1
 40 90 l 1,14,-1
 40 80 l 1,15,-1
 50 80 l 1,16,-1
 50 50 l 1,17,-1
 70 50 l 1,18,-1
 70 70 l 1,19,-1
 80 70 l 1,20,-1
 80 90 l 1,21,-1
 100 90 l 1,22,-1
 100 60 l 1,23,-1
 90 60 l 1,24,-1
 90 40 l 1,25,-1
 80 40 l 1,26,-1
 80 20 l 1,27,-1
 70 20 l 1,28,-1
 70 10 l 1,29,-1
 60 10 l 1,30,-1
 60 0 l 1,31,-1
 50 0 l 1,32,-1
 50 -10 l 1,33,-1
 10 -10 l 1,34,-1
 10 0 l 1,35,-1
 0 0 l 1,0,-1
EndSplineSet
EndChar

StartChar: zbolditalic
Encoding: 119963 119963 214
Width: 110
GlyphClass: 1
Flags: W
LayerCount: 2
Fore
SplineSet
80 0 m 1,0,-1
 0 0 l 1,1,-1
 0 20 l 1,2,-1
 10 20 l 1,3,-1
 10 30 l 1,4,-1
 20 30 l 1,5,-1
 20 40 l 1,6,-1
 30 40 l 1,7,-1
 30 50 l 1,8,-1
 40 50 l 1,9,-1
 40 60 l 1,10,-1
 50 60 l 1,11,-1
 50 70 l 1,12,-1
 10 70 l 1,13,-1
 10 80 l 1,14,-1
 20 80 l 1,15,-1
 20 90 l 1,16,-1
 100 90 l 1,17,-1
 100 80 l 1,18,-1
 90 80 l 1,19,-1
 90 70 l 1,20,-1
 80 70 l 1,21,-1
 80 60 l 1,22,-1
 70 60 l 1,23,-1
 70 50 l 1,24,-1
 60 50 l 1,25,-1
 60 40 l 1,26,-1
 50 40 l 1,27,-1
 50 30 l 1,28,-1
 40 30 l 1,29,-1
 40 20 l 1,30,-1
 90 20 l 1,31,-1
 90 10 l 1,32,-1
 80 10 l 1,33,-1
 80 0 l 1,0,-1
EndSplineSet
EndChar

StartChar: alpha
Encoding: 945 945 215
Width: 110
GlyphClass: 1
Flags: MW
LayerCount: 2
Fore
SplineSet
0 20 m 1,0,-1
 0 70 l 1,1,-1
 10 70 l 1,2,-1
 10 80 l 1,3,-1
 20 80 l 1,4,-1
 20 90 l 1,5,-1
 60 90 l 1,6,-1
 60 80 l 1,7,-1
 70 80 l 1,8,-1
 70 70 l 1,9,-1
 80 70 l 1,10,-1
 80 90 l 1,11,-1
 100 90 l 1,12,-1
 100 70 l 1,13,-1
 90 70 l 1,14,-1
 90 50 l 1,15,-1
 80 50 l 1,16,-1
 80 40 l 1,17,-1
 90 40 l 1,18,-1
 90 20 l 1,19,-1
 100 20 l 1,20,-1
 100 0 l 1,21,-1
 80 0 l 1,22,-1
 80 20 l 1,23,-1
 70 20 l 1,24,-1
 70 10 l 1,25,-1
 60 10 l 1,26,-1
 60 0 l 1,27,-1
 20 0 l 1,28,-1
 20 10 l 1,29,-1
 10 10 l 1,30,-1
 10 20 l 1,31,-1
 0 20 l 1,0,-1
20 60 m 1,32,-1
 20 30 l 1,33,-1
 30 30 l 1,34,-1
 30 20 l 1,35,-1
 50 20 l 1,36,-1
 50 30 l 1,37,-1
 60 30 l 1,38,-1
 60 60 l 1,39,-1
 50 60 l 1,40,-1
 50 70 l 1,41,-1
 30 70 l 1,42,-1
 30 60 l 1,43,-1
 20 60 l 1,32,-1
EndSplineSet
EndChar

StartChar: gammaitalic
Encoding: 120574 120574 216
Width: 110
GlyphClass: 1
Flags: W
LayerCount: 2
Fore
SplineSet
20 60 m 1,0,-1
 20 70 l 1,1,-1
 0 70 l 1,2,-1
 0 90 l 1,3,-1
 30 90 l 1,4,-1
 30 80 l 1,5,-1
 40 80 l 1,6,-1
 40 70 l 1,7,-1
 50 70 l 1,8,-1
 50 80 l 1,9,-1
 70 80 l 1,10,-1
 70 90 l 1,11,-1
 100 90 l 1,12,-1
 100 70 l 1,13,-1
 80 70 l 1,14,-1
 80 60 l 1,15,-1
 60 60 l 1,16,-1
 60 50 l 1,17,-1
 50 50 l 1,18,-1
 50 40 l 1,19,-1
 40 40 l 1,20,-1
 40 20 l 1,21,-1
 30 20 l 1,22,-1
 30 -10 l 1,23,-1
 10 -10 l 1,24,-1
 10 30 l 1,25,-1
 20 30 l 1,26,-1
 20 50 l 1,27,-1
 30 50 l 1,28,-1
 30 60 l 1,29,-1
 20 60 l 1,0,-1
EndSplineSet
EndChar

StartChar: epsilonitalic
Encoding: 120576 120576 217
Width: 110
GlyphClass: 1
Flags: W
LayerCount: 2
Fore
SplineSet
10 40 m 1,0,-1
 20 40 l 1,1,-1
 20 50 l 1,2,-1
 30 50 l 1,3,-1
 30 60 l 1,4,-1
 20 60 l 1,5,-1
 20 80 l 1,6,-1
 30 80 l 1,7,-1
 30 90 l 1,8,-1
 90 90 l 1,9,-1
 90 70 l 1,10,-1
 40 70 l 1,11,-1
 40 60 l 1,12,-1
 70 60 l 1,13,-1
 70 40 l 1,14,-1
 40 40 l 1,15,-1
 40 30 l 1,16,-1
 30 30 l 1,17,-1
 30 20 l 1,18,-1
 80 20 l 1,19,-1
 80 0 l 1,20,-1
 20 0 l 1,21,-1
 20 10 l 1,22,-1
 10 10 l 1,23,-1
 10 40 l 1,0,-1
EndSplineSet
EndChar

StartChar: thetaitalic
Encoding: 120579 120579 218
Width: 110
GlyphClass: 1
Flags: W
LayerCount: 2
Fore
SplineSet
20 70 m 1,0,-1
 20 100 l 1,1,-1
 30 100 l 1,2,-1
 30 110 l 1,3,-1
 40 110 l 1,4,-1
 40 120 l 1,5,-1
 80 120 l 1,6,-1
 80 110 l 1,7,-1
 90 110 l 1,8,-1
 90 100 l 1,9,-1
 100 100 l 1,10,-1
 100 50 l 1,11,-1
 90 50 l 1,12,-1
 90 20 l 1,13,-1
 80 20 l 1,14,-1
 80 10 l 1,15,-1
 70 10 l 1,16,-1
 70 0 l 1,17,-1
 30 0 l 1,18,-1
 30 10 l 1,19,-1
 20 10 l 1,20,-1
 20 20 l 1,21,-1
 10 20 l 1,22,-1
 10 70 l 1,23,-1
 20 70 l 1,0,-1
40 70 m 1,24,-1
 80 70 l 1,25,-1
 80 90 l 1,26,-1
 70 90 l 1,27,-1
 70 100 l 1,28,-1
 50 100 l 1,29,-1
 50 90 l 1,30,-1
 40 90 l 1,31,-1
 40 70 l 1,24,-1
40 30 m 1,32,-1
 40 20 l 1,33,-1
 60 20 l 1,34,-1
 60 30 l 1,35,-1
 70 30 l 1,36,-1
 70 50 l 1,37,-1
 30 50 l 1,38,-1
 30 30 l 1,39,-1
 40 30 l 1,32,-1
EndSplineSet
EndChar

StartChar: lamdaitalic
Encoding: 120582 120582 219
Width: 110
GlyphClass: 1
Flags: W
LayerCount: 2
Fore
SplineSet
10 20 m 1,0,-1
 10 40 l 1,1,-1
 20 40 l 1,2,-1
 20 60 l 1,3,-1
 30 60 l 1,4,-1
 30 80 l 1,5,-1
 40 80 l 1,6,-1
 40 100 l 1,7,-1
 20 100 l 1,8,-1
 20 120 l 1,9,-1
 50 120 l 1,10,-1
 50 110 l 1,11,-1
 60 110 l 1,12,-1
 60 60 l 1,13,-1
 70 60 l 1,14,-1
 70 20 l 1,15,-1
 100 20 l 1,16,-1
 100 0 l 1,17,-1
 60 0 l 1,18,-1
 60 10 l 1,19,-1
 50 10 l 1,20,-1
 50 50 l 1,21,-1
 40 50 l 1,22,-1
 40 30 l 1,23,-1
 30 30 l 1,24,-1
 30 10 l 1,25,-1
 20 10 l 1,26,-1
 20 0 l 1,27,-1
 0 0 l 1,28,-1
 0 20 l 1,29,-1
 10 20 l 1,0,-1
EndSplineSet
EndChar

StartChar: muitalic
Encoding: 120583 120583 220
Width: 110
GlyphClass: 1
Flags: W
LayerCount: 2
Fore
SplineSet
10 -10 m 1,0,-1
 10 30 l 1,1,-1
 20 30 l 1,2,-1
 20 60 l 1,3,-1
 30 60 l 1,4,-1
 30 90 l 1,5,-1
 50 90 l 1,6,-1
 50 50 l 1,7,-1
 40 50 l 1,8,-1
 40 30 l 1,9,-1
 60 30 l 1,10,-1
 60 40 l 1,11,-1
 70 40 l 1,12,-1
 70 60 l 1,13,-1
 80 60 l 1,14,-1
 80 90 l 1,15,-1
 100 90 l 1,16,-1
 100 50 l 1,17,-1
 90 50 l 1,18,-1
 90 10 l 1,19,-1
 70 10 l 1,20,-1
 70 20 l 1,21,-1
 60 20 l 1,22,-1
 60 10 l 1,23,-1
 40 10 l 1,24,-1
 40 20 l 1,25,-1
 30 20 l 1,26,-1
 30 -10 l 1,27,-1
 10 -10 l 1,0,-1
EndSplineSet
EndChar

StartChar: piitalic
Encoding: 120587 120587 221
Width: 110
GlyphClass: 1
Flags: W
LayerCount: 2
Fore
SplineSet
10 20 m 1,0,-1
 10 50 l 1,1,-1
 20 50 l 1,2,-1
 20 70 l 1,3,-1
 0 70 l 1,4,-1
 0 80 l 1,5,-1
 10 80 l 1,6,-1
 10 90 l 1,7,-1
 100 90 l 1,8,-1
 100 70 l 1,9,-1
 80 70 l 1,10,-1
 80 40 l 1,11,-1
 70 40 l 1,12,-1
 70 20 l 1,13,-1
 90 20 l 1,14,-1
 90 0 l 1,15,-1
 60 0 l 1,16,-1
 60 10 l 1,17,-1
 50 10 l 1,18,-1
 50 50 l 1,19,-1
 60 50 l 1,20,-1
 60 70 l 1,21,-1
 40 70 l 1,22,-1
 40 40 l 1,23,-1
 30 40 l 1,24,-1
 30 10 l 1,25,-1
 20 10 l 1,26,-1
 20 0 l 1,27,-1
 0 0 l 1,28,-1
 0 20 l 1,29,-1
 10 20 l 1,0,-1
EndSplineSet
EndChar

StartChar: sigmaitalic
Encoding: 120590 120590 222
Width: 110
GlyphClass: 1
Flags: W
LayerCount: 2
Fore
SplineSet
0 20 m 1,0,-1
 0 50 l 1,1,-1
 10 50 l 1,2,-1
 10 70 l 1,3,-1
 20 70 l 1,4,-1
 20 80 l 1,5,-1
 30 80 l 1,6,-1
 30 90 l 1,7,-1
 100 90 l 1,8,-1
 100 70 l 1,9,-1
 80 70 l 1,10,-1
 80 60 l 1,11,-1
 90 60 l 1,12,-1
 90 40 l 1,13,-1
 80 40 l 1,14,-1
 80 20 l 1,15,-1
 70 20 l 1,16,-1
 70 10 l 1,17,-1
 60 10 l 1,18,-1
 60 0 l 1,19,-1
 20 0 l 1,20,-1
 20 10 l 1,21,-1
 10 10 l 1,22,-1
 10 20 l 1,23,-1
 0 20 l 1,0,-1
20 30 m 1,24,-1
 30 30 l 1,25,-1
 30 20 l 1,26,-1
 50 20 l 1,27,-1
 50 30 l 1,28,-1
 60 30 l 1,29,-1
 60 50 l 1,30,-1
 70 50 l 1,31,-1
 70 60 l 1,32,-1
 60 60 l 1,33,-1
 60 70 l 1,34,-1
 40 70 l 1,35,-1
 40 60 l 1,36,-1
 30 60 l 1,37,-1
 30 40 l 1,38,-1
 20 40 l 1,39,-1
 20 30 l 1,24,-1
EndSplineSet
EndChar

StartChar: phisymbolitalic
Encoding: 120601 120601 223
Width: 110
GlyphClass: 1
Flags: W
LayerCount: 2
Fore
SplineSet
20 20 m 1,0,-1
 10 20 l 1,1,-1
 10 70 l 1,2,-1
 20 70 l 1,3,-1
 20 80 l 1,4,-1
 30 80 l 1,5,-1
 30 90 l 1,6,-1
 60 90 l 1,7,-1
 60 120 l 1,8,-1
 80 120 l 1,9,-1
 80 90 l 1,10,-1
 90 90 l 1,11,-1
 90 80 l 1,12,-1
 100 80 l 1,13,-1
 100 30 l 1,14,-1
 90 30 l 1,15,-1
 90 20 l 1,16,-1
 80 20 l 1,17,-1
 80 10 l 1,18,-1
 50 10 l 1,19,-1
 50 -10 l 1,20,-1
 30 -10 l 1,21,-1
 30 10 l 1,22,-1
 20 10 l 1,23,-1
 20 20 l 1,0,-1
70 50 m 1,24,-1
 60 50 l 1,25,-1
 60 30 l 1,26,-1
 70 30 l 1,27,-1
 70 40 l 1,28,-1
 80 40 l 1,29,-1
 80 70 l 1,30,-1
 70 70 l 1,31,-1
 70 50 l 1,24,-1
30 30 m 1,32,-1
 40 30 l 1,33,-1
 40 50 l 1,34,-1
 50 50 l 1,35,-1
 50 70 l 1,36,-1
 40 70 l 1,37,-1
 40 60 l 1,38,-1
 30 60 l 1,39,-1
 30 30 l 1,32,-1
EndSplineSet
EndChar

StartChar: mubolditalic
Encoding: 120641 120641 224
Width: 110
GlyphClass: 1
Flags: W
LayerCount: 2
Fore
SplineSet
40 -10 m 1,0,-1
 10 -10 l 1,1,-1
 10 30 l 1,2,-1
 20 30 l 1,3,-1
 20 60 l 1,4,-1
 30 60 l 1,5,-1
 30 90 l 1,6,-1
 60 90 l 1,7,-1
 60 60 l 1,8,-1
 70 60 l 1,9,-1
 70 90 l 1,10,-1
 100 90 l 1,11,-1
 100 60 l 1,12,-1
 90 60 l 1,13,-1
 90 40 l 1,14,-1
 100 40 l 1,15,-1
 100 20 l 1,16,-1
 70 20 l 1,17,-1
 70 30 l 1,18,-1
 60 30 l 1,19,-1
 60 20 l 1,20,-1
 40 20 l 1,21,-1
 40 -10 l 1,0,-1
60 60 m 1,22,-1
 50 60 l 1,23,-1
 50 40 l 1,24,-1
 60 40 l 1,25,-1
 60 60 l 1,22,-1
EndSplineSet
EndChar

StartChar: minus.inferior
Encoding: 8331 8331 225
Width: 110
GlyphClass: 1
Flags: W
LayerCount: 2
Fore
SplineSet
20 20 m 1,0,-1
 20 30 l 1,1,-1
 70 30 l 1,2,-1
 70 20 l 1,3,-1
 20 20 l 1,0,-1
EndSplineSet
EndChar

StartChar: parenleft.inferior
Encoding: 8333 8333 226
Width: 110
GlyphClass: 1
Flags: W
LayerCount: 2
Fore
SplineSet
70 -10 m 1,0,-1
 40 -10 l 1,1,-1
 40 0 l 1,2,-1
 30 0 l 1,3,-1
 30 50 l 1,4,-1
 40 50 l 1,5,-1
 40 60 l 1,6,-1
 70 60 l 1,7,-1
 70 40 l 1,8,-1
 50 40 l 1,9,-1
 50 10 l 1,10,-1
 70 10 l 1,11,-1
 70 -10 l 1,0,-1
EndSplineSet
EndChar

StartChar: parenright.inferior
Encoding: 8334 8334 227
Width: 110
GlyphClass: 1
Flags: W
LayerCount: 2
Fore
SplineSet
40 -10 m 1,0,-1
 40 10 l 1,1,-1
 60 10 l 1,2,-1
 60 40 l 1,3,-1
 40 40 l 1,4,-1
 40 60 l 1,5,-1
 70 60 l 1,6,-1
 70 50 l 1,7,-1
 80 50 l 1,8,-1
 80 0 l 1,9,-1
 70 0 l 1,10,-1
 70 -10 l 1,11,-1
 40 -10 l 1,0,-1
EndSplineSet
EndChar

StartChar: litre
Encoding: 8467 8467 228
Width: 110
GlyphClass: 1
Flags: W
LayerCount: 2
Fore
SplineSet
30 0 m 1,0,-1
 0 0 l 1,1,-1
 0 20 l 1,2,-1
 20 20 l 1,3,-1
 20 30 l 1,4,-1
 30 30 l 1,5,-1
 30 40 l 1,6,-1
 20 40 l 1,7,-1
 20 80 l 1,8,-1
 30 80 l 1,9,-1
 30 100 l 1,10,-1
 40 100 l 1,11,-1
 40 110 l 1,12,-1
 50 110 l 1,13,-1
 50 120 l 1,14,-1
 80 120 l 1,15,-1
 80 110 l 1,16,-1
 90 110 l 1,17,-1
 90 60 l 1,18,-1
 80 60 l 1,19,-1
 80 40 l 1,20,-1
 70 40 l 1,21,-1
 70 30 l 1,22,-1
 60 30 l 1,23,-1
 60 20 l 1,24,-1
 70 20 l 1,25,-1
 70 10 l 1,26,-1
 80 10 l 1,27,-1
 80 20 l 1,28,-1
 100 20 l 1,29,-1
 100 0 l 1,30,-1
 90 0 l 1,31,-1
 90 -10 l 1,32,-1
 60 -10 l 1,33,-1
 60 0 l 1,34,-1
 50 0 l 1,35,-1
 50 10 l 1,36,-1
 30 10 l 1,37,-1
 30 0 l 1,0,-1
40 70 m 1,38,-1
 40 40 l 1,39,-1
 50 40 l 1,40,-1
 50 50 l 1,41,-1
 60 50 l 1,42,-1
 60 70 l 1,43,-1
 70 70 l 1,44,-1
 70 100 l 1,45,-1
 60 100 l 1,46,-1
 60 90 l 1,47,-1
 50 90 l 1,48,-1
 50 70 l 1,49,-1
 40 70 l 1,38,-1
EndSplineSet
EndChar

StartChar: angstrom
Encoding: 8491 8491 229
Width: 110
GlyphClass: 1
Flags: W
LayerCount: 2
Fore
SplineSet
10 0 m 1,0,-1
 10 30 l 1,1,-1
 20 30 l 1,2,-1
 20 60 l 1,3,-1
 30 60 l 1,4,-1
 30 80 l 1,5,-1
 40 80 l 1,6,-1
 40 90 l 1,7,-1
 30 90 l 1,8,-1
 30 110 l 1,9,-1
 40 110 l 1,10,-1
 40 120 l 1,11,-1
 70 120 l 1,12,-1
 70 110 l 1,13,-1
 80 110 l 1,14,-1
 80 90 l 1,15,-1
 70 90 l 1,16,-1
 70 80 l 1,17,-1
 80 80 l 1,18,-1
 80 60 l 1,19,-1
 90 60 l 1,20,-1
 90 30 l 1,21,-1
 100 30 l 1,22,-1
 100 0 l 1,23,-1
 80 0 l 1,24,-1
 80 20 l 1,25,-1
 30 20 l 1,26,-1
 30 0 l 1,27,-1
 10 0 l 1,0,-1
60 90 m 1,28,-1
 60 100 l 1,29,-1
 50 100 l 1,30,-1
 50 90 l 1,31,-1
 60 90 l 1,28,-1
70 40 m 1,32,-1
 70 50 l 1,33,-1
 60 50 l 1,34,-1
 60 70 l 1,35,-1
 50 70 l 1,36,-1
 50 50 l 1,37,-1
 40 50 l 1,38,-1
 40 40 l 1,39,-1
 70 40 l 1,32,-1
EndSplineSet
EndChar

StartChar: arrowright
Encoding: 8594 8594 230
Width: 110
GlyphClass: 1
Flags: W
LayerCount: 2
Fore
SplineSet
0 70 m 1,0,-1
 60 70 l 1,1,-1
 60 100 l 1,2,-1
 70 100 l 1,3,-1
 70 90 l 1,4,-1
 80 90 l 1,5,-1
 80 80 l 1,6,-1
 90 80 l 1,7,-1
 90 70 l 1,8,-1
 100 70 l 1,9,-1
 100 50 l 1,10,-1
 90 50 l 1,11,-1
 90 40 l 1,12,-1
 80 40 l 1,13,-1
 80 30 l 1,14,-1
 70 30 l 1,15,-1
 70 20 l 1,16,-1
 60 20 l 1,17,-1
 60 50 l 1,18,-1
 0 50 l 1,19,-1
 0 70 l 1,0,-1
EndSplineSet
EndChar

StartChar: arrowanticlockwiseopencircle
Encoding: 8634 8634 231
Width: 110
GlyphClass: 1
Flags: W
LayerCount: 2
Fore
SplineSet
30 20 m 1,0,-1
 20 20 l 1,1,-1
 20 40 l 1,2,-1
 40 40 l 1,3,-1
 40 30 l 1,4,-1
 70 30 l 1,5,-1
 70 40 l 1,6,-1
 80 40 l 1,7,-1
 80 70 l 1,8,-1
 70 70 l 1,9,-1
 70 80 l 1,10,-1
 40 80 l 1,11,-1
 40 70 l 1,12,-1
 30 70 l 1,13,-1
 30 60 l 1,14,-1
 50 60 l 1,15,-1
 50 50 l 1,16,-1
 0 50 l 1,17,-1
 0 100 l 1,18,-1
 10 100 l 1,19,-1
 10 80 l 1,20,-1
 20 80 l 1,21,-1
 20 90 l 1,22,-1
 30 90 l 1,23,-1
 30 100 l 1,24,-1
 80 100 l 1,25,-1
 80 90 l 1,26,-1
 90 90 l 1,27,-1
 90 80 l 1,28,-1
 100 80 l 1,29,-1
 100 30 l 1,30,-1
 90 30 l 1,31,-1
 90 20 l 1,32,-1
 80 20 l 1,33,-1
 80 10 l 1,34,-1
 30 10 l 1,35,-1
 30 20 l 1,0,-1
EndSplineSet
EndChar

StartChar: arrowdblright
Encoding: 8658 8658 232
Width: 110
GlyphClass: 1
Flags: W
LayerCount: 2
Fore
SplineSet
10 40 m 1,0,-1
 10 50 l 1,1,-1
 90 50 l 1,2,-1
 90 70 l 1,3,-1
 10 70 l 1,4,-1
 10 80 l 1,5,-1
 70 80 l 1,6,-1
 70 90 l 1,7,-1
 60 90 l 1,8,-1
 60 100 l 1,9,-1
 70 100 l 1,10,-1
 70 90 l 1,11,-1
 80 90 l 1,12,-1
 80 80 l 1,13,-1
 90 80 l 1,14,-1
 90 70 l 1,15,-1
 100 70 l 1,16,-1
 100 50 l 1,17,-1
 90 50 l 1,18,-1
 90 40 l 1,19,-1
 80 40 l 1,20,-1
 80 30 l 1,21,-1
 70 30 l 1,22,-1
 70 20 l 1,23,-1
 60 20 l 1,24,-1
 60 30 l 1,25,-1
 70 30 l 1,26,-1
 70 40 l 1,27,-1
 10 40 l 1,0,-1
EndSplineSet
EndChar

StartChar: whitearrowdown
Encoding: 8681 8681 233
Width: 110
GlyphClass: 1
Flags: W
LayerCount: 2
Fore
SplineSet
10 50 m 1,0,-1
 10 70 l 1,1,-1
 30 70 l 1,2,-1
 30 110 l 1,3,-1
 80 110 l 1,4,-1
 80 70 l 1,5,-1
 100 70 l 1,6,-1
 100 50 l 1,7,-1
 90 50 l 1,8,-1
 90 40 l 1,9,-1
 80 40 l 1,10,-1
 80 30 l 1,11,-1
 70 30 l 1,12,-1
 70 20 l 1,13,-1
 60 20 l 1,14,-1
 60 30 l 1,15,-1
 70 30 l 1,16,-1
 70 40 l 1,17,-1
 80 40 l 1,18,-1
 80 50 l 1,19,-1
 90 50 l 1,20,-1
 90 60 l 1,21,-1
 70 60 l 1,22,-1
 70 100 l 1,23,-1
 40 100 l 1,24,-1
 40 60 l 1,25,-1
 20 60 l 1,26,-1
 20 50 l 1,27,-1
 30 50 l 1,28,-1
 30 40 l 1,29,-1
 40 40 l 1,30,-1
 40 30 l 1,31,-1
 50 30 l 1,32,-1
 50 20 l 1,33,-1
 60 20 l 1,34,-1
 60 10 l 1,35,-1
 50 10 l 1,36,-1
 50 20 l 1,37,-1
 40 20 l 1,38,-1
 40 30 l 1,39,-1
 30 30 l 1,40,-1
 30 40 l 1,41,-1
 20 40 l 1,42,-1
 20 50 l 1,43,-1
 10 50 l 1,0,-1
EndSplineSet
EndChar

StartChar: product
Encoding: 8719 8719 234
Width: 110
GlyphClass: 1
Flags: W
LayerCount: 2
Fore
SplineSet
0 0 m 1,0,-1
 0 20 l 1,1,-1
 10 20 l 1,2,-1
 10 100 l 1,3,-1
 0 100 l 1,4,-1
 0 120 l 1,5,-1
 100 120 l 1,6,-1
 100 100 l 1,7,-1
 90 100 l 1,8,-1
 90 20 l 1,9,-1
 100 20 l 1,10,-1
 100 0 l 1,11,-1
 60 0 l 1,12,-1
 60 20 l 1,13,-1
 70 20 l 1,14,-1
 70 100 l 1,15,-1
 30 100 l 1,16,-1
 30 20 l 1,17,-1
 40 20 l 1,18,-1
 40 0 l 1,19,-1
 0 0 l 1,0,-1
EndSplineSet
EndChar

StartChar: summation
Encoding: 8721 8721 235
Width: 110
GlyphClass: 1
Flags: W
LayerCount: 2
Fore
SplineSet
0 -10 m 1,0,-1
 0 10 l 1,1,-1
 10 10 l 1,2,-1
 10 20 l 1,3,-1
 20 20 l 1,4,-1
 20 30 l 1,5,-1
 30 30 l 1,6,-1
 30 40 l 1,7,-1
 40 40 l 1,8,-1
 40 50 l 1,9,-1
 50 50 l 1,10,-1
 50 60 l 1,11,-1
 40 60 l 1,12,-1
 40 70 l 1,13,-1
 30 70 l 1,14,-1
 30 80 l 1,15,-1
 20 80 l 1,16,-1
 20 90 l 1,17,-1
 10 90 l 1,18,-1
 10 100 l 1,19,-1
 0 100 l 1,20,-1
 0 120 l 1,21,-1
 100 120 l 1,22,-1
 100 90 l 1,23,-1
 80 90 l 1,24,-1
 80 100 l 1,25,-1
 40 100 l 1,26,-1
 40 90 l 1,27,-1
 50 90 l 1,28,-1
 50 80 l 1,29,-1
 60 80 l 1,30,-1
 60 70 l 1,31,-1
 70 70 l 1,32,-1
 70 60 l 1,33,-1
 80 60 l 1,34,-1
 80 50 l 1,35,-1
 70 50 l 1,36,-1
 70 40 l 1,37,-1
 60 40 l 1,38,-1
 60 30 l 1,39,-1
 50 30 l 1,40,-1
 50 20 l 1,41,-1
 40 20 l 1,42,-1
 40 10 l 1,43,-1
 80 10 l 1,44,-1
 80 20 l 1,45,-1
 100 20 l 1,46,-1
 100 -10 l 1,47,-1
 0 -10 l 1,0,-1
EndSplineSet
EndChar

StartChar: minus
Encoding: 8722 8722 236
Width: 110
GlyphClass: 1
Flags: W
LayerCount: 2
Fore
SplineSet
20 70 m 1,0,-1
 80 70 l 1,1,-1
 80 50 l 1,2,-1
 20 50 l 1,3,-1
 20 70 l 1,0,-1
EndSplineSet
EndChar

StartChar: radical
Encoding: 8730 8730 237
Width: 110
GlyphClass: 1
Flags: W
LayerCount: 2
Fore
SplineSet
0 60 m 1,0,-1
 0 80 l 1,1,-1
 30 80 l 1,2,-1
 30 50 l 1,3,-1
 40 50 l 1,4,-1
 40 60 l 1,5,-1
 50 60 l 1,6,-1
 50 90 l 1,7,-1
 60 90 l 1,8,-1
 60 120 l 1,9,-1
 100 120 l 1,10,-1
 100 100 l 1,11,-1
 80 100 l 1,12,-1
 80 80 l 1,13,-1
 70 80 l 1,14,-1
 70 50 l 1,15,-1
 60 50 l 1,16,-1
 60 20 l 1,17,-1
 50 20 l 1,18,-1
 50 0 l 1,19,-1
 30 0 l 1,20,-1
 30 20 l 1,21,-1
 20 20 l 1,22,-1
 20 40 l 1,23,-1
 10 40 l 1,24,-1
 10 60 l 1,25,-1
 0 60 l 1,0,-1
EndSplineSet
EndChar

StartChar: cuberoot-math
Encoding: 8731 8731 238
Width: 220
GlyphClass: 1
Flags: W
LayerCount: 2
Fore
SplineSet
20 100 m 1,0,-1
 20 120 l 1,1,-1
 70 120 l 1,2,-1
 70 110 l 1,3,-1
 80 110 l 1,4,-1
 80 90 l 1,5,-1
 70 90 l 1,6,-1
 70 80 l 1,7,-1
 80 80 l 1,8,-1
 80 60 l 1,9,-1
 70 60 l 1,10,-1
 70 50 l 1,11,-1
 20 50 l 1,12,-1
 20 70 l 1,13,-1
 60 70 l 1,14,-1
 60 80 l 1,15,-1
 30 80 l 1,16,-1
 30 90 l 1,17,-1
 60 90 l 1,18,-1
 60 100 l 1,19,-1
 20 100 l 1,0,-1
110 60 m 1,20,-1
 110 80 l 1,21,-1
 140 80 l 1,22,-1
 140 50 l 1,23,-1
 150 50 l 1,24,-1
 150 60 l 1,25,-1
 160 60 l 1,26,-1
 160 90 l 1,27,-1
 170 90 l 1,28,-1
 170 120 l 1,29,-1
 210 120 l 1,30,-1
 210 100 l 1,31,-1
 190 100 l 1,32,-1
 190 80 l 1,33,-1
 180 80 l 1,34,-1
 180 50 l 1,35,-1
 170 50 l 1,36,-1
 170 20 l 1,37,-1
 160 20 l 1,38,-1
 160 0 l 1,39,-1
 140 0 l 1,40,-1
 140 20 l 1,41,-1
 130 20 l 1,42,-1
 130 40 l 1,43,-1
 120 40 l 1,44,-1
 120 60 l 1,45,-1
 110 60 l 1,20,-1
EndSplineSet
EndChar

StartChar: angle
Encoding: 8736 8736 239
Width: 110
GlyphClass: 1
Flags: W
LayerCount: 2
Fore
SplineSet
0 0 m 1,0,-1
 0 20 l 1,1,-1
 10 20 l 1,2,-1
 10 30 l 1,3,-1
 20 30 l 1,4,-1
 20 40 l 1,5,-1
 30 40 l 1,6,-1
 30 50 l 1,7,-1
 40 50 l 1,8,-1
 40 60 l 1,9,-1
 50 60 l 1,10,-1
 50 70 l 1,11,-1
 60 70 l 1,12,-1
 60 80 l 1,13,-1
 70 80 l 1,14,-1
 70 90 l 1,15,-1
 80 90 l 1,16,-1
 80 100 l 1,17,-1
 90 100 l 1,18,-1
 90 90 l 1,19,-1
 100 90 l 1,20,-1
 100 80 l 1,21,-1
 90 80 l 1,22,-1
 90 70 l 1,23,-1
 80 70 l 1,24,-1
 80 60 l 1,25,-1
 70 60 l 1,26,-1
 70 50 l 1,27,-1
 60 50 l 1,28,-1
 60 40 l 1,29,-1
 50 40 l 1,30,-1
 50 30 l 1,31,-1
 40 30 l 1,32,-1
 40 20 l 1,33,-1
 100 20 l 1,34,-1
 100 0 l 1,35,-1
 0 0 l 1,0,-1
EndSplineSet
EndChar

StartChar: integral
Encoding: 8747 8747 240
Width: 110
GlyphClass: 1
Flags: W
LayerCount: 2
Fore
SplineSet
10 0 m 1,0,-1
 10 20 l 1,1,-1
 30 20 l 1,2,-1
 30 10 l 1,3,-1
 40 10 l 1,4,-1
 40 60 l 1,5,-1
 50 60 l 1,6,-1
 50 110 l 1,7,-1
 60 110 l 1,8,-1
 60 120 l 1,9,-1
 90 120 l 1,10,-1
 90 110 l 1,11,-1
 100 110 l 1,12,-1
 100 90 l 1,13,-1
 80 90 l 1,14,-1
 80 100 l 1,15,-1
 70 100 l 1,16,-1
 70 50 l 1,17,-1
 60 50 l 1,18,-1
 60 0 l 1,19,-1
 50 0 l 1,20,-1
 50 -10 l 1,21,-1
 20 -10 l 1,22,-1
 20 0 l 1,23,-1
 10 0 l 1,0,-1
EndSplineSet
EndChar

StartChar: notequal
Encoding: 8800 8800 241
Width: 110
GlyphClass: 1
Flags: W
LayerCount: 2
Fore
SplineSet
0 30 m 1,0,-1
 0 50 l 1,1,-1
 40 50 l 1,2,-1
 40 70 l 1,3,-1
 0 70 l 1,4,-1
 0 90 l 1,5,-1
 50 90 l 1,6,-1
 50 120 l 1,7,-1
 70 120 l 1,8,-1
 70 90 l 1,9,-1
 100 90 l 1,10,-1
 100 70 l 1,11,-1
 60 70 l 1,12,-1
 60 50 l 1,13,-1
 100 50 l 1,14,-1
 100 30 l 1,15,-1
 50 30 l 1,16,-1
 50 0 l 1,17,-1
 30 0 l 1,18,-1
 30 30 l 1,19,-1
 0 30 l 1,0,-1
EndSplineSet
EndChar

StartChar: lessequal
Encoding: 8804 8804 242
Width: 110
GlyphClass: 1
Flags: W
LayerCount: 2
Fore
SplineSet
100 30 m 1,0,-1
 72 30 l 1,1,-1
 72 40 l 1,2,-1
 50 40 l 1,3,-1
 50 50 l 1,4,-1
 30 50 l 1,5,-1
 30 60 l 1,6,-1
 10 60 l 1,7,-1
 10 90 l 1,8,-1
 30 90 l 1,9,-1
 30 100 l 1,10,-1
 50 100 l 1,11,-1
 50 110 l 1,12,-1
 70 110 l 1,13,-1
 70 120 l 1,14,-1
 100 120 l 1,15,-1
 100 100 l 1,16,-1
 80 100 l 1,17,-1
 80 90 l 1,18,-1
 60 90 l 1,19,-1
 60 80 l 1,20,-1
 40 80 l 1,21,-1
 40 70 l 1,22,-1
 60 70 l 1,23,-1
 60 60 l 1,24,-1
 80 60 l 1,25,-1
 80 50 l 1,26,-1
 100 50 l 1,27,-1
 100 30 l 1,0,-1
10 0 m 1,28,-1
 10 20 l 1,29,-1
 100 20 l 1,30,-1
 100 0 l 1,31,-1
 10 0 l 1,28,-1
EndSplineSet
EndChar

StartChar: greaterequal
Encoding: 8805 8805 243
Width: 110
GlyphClass: 1
Flags: W
LayerCount: 2
Fore
SplineSet
10 30 m 1,0,-1
 10 50 l 1,1,-1
 30 50 l 1,2,-1
 30 60 l 1,3,-1
 50 60 l 1,4,-1
 50 70 l 1,5,-1
 70 70 l 1,6,-1
 70 80 l 1,7,-1
 50 80 l 1,8,-1
 50 90 l 1,9,-1
 30 90 l 1,10,-1
 30 100 l 1,11,-1
 10 100 l 1,12,-1
 10 120 l 1,13,-1
 40 120 l 1,14,-1
 40 110 l 1,15,-1
 60 110 l 1,16,-1
 60 100 l 1,17,-1
 80 100 l 1,18,-1
 80 90 l 1,19,-1
 100 90 l 1,20,-1
 100 60 l 1,21,-1
 80 60 l 1,22,-1
 80 50 l 1,23,-1
 60 50 l 1,24,-1
 60 40 l 1,25,-1
 38 40 l 1,26,-1
 38 30 l 1,27,-1
 10 30 l 1,0,-1
100 0 m 1,28,-1
 10 0 l 1,29,-1
 10 20 l 1,30,-1
 100 20 l 1,31,-1
 100 0 l 1,28,-1
EndSplineSet
EndChar

StartChar: dotmath
Encoding: 8901 8901 244
Width: 110
GlyphClass: 1
Flags: W
LayerCount: 2
Fore
SplineSet
40 70 m 1,0,-1
 40 80 l 1,1,-1
 60 80 l 1,2,-1
 60 70 l 1,3,-1
 70 70 l 1,4,-1
 70 50 l 1,5,-1
 60 50 l 1,6,-1
 60 40 l 1,7,-1
 40 40 l 1,8,-1
 40 50 l 1,9,-1
 30 50 l 1,10,-1
 30 70 l 1,11,-1
 40 70 l 1,0,-1
EndSplineSet
EndChar

StartChar: shade
Encoding: 9618 9618 245
Width: 110
GlyphClass: 1
Flags: W
LayerCount: 2
Fore
SplineSet
20 20 m 1,0,-1
 30 20 l 1,1,-1
 30 30 l 1,2,-1
 20 30 l 1,3,-1
 20 40 l 1,4,-1
 30 40 l 1,5,-1
 30 50 l 1,6,-1
 20 50 l 1,7,-1
 20 60 l 1,8,-1
 30 60 l 1,9,-1
 30 70 l 1,10,-1
 20 70 l 1,11,-1
 20 80 l 1,12,-1
 30 80 l 1,13,-1
 30 90 l 1,14,-1
 20 90 l 1,15,-1
 20 100 l 1,16,-1
 30 100 l 1,17,-1
 30 90 l 1,18,-1
 40 90 l 1,19,-1
 40 100 l 1,20,-1
 50 100 l 1,21,-1
 50 90 l 1,22,-1
 60 90 l 1,23,-1
 60 100 l 1,24,-1
 70 100 l 1,25,-1
 70 90 l 1,26,-1
 80 90 l 1,27,-1
 80 80 l 1,28,-1
 70 80 l 1,29,-1
 70 90 l 1,30,-1
 60 90 l 1,31,-1
 60 80 l 1,32,-1
 70 80 l 1,33,-1
 70 70 l 1,34,-1
 80 70 l 1,35,-1
 80 60 l 1,36,-1
 70 60 l 1,37,-1
 70 50 l 1,38,-1
 80 50 l 1,39,-1
 80 40 l 1,40,-1
 70 40 l 1,41,-1
 70 30 l 1,42,-1
 80 30 l 1,43,-1
 80 20 l 1,44,-1
 90 20 l 1,45,-1
 90 30 l 1,46,-1
 80 30 l 1,47,-1
 80 40 l 1,48,-1
 90 40 l 1,49,-1
 90 50 l 1,50,-1
 80 50 l 1,51,-1
 80 60 l 1,52,-1
 90 60 l 1,53,-1
 90 70 l 1,54,-1
 80 70 l 1,55,-1
 80 80 l 1,56,-1
 90 80 l 1,57,-1
 90 90 l 1,58,-1
 80 90 l 1,59,-1
 80 100 l 1,60,-1
 70 100 l 1,61,-1
 70 110 l 1,62,-1
 60 110 l 1,63,-1
 60 100 l 1,64,-1
 50 100 l 1,65,-1
 50 110 l 1,66,-1
 40 110 l 1,67,-1
 40 100 l 1,68,-1
 30 100 l 1,69,-1
 30 110 l 1,70,-1
 20 110 l 1,71,-1
 20 100 l 1,72,-1
 10 100 l 1,73,-1
 10 90 l 1,74,-1
 20 90 l 1,75,-1
 20 80 l 1,76,-1
 10 80 l 1,77,-1
 10 70 l 1,78,-1
 20 70 l 1,79,-1
 20 60 l 1,80,-1
 10 60 l 1,81,-1
 10 50 l 1,82,-1
 20 50 l 1,83,-1
 20 40 l 1,84,-1
 10 40 l 1,85,-1
 10 30 l 1,86,-1
 20 30 l 1,87,-1
 20 20 l 1,88,-1
 10 20 l 1,89,-1
 10 10 l 1,90,-1
 20 10 l 1,91,-1
 20 0 l 1,92,-1
 30 0 l 1,93,-1
 30 10 l 1,94,-1
 40 10 l 1,95,-1
 40 0 l 1,96,-1
 50 0 l 1,97,-1
 50 10 l 1,98,-1
 60 10 l 1,99,-1
 60 0 l 1,100,-1
 70 0 l 1,101,-1
 70 10 l 1,102,-1
 80 10 l 1,103,-1
 80 0 l 1,104,-1
 90 0 l 1,105,-1
 90 -10 l 1,106,-1
 80 -10 l 1,107,-1
 80 0 l 1,108,-1
 70 0 l 1,109,-1
 70 -10 l 1,110,-1
 60 -10 l 1,111,-1
 60 0 l 1,112,-1
 50 0 l 1,113,-1
 50 -10 l 1,114,-1
 40 -10 l 1,115,-1
 40 0 l 1,116,-1
 30 0 l 1,117,-1
 30 -10 l 1,118,-1
 20 -10 l 1,119,-1
 20 0 l 1,120,-1
 10 0 l 1,121,-1
 10 -10 l 1,122,-1
 0 -10 l 1,123,-1
 0 0 l 1,124,-1
 10 0 l 1,125,-1
 10 10 l 1,126,-1
 0 10 l 1,127,-1
 0 20 l 1,128,-1
 10 20 l 1,129,-1
 10 30 l 1,130,-1
 0 30 l 1,131,-1
 0 40 l 1,132,-1
 10 40 l 1,133,-1
 10 50 l 1,134,-1
 0 50 l 1,135,-1
 0 60 l 1,136,-1
 10 60 l 1,137,-1
 10 70 l 1,138,-1
 0 70 l 1,139,-1
 0 80 l 1,140,-1
 10 80 l 1,141,-1
 10 90 l 1,142,-1
 0 90 l 1,143,-1
 0 100 l 1,144,-1
 10 100 l 1,145,-1
 10 110 l 1,146,-1
 0 110 l 1,147,-1
 0 120 l 1,148,-1
 10 120 l 1,149,-1
 10 110 l 1,150,-1
 20 110 l 1,151,-1
 20 120 l 1,152,-1
 30 120 l 1,153,-1
 30 110 l 1,154,-1
 40 110 l 1,155,-1
 40 120 l 1,156,-1
 50 120 l 1,157,-1
 50 110 l 1,158,-1
 60 110 l 1,159,-1
 60 120 l 1,160,-1
 70 120 l 1,161,-1
 70 110 l 1,162,-1
 80 110 l 1,163,-1
 80 120 l 1,164,-1
 90 120 l 1,165,-1
 90 110 l 1,166,-1
 100 110 l 1,167,-1
 100 100 l 1,168,-1
 90 100 l 1,169,-1
 90 110 l 1,170,-1
 80 110 l 1,171,-1
 80 100 l 1,172,-1
 90 100 l 1,173,-1
 90 90 l 1,174,-1
 100 90 l 1,175,-1
 100 80 l 1,176,-1
 90 80 l 1,177,-1
 90 70 l 1,178,-1
 100 70 l 1,179,-1
 100 60 l 1,180,-1
 90 60 l 1,181,-1
 90 50 l 1,182,-1
 100 50 l 1,183,-1
 100 40 l 1,184,-1
 90 40 l 1,185,-1
 90 30 l 1,186,-1
 100 30 l 1,187,-1
 100 20 l 1,188,-1
 90 20 l 1,189,-1
 90 10 l 1,190,-1
 100 10 l 1,191,-1
 100 0 l 1,192,-1
 90 0 l 1,193,-1
 90 10 l 1,194,-1
 80 10 l 1,195,-1
 80 20 l 1,196,-1
 70 20 l 1,197,-1
 70 30 l 1,198,-1
 60 30 l 1,199,-1
 60 40 l 1,200,-1
 70 40 l 1,201,-1
 70 50 l 1,202,-1
 60 50 l 1,203,-1
 60 60 l 1,204,-1
 70 60 l 1,205,-1
 70 70 l 1,206,-1
 60 70 l 1,207,-1
 60 80 l 1,208,-1
 50 80 l 1,209,-1
 50 90 l 1,210,-1
 40 90 l 1,211,-1
 40 80 l 1,212,-1
 30 80 l 1,213,-1
 30 70 l 1,214,-1
 40 70 l 1,215,-1
 40 60 l 1,216,-1
 30 60 l 1,217,-1
 30 50 l 1,218,-1
 40 50 l 1,219,-1
 40 40 l 1,220,-1
 30 40 l 1,221,-1
 30 30 l 1,222,-1
 40 30 l 1,223,-1
 40 20 l 1,224,-1
 50 20 l 1,225,-1
 50 30 l 1,226,-1
 60 30 l 1,227,-1
 60 20 l 1,228,-1
 70 20 l 1,229,-1
 70 10 l 1,230,-1
 60 10 l 1,231,-1
 60 20 l 1,232,-1
 50 20 l 1,233,-1
 50 10 l 1,234,-1
 40 10 l 1,235,-1
 40 20 l 1,236,-1
 30 20 l 1,237,-1
 30 10 l 1,238,-1
 20 10 l 1,239,-1
 20 20 l 1,0,-1
50 70 m 1,240,-1
 40 70 l 1,241,-1
 40 80 l 1,242,-1
 50 80 l 1,243,-1
 50 70 l 1,244,-1
 60 70 l 1,245,-1
 60 60 l 1,246,-1
 50 60 l 1,247,-1
 50 50 l 1,248,-1
 60 50 l 1,249,-1
 60 40 l 1,250,-1
 50 40 l 1,251,-1
 50 30 l 1,252,-1
 40 30 l 1,253,-1
 40 40 l 1,254,-1
 50 40 l 1,255,-1
 50 50 l 1,256,-1
 40 50 l 1,257,-1
 40 60 l 1,258,-1
 50 60 l 1,259,-1
 50 70 l 1,240,-1
EndSplineSet
EndChar

StartChar: triagup
Encoding: 9650 9650 246
Width: 110
GlyphClass: 1
Flags: W
LayerCount: 2
Fore
SplineSet
20 40 m 1,0,-1
 20 60 l 1,1,-1
 30 60 l 1,2,-1
 30 80 l 1,3,-1
 40 80 l 1,4,-1
 40 100 l 1,5,-1
 60 100 l 1,6,-1
 60 80 l 1,7,-1
 70 80 l 1,8,-1
 70 60 l 1,9,-1
 80 60 l 1,10,-1
 80 40 l 1,11,-1
 90 40 l 1,12,-1
 90 20 l 1,13,-1
 10 20 l 1,14,-1
 10 40 l 1,15,-1
 20 40 l 1,0,-1
EndSplineSet
EndChar

StartChar: trianglerightblack
Encoding: 9654 9654 247
Width: 110
GlyphClass: 1
Flags: W
LayerCount: 2
Fore
SplineSet
30 30 m 1,0,-1
 30 20 l 1,1,-1
 10 20 l 1,2,-1
 10 90 l 1,3,-1
 30 90 l 1,4,-1
 30 80 l 1,5,-1
 50 80 l 1,6,-1
 50 70 l 1,7,-1
 70 70 l 1,8,-1
 70 60 l 1,9,-1
 90 60 l 1,10,-1
 90 50 l 1,11,-1
 70 50 l 1,12,-1
 70 40 l 1,13,-1
 50 40 l 1,14,-1
 50 30 l 1,15,-1
 30 30 l 1,0,-1
EndSplineSet
Substitution2: "Single Substitution lookup 9 subtable" to
Substitution2: "'ss01' Style Set 1 lookup 5 subtable" triangle.right-above
Substitution2: "'aalt' Access All Alternates lookup 0 subtable" triangle.right-above
EndChar

StartChar: trianglerightwhite
Encoding: 9655 9655 248
Width: 110
GlyphClass: 1
Flags: W
LayerCount: 2
Fore
SplineSet
50 60 m 1,0,-1
 50 70 l 1,1,-1
 30 70 l 1,2,-1
 30 80 l 1,3,-1
 20 80 l 1,4,-1
 20 30 l 1,5,-1
 30 30 l 1,6,-1
 30 20 l 1,7,-1
 10 20 l 1,8,-1
 10 90 l 1,9,-1
 30 90 l 1,10,-1
 30 80 l 1,11,-1
 50 80 l 1,12,-1
 50 70 l 1,13,-1
 70 70 l 1,14,-1
 70 60 l 1,15,-1
 90 60 l 1,16,-1
 90 50 l 1,17,-1
 70 50 l 1,18,-1
 70 40 l 1,19,-1
 50 40 l 1,20,-1
 50 30 l 1,21,-1
 30 30 l 1,22,-1
 30 40 l 1,23,-1
 50 40 l 1,24,-1
 50 50 l 1,25,-1
 70 50 l 1,26,-1
 70 60 l 1,27,-1
 50 60 l 1,0,-1
EndSplineSet
Substitution2: "'ss01' Style Set 1 lookup 5 subtable" uniE032
Substitution2: "'aalt' Access All Alternates lookup 0 subtable" uniE032
EndChar

StartChar: trianglerightsmallblack
Encoding: 9656 9656 249
Width: 110
GlyphClass: 1
Flags: W
LayerCount: 2
Fore
SplineSet
30 20 m 1,0,-1
 30 80 l 1,1,-1
 50 80 l 1,2,-1
 50 70 l 1,3,-1
 70 70 l 1,4,-1
 70 60 l 1,5,-1
 90 60 l 1,6,-1
 90 40 l 1,7,-1
 70 40 l 1,8,-1
 70 30 l 1,9,-1
 50 30 l 1,10,-1
 50 20 l 1,11,-1
 30 20 l 1,0,-1
EndSplineSet
EndChar

StartChar: triagdn
Encoding: 9660 9660 250
Width: 110
GlyphClass: 1
Flags: W
LayerCount: 2
Fore
SplineSet
20 80 m 1,0,-1
 10 80 l 1,1,-1
 10 100 l 1,2,-1
 90 100 l 1,3,-1
 90 80 l 1,4,-1
 80 80 l 1,5,-1
 80 60 l 1,6,-1
 70 60 l 1,7,-1
 70 40 l 1,8,-1
 60 40 l 1,9,-1
 60 20 l 1,10,-1
 40 20 l 1,11,-1
 40 40 l 1,12,-1
 30 40 l 1,13,-1
 30 60 l 1,14,-1
 20 60 l 1,15,-1
 20 80 l 1,0,-1
EndSplineSet
EndChar

StartChar: triangleleftblack
Encoding: 9664 9664 251
Width: 110
GlyphClass: 1
Flags: W
LayerCount: 2
Fore
SplineSet
70 30 m 1,0,-1
 50 30 l 1,1,-1
 50 40 l 1,2,-1
 30 40 l 1,3,-1
 30 50 l 1,4,-1
 10 50 l 1,5,-1
 10 60 l 1,6,-1
 30 60 l 1,7,-1
 30 70 l 1,8,-1
 50 70 l 1,9,-1
 50 80 l 1,10,-1
 70 80 l 1,11,-1
 70 90 l 1,12,-1
 90 90 l 1,13,-1
 90 20 l 1,14,-1
 70 20 l 1,15,-1
 70 30 l 1,0,-1
EndSplineSet
Substitution2: "'ss01' Style Set 1 lookup 5 subtable" triangle.left-below
Substitution2: "'aalt' Access All Alternates lookup 0 subtable" triangle.left-below
EndChar

StartChar: triangleleftwhite
Encoding: 9665 9665 252
Width: 110
GlyphClass: 1
Flags: W
LayerCount: 2
Fore
SplineSet
70 30 m 1,0,-1
 50 30 l 1,1,-1
 50 40 l 1,2,-1
 30 40 l 1,3,-1
 30 50 l 1,4,-1
 10 50 l 1,5,-1
 10 60 l 1,6,-1
 30 60 l 1,7,-1
 30 70 l 1,8,-1
 50 70 l 1,9,-1
 50 80 l 1,10,-1
 70 80 l 1,11,-1
 70 90 l 1,12,-1
 90 90 l 1,13,-1
 90 20 l 1,14,-1
 70 20 l 1,15,-1
 70 30 l 1,0,-1
50 60 m 1,16,-1
 30 60 l 1,17,-1
 30 50 l 1,18,-1
 50 50 l 1,19,-1
 50 40 l 1,20,-1
 70 40 l 1,21,-1
 70 30 l 1,22,-1
 80 30 l 1,23,-1
 80 80 l 1,24,-1
 70 80 l 1,25,-1
 70 70 l 1,26,-1
 50 70 l 1,27,-1
 50 60 l 1,16,-1
EndSplineSet
Substitution2: "'ss01' Style Set 1 lookup 5 subtable" uniE033
Substitution2: "'aalt' Access All Alternates lookup 0 subtable" uniE033
EndChar

StartChar: plancktwopi
Encoding: 8463 8463 253
Width: 110
GlyphClass: 1
Flags: W
LayerCount: 2
Fore
SplineSet
0 80 m 1,0,-1
 0 100 l 1,1,-1
 10 100 l 1,2,-1
 10 120 l 1,3,-1
 30 120 l 1,4,-1
 30 110 l 1,5,-1
 50 110 l 1,6,-1
 50 120 l 1,7,-1
 80 120 l 1,8,-1
 80 100 l 1,9,-1
 60 100 l 1,10,-1
 60 90 l 1,11,-1
 30 90 l 1,12,-1
 30 70 l 1,13,-1
 40 70 l 1,14,-1
 40 80 l 1,15,-1
 80 80 l 1,16,-1
 80 70 l 1,17,-1
 90 70 l 1,18,-1
 90 0 l 1,19,-1
 70 0 l 1,20,-1
 70 60 l 1,21,-1
 40 60 l 1,22,-1
 40 50 l 1,23,-1
 30 50 l 1,24,-1
 30 0 l 1,25,-1
 10 0 l 1,26,-1
 10 80 l 1,27,-1
 0 80 l 1,0,-1
EndSplineSet
EndChar

StartChar: circle
Encoding: 9675 9675 254
Width: 110
GlyphClass: 1
Flags: W
LayerCount: 2
Fore
SplineSet
70 100 m 1,0,-1
 70 90 l 1,1,-1
 30 90 l 1,2,-1
 30 100 l 1,3,-1
 70 100 l 1,0,-1
90 90 m 1,4,-1
 90 70 l 1,5,-1
 80 70 l 1,6,-1
 80 80 l 1,7,-1
 70 80 l 1,8,-1
 70 90 l 1,9,-1
 90 90 l 1,4,-1
10 70 m 1,10,-1
 10 90 l 1,11,-1
 30 90 l 1,12,-1
 30 80 l 1,13,-1
 20 80 l 1,14,-1
 20 70 l 1,15,-1
 10 70 l 1,10,-1
90 30 m 1,16,-1
 90 70 l 1,17,-1
 100 70 l 1,18,-1
 100 30 l 1,19,-1
 90 30 l 1,16,-1
0 30 m 1,20,-1
 0 70 l 1,21,-1
 10 70 l 1,22,-1
 10 30 l 1,23,-1
 0 30 l 1,20,-1
10 10 m 1,24,-1
 10 30 l 1,25,-1
 20 30 l 1,26,-1
 20 20 l 1,27,-1
 30 20 l 1,28,-1
 30 10 l 1,29,-1
 10 10 l 1,24,-1
70 10 m 1,30,-1
 70 20 l 1,31,-1
 80 20 l 1,32,-1
 80 30 l 1,33,-1
 90 30 l 1,34,-1
 90 10 l 1,35,-1
 70 10 l 1,30,-1
30 0 m 1,36,-1
 30 10 l 1,37,-1
 70 10 l 1,38,-1
 70 0 l 1,39,-1
 30 0 l 1,36,-1
EndSplineSet
EndChar

StartChar: fisheye
Encoding: 9673 9673 255
Width: 110
GlyphClass: 1
Flags: W
LayerCount: 2
Fore
SplineSet
70 100 m 1,0,-1
 70 90 l 1,1,-1
 30 90 l 1,2,-1
 30 100 l 1,3,-1
 70 100 l 1,0,-1
90 90 m 1,4,-1
 90 70 l 1,5,-1
 80 70 l 1,6,-1
 80 80 l 1,7,-1
 70 80 l 1,8,-1
 70 90 l 1,9,-1
 90 90 l 1,4,-1
10 70 m 1,10,-1
 10 90 l 1,11,-1
 30 90 l 1,12,-1
 30 80 l 1,13,-1
 20 80 l 1,14,-1
 20 70 l 1,15,-1
 10 70 l 1,10,-1
20 40 m 1,16,-1
 20 60 l 1,17,-1
 30 60 l 1,18,-1
 30 70 l 1,19,-1
 40 70 l 1,20,-1
 40 80 l 1,21,-1
 60 80 l 1,22,-1
 60 70 l 1,23,-1
 70 70 l 1,24,-1
 70 60 l 1,25,-1
 80 60 l 1,26,-1
 80 40 l 1,27,-1
 70 40 l 1,28,-1
 70 30 l 1,29,-1
 60 30 l 1,30,-1
 60 20 l 1,31,-1
 40 20 l 1,32,-1
 40 30 l 1,33,-1
 30 30 l 1,34,-1
 30 40 l 1,35,-1
 20 40 l 1,16,-1
90 30 m 1,36,-1
 90 70 l 1,37,-1
 100 70 l 1,38,-1
 100 30 l 1,39,-1
 90 30 l 1,36,-1
0 30 m 1,40,-1
 0 70 l 1,41,-1
 10 70 l 1,42,-1
 10 30 l 1,43,-1
 0 30 l 1,40,-1
10 10 m 1,44,-1
 10 30 l 1,45,-1
 20 30 l 1,46,-1
 20 20 l 1,47,-1
 30 20 l 1,48,-1
 30 10 l 1,49,-1
 10 10 l 1,44,-1
70 10 m 1,50,-1
 70 20 l 1,51,-1
 80 20 l 1,52,-1
 80 30 l 1,53,-1
 90 30 l 1,54,-1
 90 10 l 1,55,-1
 70 10 l 1,50,-1
30 0 m 1,56,-1
 30 10 l 1,57,-1
 70 10 l 1,58,-1
 70 0 l 1,59,-1
 30 0 l 1,56,-1
EndSplineSet
EndChar

StartChar: noentry
Encoding: 9940 9940 256
Width: 110
GlyphClass: 1
Flags: W
LayerCount: 2
Fore
SplineSet
90 70 m 1,0,-1
 100 70 l 1,1,-1
 100 30 l 1,2,-1
 90 30 l 1,3,-1
 90 10 l 1,4,-1
 70 10 l 1,5,-1
 70 0 l 1,6,-1
 30 0 l 1,7,-1
 30 10 l 1,8,-1
 10 10 l 1,9,-1
 10 30 l 1,10,-1
 0 30 l 1,11,-1
 0 70 l 1,12,-1
 10 70 l 1,13,-1
 10 90 l 1,14,-1
 30 90 l 1,15,-1
 30 100 l 1,16,-1
 70 100 l 1,17,-1
 70 90 l 1,18,-1
 90 90 l 1,19,-1
 90 70 l 1,0,-1
80 60 m 1,20,-1
 20 60 l 1,21,-1
 20 40 l 1,22,-1
 80 40 l 1,23,-1
 80 60 l 1,20,-1
EndSplineSet
Substitution2: "'ss01' Style Set 1 lookup 5 subtable" execute-tag
Substitution2: "'aalt' Access All Alternates lookup 0 subtable" execute-tag
EndChar

StartChar: dietwo
Encoding: 9857 9857 257
Width: 110
GlyphClass: 1
Flags: W
LayerCount: 2
Fore
SplineSet
80 100 m 1,0,-1
 80 90 l 1,1,-1
 10 90 l 1,2,-1
 10 100 l 1,3,-1
 80 100 l 1,0,-1
0 20 m 1,4,-1
 0 90 l 1,5,-1
 10 90 l 1,6,-1
 10 20 l 1,7,-1
 0 20 l 1,4,-1
90 90 m 1,8,-1
 90 20 l 1,9,-1
 80 20 l 1,10,-1
 80 90 l 1,11,-1
 90 90 l 1,8,-1
20 60 m 1,12,-1
 20 80 l 1,13,-1
 40 80 l 1,14,-1
 40 60 l 1,15,-1
 20 60 l 1,12,-1
50 30 m 1,16,-1
 50 50 l 1,17,-1
 70 50 l 1,18,-1
 70 30 l 1,19,-1
 50 30 l 1,16,-1
10 10 m 1,20,-1
 10 20 l 1,21,-1
 80 20 l 1,22,-1
 80 10 l 1,23,-1
 10 10 l 1,20,-1
EndSplineSet
EndChar

StartChar: triangle.left-below
Encoding: 57390 57390 258
Width: 110
GlyphClass: 1
Flags: W
LayerCount: 2
Fore
SplineSet
10 20 m 1,0,-1
 10 30 l 1,1,-1
 30 30 l 1,2,-1
 30 40 l 1,3,-1
 60 40 l 1,4,-1
 60 50 l 1,5,-1
 90 50 l 1,6,-1
 90 0 l 1,7,-1
 60 0 l 1,8,-1
 60 10 l 1,9,-1
 30 10 l 1,10,-1
 30 20 l 1,11,-1
 10 20 l 1,0,-1
EndSplineSet
EndChar

StartChar: triangle.right-above
Encoding: 57391 57391 259
Width: 110
GlyphClass: 1
Flags: W
LayerCount: 2
Fore
SplineSet
100 90 m 1,0,-1
 80 90 l 1,1,-1
 80 80 l 1,2,-1
 50 80 l 1,3,-1
 50 70 l 1,4,-1
 20 70 l 1,5,-1
 20 120 l 1,6,-1
 50 120 l 1,7,-1
 50 110 l 1,8,-1
 80 110 l 1,9,-1
 80 100 l 1,10,-1
 100 100 l 1,11,-1
 100 90 l 1,0,-1
EndSplineSet
EndChar

StartChar: triangle.left.right
Encoding: 57392 57392 260
Width: 110
GlyphClass: 1
Flags: W
LayerCount: 2
Fore
SplineSet
100 90 m 1,0,-1
 80 90 l 1,1,-1
 80 80 l 1,2,-1
 50 80 l 1,3,-1
 50 70 l 1,4,-1
 20 70 l 1,5,-1
 20 120 l 1,6,-1
 50 120 l 1,7,-1
 50 110 l 1,8,-1
 80 110 l 1,9,-1
 80 100 l 1,10,-1
 100 100 l 1,11,-1
 100 90 l 1,0,-1
10 20 m 1,12,-1
 10 30 l 1,13,-1
 30 30 l 1,14,-1
 30 40 l 1,15,-1
 60 40 l 1,16,-1
 60 50 l 1,17,-1
 90 50 l 1,18,-1
 90 0 l 1,19,-1
 60 0 l 1,20,-1
 60 10 l 1,21,-1
 30 10 l 1,22,-1
 30 20 l 1,23,-1
 10 20 l 1,12,-1
EndSplineSet
Ligature2: "'calt' Contextual Alternates lookup 7 subtable" trianglerightblack triangleleftblack
EndChar

StartChar: triangle.up.down
Encoding: 57393 57393 261
Width: 110
GlyphClass: 1
Flags: W
LayerCount: 2
Fore
SplineSet
20 90 m 1,0,-1
 20 100 l 1,1,-1
 30 100 l 1,2,-1
 30 110 l 1,3,-1
 40 110 l 1,4,-1
 40 120 l 1,5,-1
 60 120 l 1,6,-1
 60 110 l 1,7,-1
 70 110 l 1,8,-1
 70 100 l 1,9,-1
 80 100 l 1,10,-1
 80 90 l 1,11,-1
 90 90 l 1,12,-1
 90 80 l 1,13,-1
 100 80 l 1,14,-1
 100 70 l 1,15,-1
 0 70 l 1,16,-1
 0 80 l 1,17,-1
 10 80 l 1,18,-1
 10 90 l 1,19,-1
 20 90 l 1,0,-1
20 20 m 1,20,-1
 10 20 l 1,21,-1
 10 30 l 1,22,-1
 0 30 l 1,23,-1
 0 40 l 1,24,-1
 100 40 l 1,25,-1
 100 30 l 1,26,-1
 90 30 l 1,27,-1
 90 20 l 1,28,-1
 80 20 l 1,29,-1
 80 10 l 1,30,-1
 70 10 l 1,31,-1
 70 0 l 1,32,-1
 60 0 l 1,33,-1
 60 -10 l 1,34,-1
 40 -10 l 1,35,-1
 40 0 l 1,36,-1
 30 0 l 1,37,-1
 30 10 l 1,38,-1
 20 10 l 1,39,-1
 20 20 l 1,20,-1
EndSplineSet
Ligature2: "'calt' Contextual Alternates lookup 7 subtable" triagup triagdn
EndChar

StartChar: uniE032
Encoding: 57394 57394 262
Width: 110
GlyphClass: 1
Flags: W
LayerCount: 2
Fore
SplineSet
10 80 m 1,0,-1
 10 90 l 1,1,-1
 20 90 l 1,2,-1
 20 80 l 1,3,-1
 30 80 l 1,4,-1
 30 70 l 1,5,-1
 40 70 l 1,6,-1
 40 60 l 1,7,-1
 50 60 l 1,8,-1
 50 50 l 1,9,-1
 60 50 l 1,10,-1
 60 40 l 1,11,-1
 50 40 l 1,12,-1
 50 50 l 1,13,-1
 40 50 l 1,14,-1
 40 60 l 1,15,-1
 30 60 l 1,16,-1
 30 70 l 1,17,-1
 20 70 l 1,18,-1
 20 80 l 1,19,-1
 10 80 l 1,0,-1
40 70 m 1,20,-1
 40 80 l 1,21,-1
 50 80 l 1,22,-1
 50 70 l 1,23,-1
 60 70 l 1,24,-1
 60 60 l 1,25,-1
 70 60 l 1,26,-1
 70 50 l 1,27,-1
 80 50 l 1,28,-1
 80 40 l 1,29,-1
 70 40 l 1,30,-1
 70 50 l 1,31,-1
 60 50 l 1,32,-1
 60 60 l 1,33,-1
 50 60 l 1,34,-1
 50 70 l 1,35,-1
 40 70 l 1,20,-1
20 70 m 1,36,-1
 20 60 l 1,37,-1
 30 60 l 1,38,-1
 30 50 l 1,39,-1
 40 50 l 1,40,-1
 40 40 l 1,41,-1
 50 40 l 1,42,-1
 50 30 l 1,43,-1
 40 30 l 1,44,-1
 40 40 l 1,45,-1
 30 40 l 1,46,-1
 30 50 l 1,47,-1
 20 50 l 1,48,-1
 20 60 l 1,49,-1
 10 60 l 1,50,-1
 10 70 l 1,51,-1
 20 70 l 1,36,-1
70 60 m 1,52,-1
 70 70 l 1,53,-1
 80 70 l 1,54,-1
 80 60 l 1,55,-1
 90 60 l 1,56,-1
 90 50 l 1,57,-1
 80 50 l 1,58,-1
 80 60 l 1,59,-1
 70 60 l 1,52,-1
20 50 m 1,60,-1
 20 40 l 1,61,-1
 30 40 l 1,62,-1
 30 30 l 1,63,-1
 20 30 l 1,64,-1
 20 40 l 1,65,-1
 10 40 l 1,66,-1
 10 50 l 1,67,-1
 20 50 l 1,60,-1
20 30 m 1,68,-1
 20 20 l 1,69,-1
 10 20 l 1,70,-1
 10 30 l 1,71,-1
 20 30 l 1,68,-1
EndSplineSet
EndChar

StartChar: uniE033
Encoding: 57395 57395 263
Width: 110
GlyphClass: 1
Flags: W
LayerCount: 2
Fore
SplineSet
90 80 m 1,0,-1
 80 80 l 1,1,-1
 80 90 l 1,2,-1
 90 90 l 1,3,-1
 90 80 l 1,0,-1
50 70 m 1,4,-1
 50 80 l 1,5,-1
 60 80 l 1,6,-1
 60 70 l 1,7,-1
 50 70 l 1,4,-1
70 70 m 1,8,-1
 70 80 l 1,9,-1
 80 80 l 1,10,-1
 80 70 l 1,11,-1
 70 70 l 1,8,-1
60 70 m 1,12,-1
 70 70 l 1,13,-1
 70 60 l 1,14,-1
 80 60 l 1,15,-1
 80 50 l 1,16,-1
 90 50 l 1,17,-1
 90 40 l 1,18,-1
 80 40 l 1,19,-1
 80 50 l 1,20,-1
 70 50 l 1,21,-1
 70 60 l 1,22,-1
 60 60 l 1,23,-1
 60 70 l 1,12,-1
20 60 m 1,24,-1
 20 70 l 1,25,-1
 30 70 l 1,26,-1
 30 60 l 1,27,-1
 20 60 l 1,24,-1
80 70 m 1,28,-1
 90 70 l 1,29,-1
 90 60 l 1,30,-1
 80 60 l 1,31,-1
 80 70 l 1,28,-1
40 60 m 1,32,-1
 40 70 l 1,33,-1
 50 70 l 1,34,-1
 50 60 l 1,35,-1
 40 60 l 1,32,-1
50 60 m 1,36,-1
 60 60 l 1,37,-1
 60 50 l 1,38,-1
 70 50 l 1,39,-1
 70 40 l 1,40,-1
 80 40 l 1,41,-1
 80 30 l 1,42,-1
 90 30 l 1,43,-1
 90 20 l 1,44,-1
 80 20 l 1,45,-1
 80 30 l 1,46,-1
 70 30 l 1,47,-1
 70 40 l 1,48,-1
 60 40 l 1,49,-1
 60 50 l 1,50,-1
 50 50 l 1,51,-1
 50 60 l 1,36,-1
30 60 m 1,52,-1
 40 60 l 1,53,-1
 40 50 l 1,54,-1
 50 50 l 1,55,-1
 50 40 l 1,56,-1
 60 40 l 1,57,-1
 60 30 l 1,58,-1
 50 30 l 1,59,-1
 50 40 l 1,60,-1
 40 40 l 1,61,-1
 40 50 l 1,62,-1
 30 50 l 1,63,-1
 30 60 l 1,52,-1
20 50 m 1,64,-1
 10 50 l 1,65,-1
 10 60 l 1,66,-1
 20 60 l 1,67,-1
 20 50 l 1,64,-1
30 40 m 1,68,-1
 20 40 l 1,69,-1
 20 50 l 1,70,-1
 30 50 l 1,71,-1
 30 40 l 1,68,-1
EndSplineSet
EndChar

StartChar: coin
Encoding: 57396 57396 264
Width: 110
GlyphClass: 1
Flags: W
LayerCount: 2
Fore
SplineSet
50 80 m 1,0,-1
 40 80 l 1,1,-1
 40 100 l 1,2,-1
 20 100 l 1,3,-1
 20 110 l 1,4,-1
 60 110 l 1,5,-1
 60 100 l 1,6,-1
 50 100 l 1,7,-1
 50 80 l 1,0,-1
10 80 m 1,8,-1
 10 100 l 1,9,-1
 20 100 l 1,10,-1
 20 80 l 1,11,-1
 10 80 l 1,8,-1
70 80 m 1,12,-1
 60 80 l 1,13,-1
 60 100 l 1,14,-1
 70 100 l 1,15,-1
 70 80 l 1,12,-1
0 30 m 1,16,-1
 0 80 l 1,17,-1
 10 80 l 1,18,-1
 10 30 l 1,19,-1
 0 30 l 1,16,-1
60 30 m 1,20,-1
 50 30 l 1,21,-1
 50 80 l 1,22,-1
 60 80 l 1,23,-1
 60 30 l 1,20,-1
80 30 m 1,24,-1
 70 30 l 1,25,-1
 70 80 l 1,26,-1
 80 80 l 1,27,-1
 80 30 l 1,24,-1
10 10 m 1,28,-1
 10 30 l 1,29,-1
 20 30 l 1,30,-1
 20 10 l 1,31,-1
 40 10 l 1,32,-1
 40 30 l 1,33,-1
 50 30 l 1,34,-1
 50 10 l 1,35,-1
 60 10 l 1,36,-1
 60 0 l 1,37,-1
 20 0 l 1,38,-1
 20 10 l 1,39,-1
 10 10 l 1,28,-1
70 10 m 1,40,-1
 60 10 l 1,41,-1
 60 30 l 1,42,-1
 70 30 l 1,43,-1
 70 10 l 1,40,-1
EndSplineSet
EndChar

StartChar: uniE035
Encoding: 57397 57397 265
Width: 110
GlyphClass: 1
Flags: W
LayerCount: 2
Fore
SplineSet
90 40 m 1,0,-1
 60 40 l 1,1,-1
 60 50 l 1,2,-1
 30 50 l 1,3,-1
 30 40 l 1,4,-1
 0 40 l 1,5,-1
 0 70 l 1,6,-1
 30 70 l 1,7,-1
 30 60 l 1,8,-1
 60 60 l 1,9,-1
 60 70 l 1,10,-1
 90 70 l 1,11,-1
 90 40 l 1,0,-1
20 60 m 1,12,-1
 10 60 l 1,13,-1
 10 50 l 1,14,-1
 20 50 l 1,15,-1
 20 60 l 1,12,-1
EndSplineSet
EndChar

StartChar: uniE036
Encoding: 57398 57398 266
Width: 110
GlyphClass: 1
Flags: W
LayerCount: 2
Fore
SplineSet
10 20 m 1,0,-1
 10 30 l 1,1,-1
 20 30 l 1,2,-1
 20 20 l 1,3,-1
 40 20 l 1,4,-1
 40 50 l 1,5,-1
 10 50 l 1,6,-1
 10 30 l 1,7,-1
 0 30 l 1,8,-1
 0 80 l 1,9,-1
 10 80 l 1,10,-1
 10 60 l 1,11,-1
 40 60 l 1,12,-1
 40 90 l 1,13,-1
 20 90 l 1,14,-1
 20 100 l 1,15,-1
 40 100 l 1,16,-1
 40 110 l 1,17,-1
 50 110 l 1,18,-1
 50 100 l 1,19,-1
 70 100 l 1,20,-1
 70 90 l 1,21,-1
 50 90 l 1,22,-1
 50 60 l 1,23,-1
 80 60 l 1,24,-1
 80 80 l 1,25,-1
 90 80 l 1,26,-1
 90 60 l 1,27,-1
 100 60 l 1,28,-1
 100 50 l 1,29,-1
 90 50 l 1,30,-1
 90 30 l 1,31,-1
 80 30 l 1,32,-1
 80 50 l 1,33,-1
 50 50 l 1,34,-1
 50 20 l 1,35,-1
 70 20 l 1,36,-1
 70 10 l 1,37,-1
 20 10 l 1,38,-1
 20 20 l 1,39,-1
 10 20 l 1,0,-1
80 90 m 1,40,-1
 80 80 l 1,41,-1
 70 80 l 1,42,-1
 70 90 l 1,43,-1
 80 90 l 1,40,-1
20 90 m 1,44,-1
 20 80 l 1,45,-1
 10 80 l 1,46,-1
 10 90 l 1,47,-1
 20 90 l 1,44,-1
70 20 m 1,48,-1
 70 30 l 1,49,-1
 80 30 l 1,50,-1
 80 20 l 1,51,-1
 70 20 l 1,48,-1
EndSplineSet
EndChar

StartChar: uniE037
Encoding: 57399 57399 267
Width: 110
GlyphClass: 1
Flags: W
LayerCount: 2
Fore
SplineSet
0 20 m 1,0,-1
 0 50 l 1,1,-1
 10 50 l 1,2,-1
 10 30 l 1,3,-1
 40 30 l 1,4,-1
 40 60 l 1,5,-1
 20 60 l 1,6,-1
 20 70 l 1,7,-1
 40 70 l 1,8,-1
 40 80 l 1,9,-1
 50 80 l 1,10,-1
 50 70 l 1,11,-1
 70 70 l 1,12,-1
 70 60 l 1,13,-1
 50 60 l 1,14,-1
 50 30 l 1,15,-1
 80 30 l 1,16,-1
 80 50 l 1,17,-1
 90 50 l 1,18,-1
 90 30 l 1,19,-1
 100 30 l 1,20,-1
 100 20 l 1,21,-1
 0 20 l 1,0,-1
80 60 m 1,22,-1
 80 50 l 1,23,-1
 70 50 l 1,24,-1
 70 60 l 1,25,-1
 80 60 l 1,22,-1
20 60 m 1,26,-1
 20 50 l 1,27,-1
 10 50 l 1,28,-1
 10 60 l 1,29,-1
 20 60 l 1,26,-1
EndSplineSet
EndChar

StartChar: clockFaceThreeOclock
Encoding: 128338 128338 268
Width: 110
GlyphClass: 1
Flags: W
LayerCount: 2
Fore
SplineSet
70 90 m 1,0,-1
 80 90 l 1,1,-1
 80 80 l 1,2,-1
 90 80 l 1,3,-1
 90 30 l 1,4,-1
 80 30 l 1,5,-1
 80 20 l 1,6,-1
 70 20 l 1,7,-1
 70 30 l 1,8,-1
 80 30 l 1,9,-1
 80 80 l 1,10,-1
 70 80 l 1,11,-1
 70 90 l 1,12,-1
 50 90 l 1,13,-1
 50 60 l 1,14,-1
 70 60 l 1,15,-1
 70 50 l 1,16,-1
 40 50 l 1,17,-1
 40 90 l 1,18,-1
 20 90 l 1,19,-1
 20 80 l 1,20,-1
 10 80 l 1,21,-1
 10 30 l 1,22,-1
 20 30 l 1,23,-1
 20 20 l 1,24,-1
 70 20 l 1,25,-1
 70 10 l 1,26,-1
 20 10 l 1,27,-1
 20 20 l 1,28,-1
 10 20 l 1,29,-1
 10 30 l 1,30,-1
 0 30 l 1,31,-1
 0 80 l 1,32,-1
 10 80 l 1,33,-1
 10 90 l 1,34,-1
 20 90 l 1,35,-1
 20 100 l 1,36,-1
 70 100 l 1,37,-1
 70 90 l 1,0,-1
EndSplineSet
EndChar

StartChar: Eth
Encoding: 208 208 269
Width: 110
GlyphClass: 1
Flags: W
LayerCount: 2
Fore
SplineSet
0 50 m 1,0,-1
 0 70 l 1,1,-1
 10 70 l 1,2,-1
 10 120 l 1,3,-1
 70 120 l 1,4,-1
 70 110 l 1,5,-1
 80 110 l 1,6,-1
 80 100 l 1,7,-1
 90 100 l 1,8,-1
 90 20 l 1,9,-1
 80 20 l 1,10,-1
 80 10 l 1,11,-1
 70 10 l 1,12,-1
 70 0 l 1,13,-1
 10 0 l 1,14,-1
 10 50 l 1,15,-1
 0 50 l 1,0,-1
30 20 m 1,16,-1
 60 20 l 1,17,-1
 60 30 l 1,18,-1
 70 30 l 1,19,-1
 70 90 l 1,20,-1
 60 90 l 1,21,-1
 60 100 l 1,22,-1
 30 100 l 1,23,-1
 30 70 l 1,24,-1
 60 70 l 1,25,-1
 60 50 l 1,26,-1
 30 50 l 1,27,-1
 30 20 l 1,16,-1
EndSplineSet
EndChar

StartChar: Agrave
Encoding: 192 192 270
Width: 110
GlyphClass: 1
Flags: W
LayerCount: 2
Fore
SplineSet
10 0 m 1,0,-1
 10 30 l 1,1,-1
 20 30 l 1,2,-1
 20 60 l 1,3,-1
 30 60 l 1,4,-1
 30 80 l 1,5,-1
 40 80 l 1,6,-1
 40 100 l 1,7,-1
 50 100 l 1,8,-1
 50 110 l 1,9,-1
 30 110 l 1,10,-1
 30 120 l 1,11,-1
 60 120 l 1,12,-1
 60 110 l 1,13,-1
 80 110 l 1,14,-1
 80 100 l 1,15,-1
 70 100 l 1,16,-1
 70 80 l 1,17,-1
 80 80 l 1,18,-1
 80 60 l 1,19,-1
 90 60 l 1,20,-1
 90 30 l 1,21,-1
 100 30 l 1,22,-1
 100 0 l 1,23,-1
 80 0 l 1,24,-1
 80 20 l 1,25,-1
 30 20 l 1,26,-1
 30 0 l 1,27,-1
 10 0 l 1,0,-1
70 40 m 1,28,-1
 70 50 l 1,29,-1
 60 50 l 1,30,-1
 60 70 l 1,31,-1
 50 70 l 1,32,-1
 50 50 l 1,33,-1
 40 50 l 1,34,-1
 40 40 l 1,35,-1
 70 40 l 1,28,-1
EndSplineSet
EndChar

StartChar: Aacute
Encoding: 193 193 271
Width: 110
GlyphClass: 1
Flags: W
LayerCount: 2
Fore
SplineSet
100 0 m 1,0,-1
 80 0 l 1,1,-1
 80 20 l 1,2,-1
 30 20 l 1,3,-1
 30 0 l 1,4,-1
 10 0 l 1,5,-1
 10 30 l 1,6,-1
 20 30 l 1,7,-1
 20 60 l 1,8,-1
 30 60 l 1,9,-1
 30 80 l 1,10,-1
 40 80 l 1,11,-1
 40 100 l 1,12,-1
 30 100 l 1,13,-1
 30 110 l 1,14,-1
 50 110 l 1,15,-1
 50 120 l 1,16,-1
 80 120 l 1,17,-1
 80 110 l 1,18,-1
 60 110 l 1,19,-1
 60 100 l 1,20,-1
 70 100 l 1,21,-1
 70 80 l 1,22,-1
 80 80 l 1,23,-1
 80 60 l 1,24,-1
 90 60 l 1,25,-1
 90 30 l 1,26,-1
 100 30 l 1,27,-1
 100 0 l 1,0,-1
40 40 m 1,28,-1
 70 40 l 1,29,-1
 70 50 l 1,30,-1
 60 50 l 1,31,-1
 60 70 l 1,32,-1
 50 70 l 1,33,-1
 50 50 l 1,34,-1
 40 50 l 1,35,-1
 40 40 l 1,28,-1
EndSplineSet
EndChar

StartChar: Acircumflex
Encoding: 194 194 272
Width: 110
GlyphClass: 1
Flags: W
LayerCount: 2
Fore
SplineSet
10 0 m 1,0,-1
 10 30 l 1,1,-1
 20 30 l 1,2,-1
 20 60 l 1,3,-1
 30 60 l 1,4,-1
 30 80 l 1,5,-1
 40 80 l 1,6,-1
 40 100 l 1,7,-1
 20 100 l 1,8,-1
 20 110 l 1,9,-1
 30 110 l 1,10,-1
 30 120 l 1,11,-1
 70 120 l 1,12,-1
 70 110 l 1,13,-1
 80 110 l 1,14,-1
 80 100 l 1,15,-1
 70 100 l 1,16,-1
 70 80 l 1,17,-1
 80 80 l 1,18,-1
 80 60 l 1,19,-1
 90 60 l 1,20,-1
 90 30 l 1,21,-1
 100 30 l 1,22,-1
 100 0 l 1,23,-1
 80 0 l 1,24,-1
 80 20 l 1,25,-1
 30 20 l 1,26,-1
 30 0 l 1,27,-1
 10 0 l 1,0,-1
40 100 m 1,28,-1
 60 100 l 1,29,-1
 60 110 l 1,30,-1
 40 110 l 1,31,-1
 40 100 l 1,28,-1
70 40 m 1,32,-1
 70 50 l 1,33,-1
 60 50 l 1,34,-1
 60 70 l 1,35,-1
 50 70 l 1,36,-1
 50 50 l 1,37,-1
 40 50 l 1,38,-1
 40 40 l 1,39,-1
 70 40 l 1,32,-1
EndSplineSet
EndChar

StartChar: Atilde
Encoding: 195 195 273
Width: 110
GlyphClass: 1
Flags: W
LayerCount: 2
Fore
SplineSet
10 0 m 1,0,-1
 10 30 l 1,1,-1
 20 30 l 1,2,-1
 20 60 l 1,3,-1
 30 60 l 1,4,-1
 30 80 l 1,5,-1
 40 80 l 1,6,-1
 40 100 l 1,7,-1
 20 100 l 1,8,-1
 20 110 l 1,9,-1
 30 110 l 1,10,-1
 30 120 l 1,11,-1
 60 120 l 1,12,-1
 60 110 l 1,13,-1
 70 110 l 1,14,-1
 70 120 l 1,15,-1
 90 120 l 1,16,-1
 90 110 l 1,17,-1
 80 110 l 1,18,-1
 80 100 l 1,19,-1
 70 100 l 1,20,-1
 70 80 l 1,21,-1
 80 80 l 1,22,-1
 80 60 l 1,23,-1
 90 60 l 1,24,-1
 90 30 l 1,25,-1
 100 30 l 1,26,-1
 100 0 l 1,27,-1
 80 0 l 1,28,-1
 80 20 l 1,29,-1
 30 20 l 1,30,-1
 30 0 l 1,31,-1
 10 0 l 1,0,-1
50 110 m 1,32,-1
 40 110 l 1,33,-1
 40 100 l 1,34,-1
 50 100 l 1,35,-1
 50 110 l 1,32,-1
70 40 m 1,36,-1
 70 50 l 1,37,-1
 60 50 l 1,38,-1
 60 70 l 1,39,-1
 50 70 l 1,40,-1
 50 50 l 1,41,-1
 40 50 l 1,42,-1
 40 40 l 1,43,-1
 70 40 l 1,36,-1
EndSplineSet
EndChar

StartChar: Adieresis
Encoding: 196 196 274
Width: 110
GlyphClass: 1
Flags: W
LayerCount: 2
Fore
SplineSet
70 40 m 1,0,-1
 70 50 l 1,1,-1
 60 50 l 1,2,-1
 60 70 l 1,3,-1
 50 70 l 1,4,-1
 50 50 l 1,5,-1
 40 50 l 1,6,-1
 40 40 l 1,7,-1
 70 40 l 1,0,-1
10 0 m 1,8,-1
 10 30 l 1,9,-1
 20 30 l 1,10,-1
 20 60 l 1,11,-1
 30 60 l 1,12,-1
 30 80 l 1,13,-1
 40 80 l 1,14,-1
 40 100 l 1,15,-1
 70 100 l 1,16,-1
 70 80 l 1,17,-1
 80 80 l 1,18,-1
 80 60 l 1,19,-1
 90 60 l 1,20,-1
 90 30 l 1,21,-1
 100 30 l 1,22,-1
 100 0 l 1,23,-1
 80 0 l 1,24,-1
 80 20 l 1,25,-1
 30 20 l 1,26,-1
 30 0 l 1,27,-1
 10 0 l 1,8,-1
70 100 m 1,28,-1
 70 120 l 1,29,-1
 90 120 l 1,30,-1
 90 100 l 1,31,-1
 70 100 l 1,28,-1
40 100 m 1,32,-1
 20 100 l 1,33,-1
 20 120 l 1,34,-1
 40 120 l 1,35,-1
 40 100 l 1,32,-1
EndSplineSet
EndChar

StartChar: Aring
Encoding: 197 197 275
Width: 110
GlyphClass: 1
Flags: W
LayerCount: 2
Fore
SplineSet
10 0 m 1,0,-1
 10 30 l 1,1,-1
 20 30 l 1,2,-1
 20 60 l 1,3,-1
 30 60 l 1,4,-1
 30 80 l 1,5,-1
 40 80 l 1,6,-1
 40 90 l 1,7,-1
 30 90 l 1,8,-1
 30 110 l 1,9,-1
 40 110 l 1,10,-1
 40 120 l 1,11,-1
 70 120 l 1,12,-1
 70 110 l 1,13,-1
 80 110 l 1,14,-1
 80 90 l 1,15,-1
 70 90 l 1,16,-1
 70 80 l 1,17,-1
 80 80 l 1,18,-1
 80 60 l 1,19,-1
 90 60 l 1,20,-1
 90 30 l 1,21,-1
 100 30 l 1,22,-1
 100 0 l 1,23,-1
 80 0 l 1,24,-1
 80 20 l 1,25,-1
 30 20 l 1,26,-1
 30 0 l 1,27,-1
 10 0 l 1,0,-1
60 90 m 1,28,-1
 60 100 l 1,29,-1
 50 100 l 1,30,-1
 50 90 l 1,31,-1
 60 90 l 1,28,-1
70 40 m 1,32,-1
 70 50 l 1,33,-1
 60 50 l 1,34,-1
 60 70 l 1,35,-1
 50 70 l 1,36,-1
 50 50 l 1,37,-1
 40 50 l 1,38,-1
 40 40 l 1,39,-1
 70 40 l 1,32,-1
EndSplineSet
EndChar

StartChar: Abreve
Encoding: 258 258 276
Width: 110
GlyphClass: 1
Flags: W
LayerCount: 2
Fore
SplineSet
70 120 m 1,0,-1
 80 120 l 1,1,-1
 80 110 l 1,2,-1
 70 110 l 1,3,-1
 70 100 l 1,4,-1
 40 100 l 1,5,-1
 40 110 l 1,6,-1
 30 110 l 1,7,-1
 30 120 l 1,8,-1
 40 120 l 1,9,-1
 40 110 l 1,10,-1
 70 110 l 1,11,-1
 70 120 l 1,0,-1
10 0 m 1,12,-1
 10 30 l 1,13,-1
 20 30 l 1,14,-1
 20 60 l 1,15,-1
 30 60 l 1,16,-1
 30 80 l 1,17,-1
 40 80 l 1,18,-1
 40 90 l 1,19,-1
 70 90 l 1,20,-1
 70 80 l 1,21,-1
 80 80 l 1,22,-1
 80 60 l 1,23,-1
 90 60 l 1,24,-1
 90 30 l 1,25,-1
 100 30 l 1,26,-1
 100 0 l 1,27,-1
 80 0 l 1,28,-1
 80 20 l 1,29,-1
 30 20 l 1,30,-1
 30 0 l 1,31,-1
 10 0 l 1,12,-1
70 40 m 1,32,-1
 70 50 l 1,33,-1
 60 50 l 1,34,-1
 60 70 l 1,35,-1
 50 70 l 1,36,-1
 50 50 l 1,37,-1
 40 50 l 1,38,-1
 40 40 l 1,39,-1
 70 40 l 1,32,-1
EndSplineSet
EndChar

StartChar: Aogonek
Encoding: 260 260 277
Width: 110
GlyphClass: 1
Flags: W
LayerCount: 2
Fore
SplineSet
0 10 m 1,0,-1
 0 50 l 1,1,-1
 10 50 l 1,2,-1
 10 80 l 1,3,-1
 20 80 l 1,4,-1
 20 100 l 1,5,-1
 30 100 l 1,6,-1
 30 120 l 1,7,-1
 60 120 l 1,8,-1
 60 100 l 1,9,-1
 70 100 l 1,10,-1
 70 80 l 1,11,-1
 80 80 l 1,12,-1
 80 50 l 1,13,-1
 90 50 l 1,14,-1
 90 10 l 1,15,-1
 80 10 l 1,16,-1
 80 0 l 1,17,-1
 100 0 l 1,18,-1
 100 -10 l 1,19,-1
 70 -10 l 1,20,-1
 70 0 l 1,21,-1
 60 0 l 1,22,-1
 60 20 l 1,23,-1
 70 20 l 1,24,-1
 70 40 l 1,25,-1
 20 40 l 1,26,-1
 20 10 l 1,27,-1
 0 10 l 1,0,-1
60 60 m 1,28,-1
 60 70 l 1,29,-1
 50 70 l 1,30,-1
 50 90 l 1,31,-1
 40 90 l 1,32,-1
 40 70 l 1,33,-1
 30 70 l 1,34,-1
 30 60 l 1,35,-1
 60 60 l 1,28,-1
EndSplineSet
EndChar

StartChar: AE
Encoding: 198 198 278
Width: 110
GlyphClass: 1
Flags: W
LayerCount: 2
Fore
SplineSet
0 0 m 1,0,-1
 0 50 l 1,1,-1
 10 50 l 1,2,-1
 10 80 l 1,3,-1
 20 80 l 1,4,-1
 20 110 l 1,5,-1
 30 110 l 1,6,-1
 30 120 l 1,7,-1
 100 120 l 1,8,-1
 100 100 l 1,9,-1
 70 100 l 1,10,-1
 70 70 l 1,11,-1
 90 70 l 1,12,-1
 90 50 l 1,13,-1
 70 50 l 1,14,-1
 70 20 l 1,15,-1
 100 20 l 1,16,-1
 100 0 l 1,17,-1
 50 0 l 1,18,-1
 50 30 l 1,19,-1
 20 30 l 1,20,-1
 20 0 l 1,21,-1
 0 0 l 1,0,-1
50 50 m 1,22,-1
 50 100 l 1,23,-1
 40 100 l 1,24,-1
 40 70 l 1,25,-1
 30 70 l 1,26,-1
 30 50 l 1,27,-1
 50 50 l 1,22,-1
EndSplineSet
EndChar

StartChar: Ccedilla
Encoding: 199 199 279
Width: 110
GlyphClass: 1
Flags: W
LayerCount: 2
Fore
SplineSet
10 30 m 1,0,-1
 10 100 l 1,1,-1
 20 100 l 1,2,-1
 20 110 l 1,3,-1
 30 110 l 1,4,-1
 30 120 l 1,5,-1
 80 120 l 1,6,-1
 80 110 l 1,7,-1
 90 110 l 1,8,-1
 90 90 l 1,9,-1
 70 90 l 1,10,-1
 70 100 l 1,11,-1
 40 100 l 1,12,-1
 40 90 l 1,13,-1
 30 90 l 1,14,-1
 30 40 l 1,15,-1
 40 40 l 1,16,-1
 40 30 l 1,17,-1
 70 30 l 1,18,-1
 70 40 l 1,19,-1
 90 40 l 1,20,-1
 90 20 l 1,21,-1
 80 20 l 1,22,-1
 80 10 l 1,23,-1
 70 10 l 1,24,-1
 70 0 l 1,25,-1
 60 0 l 1,26,-1
 60 -10 l 1,27,-1
 30 -10 l 1,28,-1
 30 0 l 1,29,-1
 50 0 l 1,30,-1
 50 10 l 1,31,-1
 30 10 l 1,32,-1
 30 20 l 1,33,-1
 20 20 l 1,34,-1
 20 30 l 1,35,-1
 10 30 l 1,0,-1
EndSplineSet
EndChar

StartChar: Egrave
Encoding: 200 200 280
Width: 110
GlyphClass: 1
Flags: W
LayerCount: 2
Fore
SplineSet
10 0 m 1,0,-1
 10 100 l 1,1,-1
 40 100 l 1,2,-1
 40 110 l 1,3,-1
 20 110 l 1,4,-1
 20 120 l 1,5,-1
 50 120 l 1,6,-1
 50 110 l 1,7,-1
 70 110 l 1,8,-1
 70 100 l 1,9,-1
 90 100 l 1,10,-1
 90 80 l 1,11,-1
 30 80 l 1,12,-1
 30 60 l 1,13,-1
 80 60 l 1,14,-1
 80 40 l 1,15,-1
 30 40 l 1,16,-1
 30 20 l 1,17,-1
 90 20 l 1,18,-1
 90 0 l 1,19,-1
 10 0 l 1,0,-1
EndSplineSet
EndChar

StartChar: Eacute
Encoding: 201 201 281
Width: 110
GlyphClass: 1
Flags: W
LayerCount: 2
Fore
SplineSet
10 0 m 1,0,-1
 10 100 l 1,1,-1
 30 100 l 1,2,-1
 30 110 l 1,3,-1
 50 110 l 1,4,-1
 50 120 l 1,5,-1
 80 120 l 1,6,-1
 80 110 l 1,7,-1
 60 110 l 1,8,-1
 60 100 l 1,9,-1
 90 100 l 1,10,-1
 90 80 l 1,11,-1
 30 80 l 1,12,-1
 30 60 l 1,13,-1
 80 60 l 1,14,-1
 80 40 l 1,15,-1
 30 40 l 1,16,-1
 30 20 l 1,17,-1
 90 20 l 1,18,-1
 90 0 l 1,19,-1
 10 0 l 1,0,-1
EndSplineSet
EndChar

StartChar: Ecircumflex
Encoding: 202 202 282
Width: 110
GlyphClass: 1
Flags: W
LayerCount: 2
Fore
SplineSet
60 100 m 1,0,-1
 60 110 l 1,1,-1
 40 110 l 1,2,-1
 40 100 l 1,3,-1
 20 100 l 1,4,-1
 20 110 l 1,5,-1
 30 110 l 1,6,-1
 30 120 l 1,7,-1
 70 120 l 1,8,-1
 70 110 l 1,9,-1
 80 110 l 1,10,-1
 80 100 l 1,11,-1
 60 100 l 1,0,-1
10 0 m 1,12,-1
 10 90 l 1,13,-1
 90 90 l 1,14,-1
 90 70 l 1,15,-1
 30 70 l 1,16,-1
 30 60 l 1,17,-1
 80 60 l 1,18,-1
 80 40 l 1,19,-1
 30 40 l 1,20,-1
 30 20 l 1,21,-1
 90 20 l 1,22,-1
 90 0 l 1,23,-1
 10 0 l 1,12,-1
EndSplineSet
EndChar

StartChar: Edieresis
Encoding: 203 203 283
Width: 110
GlyphClass: 1
Flags: W
LayerCount: 2
Fore
SplineSet
20 100 m 1,0,-1
 20 120 l 1,1,-1
 40 120 l 1,2,-1
 40 100 l 1,3,-1
 20 100 l 1,0,-1
60 100 m 1,4,-1
 60 120 l 1,5,-1
 80 120 l 1,6,-1
 80 100 l 1,7,-1
 60 100 l 1,4,-1
10 0 m 1,8,-1
 10 90 l 1,9,-1
 90 90 l 1,10,-1
 90 70 l 1,11,-1
 30 70 l 1,12,-1
 30 60 l 1,13,-1
 80 60 l 1,14,-1
 80 40 l 1,15,-1
 30 40 l 1,16,-1
 30 20 l 1,17,-1
 90 20 l 1,18,-1
 90 0 l 1,19,-1
 10 0 l 1,8,-1
EndSplineSet
EndChar

StartChar: Igrave
Encoding: 204 204 284
Width: 110
GlyphClass: 1
Flags: W
LayerCount: 2
Fore
SplineSet
70 100 m 1,0,-1
 40 100 l 1,1,-1
 40 110 l 1,2,-1
 20 110 l 1,3,-1
 20 120 l 1,4,-1
 50 120 l 1,5,-1
 50 110 l 1,6,-1
 70 110 l 1,7,-1
 70 100 l 1,0,-1
20 70 m 1,8,-1
 20 90 l 1,9,-1
 80 90 l 1,10,-1
 80 70 l 1,11,-1
 60 70 l 1,12,-1
 60 20 l 1,13,-1
 80 20 l 1,14,-1
 80 0 l 1,15,-1
 20 0 l 1,16,-1
 20 20 l 1,17,-1
 40 20 l 1,18,-1
 40 70 l 1,19,-1
 20 70 l 1,8,-1
EndSplineSet
EndChar

StartChar: Iacute
Encoding: 205 205 285
Width: 110
GlyphClass: 1
Flags: W
LayerCount: 2
Fore
SplineSet
30 100 m 1,0,-1
 30 110 l 1,1,-1
 50 110 l 1,2,-1
 50 120 l 1,3,-1
 80 120 l 1,4,-1
 80 110 l 1,5,-1
 60 110 l 1,6,-1
 60 100 l 1,7,-1
 30 100 l 1,0,-1
20 70 m 1,8,-1
 20 90 l 1,9,-1
 80 90 l 1,10,-1
 80 70 l 1,11,-1
 60 70 l 1,12,-1
 60 20 l 1,13,-1
 80 20 l 1,14,-1
 80 0 l 1,15,-1
 20 0 l 1,16,-1
 20 20 l 1,17,-1
 40 20 l 1,18,-1
 40 70 l 1,19,-1
 20 70 l 1,8,-1
EndSplineSet
EndChar

StartChar: Icircumflex
Encoding: 206 206 286
Width: 110
GlyphClass: 1
Flags: W
LayerCount: 2
Fore
SplineSet
60 100 m 1,0,-1
 60 110 l 1,1,-1
 40 110 l 1,2,-1
 40 100 l 1,3,-1
 20 100 l 1,4,-1
 20 110 l 1,5,-1
 30 110 l 1,6,-1
 30 120 l 1,7,-1
 70 120 l 1,8,-1
 70 110 l 1,9,-1
 80 110 l 1,10,-1
 80 100 l 1,11,-1
 60 100 l 1,0,-1
20 70 m 1,12,-1
 20 90 l 1,13,-1
 80 90 l 1,14,-1
 80 70 l 1,15,-1
 60 70 l 1,16,-1
 60 20 l 1,17,-1
 80 20 l 1,18,-1
 80 0 l 1,19,-1
 20 0 l 1,20,-1
 20 20 l 1,21,-1
 40 20 l 1,22,-1
 40 70 l 1,23,-1
 20 70 l 1,12,-1
EndSplineSet
EndChar

StartChar: Idieresis
Encoding: 207 207 287
Width: 110
GlyphClass: 1
Flags: W
LayerCount: 2
Fore
SplineSet
20 100 m 1,0,-1
 20 120 l 1,1,-1
 40 120 l 1,2,-1
 40 100 l 1,3,-1
 20 100 l 1,0,-1
60 100 m 1,4,-1
 60 120 l 1,5,-1
 80 120 l 1,6,-1
 80 100 l 1,7,-1
 60 100 l 1,4,-1
20 70 m 1,8,-1
 20 90 l 1,9,-1
 80 90 l 1,10,-1
 80 70 l 1,11,-1
 60 70 l 1,12,-1
 60 20 l 1,13,-1
 80 20 l 1,14,-1
 80 0 l 1,15,-1
 20 0 l 1,16,-1
 20 20 l 1,17,-1
 40 20 l 1,18,-1
 40 70 l 1,19,-1
 20 70 l 1,8,-1
EndSplineSet
EndChar

StartChar: Ntilde
Encoding: 209 209 288
Width: 110
GlyphClass: 1
Flags: W
LayerCount: 2
Fore
SplineSet
50 100 m 1,0,-1
 50 110 l 1,1,-1
 40 110 l 1,2,-1
 40 100 l 1,3,-1
 20 100 l 1,4,-1
 20 110 l 1,5,-1
 30 110 l 1,6,-1
 30 120 l 1,7,-1
 60 120 l 1,8,-1
 60 110 l 1,9,-1
 70 110 l 1,10,-1
 70 120 l 1,11,-1
 90 120 l 1,12,-1
 90 110 l 1,13,-1
 80 110 l 1,14,-1
 80 100 l 1,15,-1
 50 100 l 1,0,-1
10 0 m 1,16,-1
 10 90 l 1,17,-1
 30 90 l 1,18,-1
 30 80 l 1,19,-1
 40 80 l 1,20,-1
 40 70 l 1,21,-1
 50 70 l 1,22,-1
 50 60 l 1,23,-1
 60 60 l 1,24,-1
 60 50 l 1,25,-1
 70 50 l 1,26,-1
 70 90 l 1,27,-1
 90 90 l 1,28,-1
 90 0 l 1,29,-1
 70 0 l 1,30,-1
 70 20 l 1,31,-1
 60 20 l 1,32,-1
 60 30 l 1,33,-1
 50 30 l 1,34,-1
 50 40 l 1,35,-1
 40 40 l 1,36,-1
 40 50 l 1,37,-1
 30 50 l 1,38,-1
 30 0 l 1,39,-1
 10 0 l 1,16,-1
EndSplineSet
EndChar

StartChar: Ograve
Encoding: 210 210 289
Width: 110
GlyphClass: 1
Flags: W
LayerCount: 2
Fore
SplineSet
10 20 m 1,0,-1
 10 80 l 1,1,-1
 20 80 l 1,2,-1
 20 90 l 1,3,-1
 30 90 l 1,4,-1
 30 100 l 1,5,-1
 40 100 l 1,6,-1
 40 110 l 1,7,-1
 20 110 l 1,8,-1
 20 120 l 1,9,-1
 50 120 l 1,10,-1
 50 110 l 1,11,-1
 70 110 l 1,12,-1
 70 100 l 1,13,-1
 80 100 l 1,14,-1
 80 90 l 1,15,-1
 90 90 l 1,16,-1
 90 80 l 1,17,-1
 100 80 l 1,18,-1
 100 20 l 1,19,-1
 90 20 l 1,20,-1
 90 10 l 1,21,-1
 80 10 l 1,22,-1
 80 0 l 1,23,-1
 30 0 l 1,24,-1
 30 10 l 1,25,-1
 20 10 l 1,26,-1
 20 20 l 1,27,-1
 10 20 l 1,0,-1
40 20 m 1,28,-1
 70 20 l 1,29,-1
 70 30 l 1,30,-1
 80 30 l 1,31,-1
 80 70 l 1,32,-1
 70 70 l 1,33,-1
 70 80 l 1,34,-1
 40 80 l 1,35,-1
 40 70 l 1,36,-1
 30 70 l 1,37,-1
 30 30 l 1,38,-1
 40 30 l 1,39,-1
 40 20 l 1,28,-1
EndSplineSet
EndChar

StartChar: Oacute
Encoding: 211 211 290
Width: 110
GlyphClass: 1
Flags: W
LayerCount: 2
Fore
SplineSet
10 20 m 1,0,-1
 10 80 l 1,1,-1
 20 80 l 1,2,-1
 20 90 l 1,3,-1
 30 90 l 1,4,-1
 30 100 l 1,5,-1
 40 100 l 1,6,-1
 40 110 l 1,7,-1
 60 110 l 1,8,-1
 60 120 l 1,9,-1
 90 120 l 1,10,-1
 90 110 l 1,11,-1
 70 110 l 1,12,-1
 70 100 l 1,13,-1
 80 100 l 1,14,-1
 80 90 l 1,15,-1
 90 90 l 1,16,-1
 90 80 l 1,17,-1
 100 80 l 1,18,-1
 100 20 l 1,19,-1
 90 20 l 1,20,-1
 90 10 l 1,21,-1
 80 10 l 1,22,-1
 80 0 l 1,23,-1
 30 0 l 1,24,-1
 30 10 l 1,25,-1
 20 10 l 1,26,-1
 20 20 l 1,27,-1
 10 20 l 1,0,-1
40 20 m 1,28,-1
 70 20 l 1,29,-1
 70 30 l 1,30,-1
 80 30 l 1,31,-1
 80 70 l 1,32,-1
 70 70 l 1,33,-1
 70 80 l 1,34,-1
 40 80 l 1,35,-1
 40 70 l 1,36,-1
 30 70 l 1,37,-1
 30 30 l 1,38,-1
 40 30 l 1,39,-1
 40 20 l 1,28,-1
EndSplineSet
EndChar

StartChar: Ocircumflex
Encoding: 212 212 291
Width: 110
GlyphClass: 1
Flags: W
LayerCount: 2
Fore
SplineSet
60 100 m 1,0,-1
 60 110 l 1,1,-1
 40 110 l 1,2,-1
 40 100 l 1,3,-1
 20 100 l 1,4,-1
 20 110 l 1,5,-1
 30 110 l 1,6,-1
 30 120 l 1,7,-1
 70 120 l 1,8,-1
 70 110 l 1,9,-1
 80 110 l 1,10,-1
 80 100 l 1,11,-1
 60 100 l 1,0,-1
10 20 m 1,12,-1
 10 70 l 1,13,-1
 20 70 l 1,14,-1
 20 80 l 1,15,-1
 30 80 l 1,16,-1
 30 90 l 1,17,-1
 80 90 l 1,18,-1
 80 80 l 1,19,-1
 90 80 l 1,20,-1
 90 70 l 1,21,-1
 100 70 l 1,22,-1
 100 20 l 1,23,-1
 90 20 l 1,24,-1
 90 10 l 1,25,-1
 80 10 l 1,26,-1
 80 0 l 1,27,-1
 30 0 l 1,28,-1
 30 10 l 1,29,-1
 20 10 l 1,30,-1
 20 20 l 1,31,-1
 10 20 l 1,12,-1
40 20 m 1,32,-1
 70 20 l 1,33,-1
 70 30 l 1,34,-1
 80 30 l 1,35,-1
 80 60 l 1,36,-1
 70 60 l 1,37,-1
 70 70 l 1,38,-1
 40 70 l 1,39,-1
 40 60 l 1,40,-1
 30 60 l 1,41,-1
 30 30 l 1,42,-1
 40 30 l 1,43,-1
 40 20 l 1,32,-1
EndSplineSet
EndChar

StartChar: Otilde
Encoding: 213 213 292
Width: 110
GlyphClass: 1
Flags: W
LayerCount: 2
Fore
SplineSet
50 100 m 1,0,-1
 50 110 l 1,1,-1
 40 110 l 1,2,-1
 40 100 l 1,3,-1
 20 100 l 1,4,-1
 20 110 l 1,5,-1
 30 110 l 1,6,-1
 30 120 l 1,7,-1
 60 120 l 1,8,-1
 60 110 l 1,9,-1
 70 110 l 1,10,-1
 70 120 l 1,11,-1
 90 120 l 1,12,-1
 90 110 l 1,13,-1
 80 110 l 1,14,-1
 80 100 l 1,15,-1
 50 100 l 1,0,-1
10 20 m 1,16,-1
 10 70 l 1,17,-1
 20 70 l 1,18,-1
 20 80 l 1,19,-1
 30 80 l 1,20,-1
 30 90 l 1,21,-1
 80 90 l 1,22,-1
 80 80 l 1,23,-1
 90 80 l 1,24,-1
 90 70 l 1,25,-1
 100 70 l 1,26,-1
 100 20 l 1,27,-1
 90 20 l 1,28,-1
 90 10 l 1,29,-1
 80 10 l 1,30,-1
 80 0 l 1,31,-1
 30 0 l 1,32,-1
 30 10 l 1,33,-1
 20 10 l 1,34,-1
 20 20 l 1,35,-1
 10 20 l 1,16,-1
40 20 m 1,36,-1
 70 20 l 1,37,-1
 70 30 l 1,38,-1
 80 30 l 1,39,-1
 80 60 l 1,40,-1
 70 60 l 1,41,-1
 70 70 l 1,42,-1
 40 70 l 1,43,-1
 40 60 l 1,44,-1
 30 60 l 1,45,-1
 30 30 l 1,46,-1
 40 30 l 1,47,-1
 40 20 l 1,36,-1
EndSplineSet
EndChar

StartChar: Odieresis
Encoding: 214 214 293
Width: 110
GlyphClass: 1
Flags: W
LayerCount: 2
Fore
SplineSet
20 100 m 1,0,-1
 20 120 l 1,1,-1
 40 120 l 1,2,-1
 40 100 l 1,3,-1
 20 100 l 1,0,-1
60 100 m 1,4,-1
 60 120 l 1,5,-1
 80 120 l 1,6,-1
 80 100 l 1,7,-1
 60 100 l 1,4,-1
10 20 m 1,8,-1
 10 70 l 1,9,-1
 20 70 l 1,10,-1
 20 80 l 1,11,-1
 30 80 l 1,12,-1
 30 90 l 1,13,-1
 80 90 l 1,14,-1
 80 80 l 1,15,-1
 90 80 l 1,16,-1
 90 70 l 1,17,-1
 100 70 l 1,18,-1
 100 20 l 1,19,-1
 90 20 l 1,20,-1
 90 10 l 1,21,-1
 80 10 l 1,22,-1
 80 0 l 1,23,-1
 30 0 l 1,24,-1
 30 10 l 1,25,-1
 20 10 l 1,26,-1
 20 20 l 1,27,-1
 10 20 l 1,8,-1
40 20 m 1,28,-1
 70 20 l 1,29,-1
 70 30 l 1,30,-1
 80 30 l 1,31,-1
 80 60 l 1,32,-1
 70 60 l 1,33,-1
 70 70 l 1,34,-1
 40 70 l 1,35,-1
 40 60 l 1,36,-1
 30 60 l 1,37,-1
 30 30 l 1,38,-1
 40 30 l 1,39,-1
 40 20 l 1,28,-1
EndSplineSet
EndChar

StartChar: Oslash
Encoding: 216 216 294
Width: 110
GlyphClass: 1
Flags: W
LayerCount: 2
Fore
SplineSet
10 0 m 1,0,-1
 10 20 l 1,1,-1
 20 20 l 1,2,-1
 20 30 l 1,3,-1
 10 30 l 1,4,-1
 10 100 l 1,5,-1
 20 100 l 1,6,-1
 20 110 l 1,7,-1
 30 110 l 1,8,-1
 30 120 l 1,9,-1
 70 120 l 1,10,-1
 70 110 l 1,11,-1
 80 110 l 1,12,-1
 80 120 l 1,13,-1
 100 120 l 1,14,-1
 100 100 l 1,15,-1
 90 100 l 1,16,-1
 90 90 l 1,17,-1
 100 90 l 1,18,-1
 100 20 l 1,19,-1
 90 20 l 1,20,-1
 90 10 l 1,21,-1
 80 10 l 1,22,-1
 80 0 l 1,23,-1
 40 0 l 1,24,-1
 40 10 l 1,25,-1
 30 10 l 1,26,-1
 30 0 l 1,27,-1
 10 0 l 1,0,-1
30 50 m 1,28,-1
 40 50 l 1,29,-1
 40 60 l 1,30,-1
 50 60 l 1,31,-1
 50 80 l 1,32,-1
 60 80 l 1,33,-1
 60 90 l 1,34,-1
 70 90 l 1,35,-1
 70 100 l 1,36,-1
 40 100 l 1,37,-1
 40 90 l 1,38,-1
 30 90 l 1,39,-1
 30 50 l 1,28,-1
40 20 m 1,40,-1
 70 20 l 1,41,-1
 70 30 l 1,42,-1
 80 30 l 1,43,-1
 80 70 l 1,44,-1
 70 70 l 1,45,-1
 70 60 l 1,46,-1
 60 60 l 1,47,-1
 60 40 l 1,48,-1
 50 40 l 1,49,-1
 50 30 l 1,50,-1
 40 30 l 1,51,-1
 40 20 l 1,40,-1
EndSplineSet
EndChar

StartChar: Ugrave
Encoding: 217 217 295
Width: 110
GlyphClass: 1
Flags: W
LayerCount: 2
Fore
SplineSet
60 100 m 1,0,-1
 30 100 l 1,1,-1
 30 110 l 1,2,-1
 10 110 l 1,3,-1
 10 120 l 1,4,-1
 40 120 l 1,5,-1
 40 110 l 1,6,-1
 60 110 l 1,7,-1
 60 100 l 1,0,-1
20 10 m 1,8,-1
 10 10 l 1,9,-1
 10 100 l 1,10,-1
 30 100 l 1,11,-1
 30 20 l 1,12,-1
 70 20 l 1,13,-1
 70 100 l 1,14,-1
 90 100 l 1,15,-1
 90 10 l 1,16,-1
 80 10 l 1,17,-1
 80 0 l 1,18,-1
 20 0 l 1,19,-1
 20 10 l 1,8,-1
EndSplineSet
EndChar

StartChar: Uacute
Encoding: 218 218 296
Width: 110
GlyphClass: 1
Flags: W
LayerCount: 2
Fore
SplineSet
40 100 m 1,0,-1
 40 110 l 1,1,-1
 60 110 l 1,2,-1
 60 120 l 1,3,-1
 90 120 l 1,4,-1
 90 110 l 1,5,-1
 70 110 l 1,6,-1
 70 100 l 1,7,-1
 40 100 l 1,0,-1
20 10 m 1,8,-1
 10 10 l 1,9,-1
 10 100 l 1,10,-1
 30 100 l 1,11,-1
 30 20 l 1,12,-1
 70 20 l 1,13,-1
 70 100 l 1,14,-1
 90 100 l 1,15,-1
 90 10 l 1,16,-1
 80 10 l 1,17,-1
 80 0 l 1,18,-1
 20 0 l 1,19,-1
 20 10 l 1,8,-1
EndSplineSet
EndChar

StartChar: Ucircumflex
Encoding: 219 219 297
Width: 110
GlyphClass: 1
Flags: W
LayerCount: 2
Fore
SplineSet
60 100 m 1,0,-1
 60 110 l 1,1,-1
 40 110 l 1,2,-1
 40 100 l 1,3,-1
 20 100 l 1,4,-1
 20 110 l 1,5,-1
 30 110 l 1,6,-1
 30 120 l 1,7,-1
 70 120 l 1,8,-1
 70 110 l 1,9,-1
 80 110 l 1,10,-1
 80 100 l 1,11,-1
 60 100 l 1,0,-1
20 10 m 1,12,-1
 10 10 l 1,13,-1
 10 90 l 1,14,-1
 30 90 l 1,15,-1
 30 20 l 1,16,-1
 70 20 l 1,17,-1
 70 90 l 1,18,-1
 90 90 l 1,19,-1
 90 10 l 1,20,-1
 80 10 l 1,21,-1
 80 0 l 1,22,-1
 20 0 l 1,23,-1
 20 10 l 1,12,-1
EndSplineSet
EndChar

StartChar: Udieresis
Encoding: 220 220 298
Width: 110
GlyphClass: 1
Flags: W
LayerCount: 2
Fore
SplineSet
20 100 m 1,0,-1
 20 120 l 1,1,-1
 40 120 l 1,2,-1
 40 100 l 1,3,-1
 20 100 l 1,0,-1
60 100 m 1,4,-1
 60 120 l 1,5,-1
 80 120 l 1,6,-1
 80 100 l 1,7,-1
 60 100 l 1,4,-1
20 10 m 1,8,-1
 10 10 l 1,9,-1
 10 90 l 1,10,-1
 30 90 l 1,11,-1
 30 20 l 1,12,-1
 70 20 l 1,13,-1
 70 90 l 1,14,-1
 90 90 l 1,15,-1
 90 10 l 1,16,-1
 80 10 l 1,17,-1
 80 0 l 1,18,-1
 20 0 l 1,19,-1
 20 10 l 1,8,-1
EndSplineSet
EndChar

StartChar: Yacute
Encoding: 221 221 299
Width: 110
GlyphClass: 1
Flags: W
LayerCount: 2
Fore
SplineSet
30 100 m 1,0,-1
 30 110 l 1,1,-1
 50 110 l 1,2,-1
 50 120 l 1,3,-1
 80 120 l 1,4,-1
 80 110 l 1,5,-1
 60 110 l 1,6,-1
 60 100 l 1,7,-1
 30 100 l 1,0,-1
70 40 m 1,8,-1
 60 40 l 1,9,-1
 60 0 l 1,10,-1
 40 0 l 1,11,-1
 40 40 l 1,12,-1
 30 40 l 1,13,-1
 30 60 l 1,14,-1
 20 60 l 1,15,-1
 20 80 l 1,16,-1
 10 80 l 1,17,-1
 10 100 l 1,18,-1
 30 100 l 1,19,-1
 30 80 l 1,20,-1
 40 80 l 1,21,-1
 40 60 l 1,22,-1
 60 60 l 1,23,-1
 60 80 l 1,24,-1
 70 80 l 1,25,-1
 70 100 l 1,26,-1
 90 100 l 1,27,-1
 90 80 l 1,28,-1
 80 80 l 1,29,-1
 80 60 l 1,30,-1
 70 60 l 1,31,-1
 70 40 l 1,8,-1
EndSplineSet
EndChar

StartChar: Ydieresis
Encoding: 376 376 300
Width: 110
GlyphClass: 1
Flags: W
LayerCount: 2
Fore
SplineSet
60 100 m 1,0,-1
 60 120 l 1,1,-1
 80 120 l 1,2,-1
 80 100 l 1,3,-1
 90 100 l 1,4,-1
 90 80 l 1,5,-1
 80 80 l 1,6,-1
 80 60 l 1,7,-1
 70 60 l 1,8,-1
 70 40 l 1,9,-1
 60 40 l 1,10,-1
 60 0 l 1,11,-1
 40 0 l 1,12,-1
 40 40 l 1,13,-1
 30 40 l 1,14,-1
 30 60 l 1,15,-1
 20 60 l 1,16,-1
 20 80 l 1,17,-1
 10 80 l 1,18,-1
 10 100 l 1,19,-1
 20 100 l 1,20,-1
 20 120 l 1,21,-1
 40 120 l 1,22,-1
 40 100 l 1,23,-1
 30 100 l 1,24,-1
 30 80 l 1,25,-1
 40 80 l 1,26,-1
 40 60 l 1,27,-1
 60 60 l 1,28,-1
 60 80 l 1,29,-1
 70 80 l 1,30,-1
 70 100 l 1,31,-1
 60 100 l 1,0,-1
EndSplineSet
EndChar

StartChar: Thorn
Encoding: 222 222 301
Width: 110
GlyphClass: 1
Flags: W
LayerCount: 2
Fore
SplineSet
10 0 m 1,0,-1
 10 120 l 1,1,-1
 30 120 l 1,2,-1
 30 90 l 1,3,-1
 80 90 l 1,4,-1
 80 80 l 1,5,-1
 90 80 l 1,6,-1
 90 40 l 1,7,-1
 80 40 l 1,8,-1
 80 30 l 1,9,-1
 30 30 l 1,10,-1
 30 0 l 1,11,-1
 10 0 l 1,0,-1
30 70 m 1,12,-1
 30 50 l 1,13,-1
 70 50 l 1,14,-1
 70 70 l 1,15,-1
 30 70 l 1,12,-1
EndSplineSet
EndChar

StartChar: Cacute
Encoding: 262 262 302
Width: 110
GlyphClass: 1
Flags: W
LayerCount: 2
Fore
SplineSet
30 100 m 1,0,-1
 30 90 l 1,1,-1
 20 90 l 1,2,-1
 20 80 l 1,3,-1
 10 80 l 1,4,-1
 10 20 l 1,5,-1
 20 20 l 1,6,-1
 20 10 l 1,7,-1
 30 10 l 1,8,-1
 30 0 l 1,9,-1
 80 0 l 1,10,-1
 80 10 l 1,11,-1
 90 10 l 1,12,-1
 90 30 l 1,13,-1
 70 30 l 1,14,-1
 70 20 l 1,15,-1
 40 20 l 1,16,-1
 40 30 l 1,17,-1
 30 30 l 1,18,-1
 30 70 l 1,19,-1
 40 70 l 1,20,-1
 40 80 l 1,21,-1
 70 80 l 1,22,-1
 70 70 l 1,23,-1
 90 70 l 1,24,-1
 90 90 l 1,25,-1
 80 90 l 1,26,-1
 80 100 l 1,27,-1
 70 100 l 1,28,-1
 70 110 l 1,29,-1
 90 110 l 1,30,-1
 90 120 l 1,31,-1
 60 120 l 1,32,-1
 60 110 l 1,33,-1
 40 110 l 1,34,-1
 40 100 l 1,35,-1
 30 100 l 1,0,-1
EndSplineSet
EndChar

StartChar: Ccaron
Encoding: 268 268 303
Width: 110
GlyphClass: 1
Flags: W
LayerCount: 2
Fore
SplineSet
30 90 m 1,0,-1
 30 80 l 1,1,-1
 20 80 l 1,2,-1
 20 70 l 1,3,-1
 10 70 l 1,4,-1
 10 20 l 1,5,-1
 20 20 l 1,6,-1
 20 10 l 1,7,-1
 30 10 l 1,8,-1
 30 0 l 1,9,-1
 80 0 l 1,10,-1
 80 10 l 1,11,-1
 90 10 l 1,12,-1
 90 30 l 1,13,-1
 70 30 l 1,14,-1
 70 20 l 1,15,-1
 40 20 l 1,16,-1
 40 30 l 1,17,-1
 30 30 l 1,18,-1
 30 60 l 1,19,-1
 40 60 l 1,20,-1
 40 70 l 1,21,-1
 70 70 l 1,22,-1
 70 60 l 1,23,-1
 90 60 l 1,24,-1
 90 80 l 1,25,-1
 80 80 l 1,26,-1
 80 90 l 1,27,-1
 30 90 l 1,0,-1
30 100 m 1,28,-1
 70 100 l 1,29,-1
 70 110 l 1,30,-1
 80 110 l 1,31,-1
 80 120 l 1,32,-1
 60 120 l 1,33,-1
 60 110 l 1,34,-1
 40 110 l 1,35,-1
 40 120 l 1,36,-1
 20 120 l 1,37,-1
 20 110 l 1,38,-1
 30 110 l 1,39,-1
 30 100 l 1,28,-1
EndSplineSet
EndChar

StartChar: OE
Encoding: 338 338 304
Width: 110
GlyphClass: 1
Flags: W
LayerCount: 2
Fore
SplineSet
10 10 m 1,0,-1
 10 110 l 1,1,-1
 20 110 l 1,2,-1
 20 120 l 1,3,-1
 50 120 l 1,4,-1
 50 110 l 1,5,-1
 60 110 l 1,6,-1
 60 120 l 1,7,-1
 100 120 l 1,8,-1
 100 100 l 1,9,-1
 70 100 l 1,10,-1
 70 70 l 1,11,-1
 90 70 l 1,12,-1
 90 50 l 1,13,-1
 70 50 l 1,14,-1
 70 20 l 1,15,-1
 100 20 l 1,16,-1
 100 0 l 1,17,-1
 60 0 l 1,18,-1
 60 10 l 1,19,-1
 50 10 l 1,20,-1
 50 0 l 1,21,-1
 20 0 l 1,22,-1
 20 10 l 1,23,-1
 10 10 l 1,0,-1
30 20 m 1,24,-1
 50 20 l 1,25,-1
 50 100 l 1,26,-1
 30 100 l 1,27,-1
 30 20 l 1,24,-1
EndSplineSet
EndChar

StartChar: Dcaron
Encoding: 270 270 305
Width: 110
GlyphClass: 1
Flags: W
LayerCount: 2
Fore
SplineSet
70 90 m 25,0,-1
 70 80 l 1,1,-1
 80 80 l 1,2,-1
 80 70 l 1,3,-1
 90 70 l 1,4,-1
 90 20 l 1,5,-1
 80 20 l 1,6,-1
 80 10 l 1,7,-1
 70 10 l 1,8,-1
 70 0 l 1,9,-1
 10 0 l 1,10,-1
 10 90 l 1,11,-1
 70 90 l 25,0,-1
30 100 m 1,12,-1
 70 100 l 1,13,-1
 70 110 l 1,14,-1
 80 110 l 1,15,-1
 80 120 l 1,16,-1
 60 120 l 1,17,-1
 60 110 l 1,18,-1
 40 110 l 1,19,-1
 40 120 l 1,20,-1
 20 120 l 1,21,-1
 20 110 l 1,22,-1
 30 110 l 1,23,-1
 30 100 l 1,12,-1
30 20 m 1,24,-1
 60 20 l 1,25,-1
 60 30 l 1,26,-1
 70 30 l 1,27,-1
 70 60 l 1,28,-1
 60 60 l 1,29,-1
 60 70 l 1,30,-1
 30 70 l 1,31,-1
 30 20 l 1,24,-1
EndSplineSet
EndChar

StartChar: Eogonek
Encoding: 280 280 306
Width: 110
GlyphClass: 1
Flags: W
LayerCount: 2
Fore
SplineSet
10 10 m 1,0,-1
 10 120 l 1,1,-1
 90 120 l 1,2,-1
 90 100 l 1,3,-1
 30 100 l 1,4,-1
 30 80 l 1,5,-1
 80 80 l 1,6,-1
 80 60 l 1,7,-1
 30 60 l 1,8,-1
 30 30 l 1,9,-1
 90 30 l 1,10,-1
 90 10 l 1,11,-1
 60 10 l 1,12,-1
 60 0 l 1,13,-1
 80 0 l 1,14,-1
 80 -10 l 1,15,-1
 50 -10 l 1,16,-1
 50 0 l 1,17,-1
 40 0 l 1,18,-1
 40 10 l 1,19,-1
 10 10 l 1,0,-1
EndSplineSet
EndChar

StartChar: Ebreve
Encoding: 276 276 307
Width: 110
GlyphClass: 1
Flags: W
LayerCount: 2
Fore
SplineSet
90 100 m 1,0,-1
 90 80 l 1,1,-1
 30 80 l 1,2,-1
 30 60 l 1,3,-1
 80 60 l 1,4,-1
 80 40 l 1,5,-1
 30 40 l 1,6,-1
 30 20 l 1,7,-1
 90 20 l 1,8,-1
 90 0 l 1,9,-1
 10 0 l 1,10,-1
 10 100 l 1,11,-1
 40 100 l 1,12,-1
 40 110 l 1,13,-1
 70 110 l 1,14,-1
 70 120 l 1,15,-1
 80 120 l 1,16,-1
 80 110 l 1,17,-1
 70 110 l 1,18,-1
 70 100 l 1,19,-1
 90 100 l 1,0,-1
40 110 m 1,20,-1
 30 110 l 1,21,-1
 30 120 l 1,22,-1
 40 120 l 1,23,-1
 40 110 l 1,20,-1
EndSplineSet
EndChar

StartChar: Lslash
Encoding: 321 321 308
Width: 110
GlyphClass: 1
Flags: W
LayerCount: 2
Fore
SplineSet
10 0 m 1,0,-1
 10 40 l 1,1,-1
 0 40 l 1,2,-1
 0 60 l 1,3,-1
 10 60 l 1,4,-1
 10 120 l 1,5,-1
 30 120 l 1,6,-1
 30 70 l 1,7,-1
 40 70 l 1,8,-1
 40 80 l 1,9,-1
 60 80 l 1,10,-1
 60 60 l 1,11,-1
 50 60 l 1,12,-1
 50 50 l 1,13,-1
 30 50 l 1,14,-1
 30 20 l 1,15,-1
 90 20 l 1,16,-1
 90 0 l 1,17,-1
 10 0 l 1,0,-1
EndSplineSet
EndChar

StartChar: Nacute
Encoding: 323 323 309
Width: 110
GlyphClass: 1
Flags: W
LayerCount: 2
Fore
SplineSet
40 100 m 1,0,-1
 40 110 l 1,1,-1
 60 110 l 1,2,-1
 60 120 l 1,3,-1
 90 120 l 1,4,-1
 90 110 l 1,5,-1
 70 110 l 1,6,-1
 70 100 l 1,7,-1
 40 100 l 1,0,-1
10 0 m 1,8,-1
 10 100 l 1,9,-1
 30 100 l 1,10,-1
 30 80 l 1,11,-1
 40 80 l 1,12,-1
 40 70 l 1,13,-1
 50 70 l 1,14,-1
 50 60 l 1,15,-1
 60 60 l 1,16,-1
 60 50 l 1,17,-1
 70 50 l 1,18,-1
 70 100 l 1,19,-1
 90 100 l 1,20,-1
 90 0 l 1,21,-1
 70 0 l 1,22,-1
 70 20 l 1,23,-1
 60 20 l 1,24,-1
 60 30 l 1,25,-1
 50 30 l 1,26,-1
 50 40 l 1,27,-1
 40 40 l 1,28,-1
 40 50 l 1,29,-1
 30 50 l 1,30,-1
 30 0 l 1,31,-1
 10 0 l 1,8,-1
EndSplineSet
EndChar

StartChar: Ncaron
Encoding: 327 327 310
Width: 110
GlyphClass: 1
Flags: W
LayerCount: 2
Fore
SplineSet
60 120 m 1,0,-1
 80 120 l 1,1,-1
 80 110 l 1,2,-1
 70 110 l 1,3,-1
 70 100 l 1,4,-1
 30 100 l 1,5,-1
 30 110 l 1,6,-1
 20 110 l 1,7,-1
 20 120 l 1,8,-1
 40 120 l 1,9,-1
 40 110 l 1,10,-1
 60 110 l 1,11,-1
 60 120 l 1,0,-1
10 0 m 1,12,-1
 10 100 l 1,13,-1
 30 100 l 1,14,-1
 30 80 l 1,15,-1
 40 80 l 1,16,-1
 40 70 l 1,17,-1
 50 70 l 1,18,-1
 50 60 l 1,19,-1
 60 60 l 1,20,-1
 60 50 l 1,21,-1
 70 50 l 1,22,-1
 70 100 l 1,23,-1
 90 100 l 1,24,-1
 90 0 l 1,25,-1
 70 0 l 1,26,-1
 70 20 l 1,27,-1
 60 20 l 1,28,-1
 60 30 l 1,29,-1
 50 30 l 1,30,-1
 50 40 l 1,31,-1
 40 40 l 1,32,-1
 40 50 l 1,33,-1
 30 50 l 1,34,-1
 30 0 l 1,35,-1
 10 0 l 1,12,-1
EndSplineSet
EndChar

StartChar: Ohungarumlaut
Encoding: 336 336 311
Width: 110
GlyphClass: 1
Flags: W
LayerCount: 2
Fore
SplineSet
10 20 m 1,0,-1
 10 80 l 1,1,-1
 20 80 l 1,2,-1
 20 90 l 1,3,-1
 30 90 l 1,4,-1
 30 100 l 1,5,-1
 20 100 l 1,6,-1
 20 110 l 1,7,-1
 30 110 l 1,8,-1
 30 120 l 1,9,-1
 50 120 l 1,10,-1
 50 110 l 1,11,-1
 60 110 l 1,12,-1
 60 120 l 1,13,-1
 80 120 l 1,14,-1
 80 110 l 1,15,-1
 70 110 l 1,16,-1
 70 100 l 1,17,-1
 80 100 l 1,18,-1
 80 90 l 1,19,-1
 90 90 l 1,20,-1
 90 80 l 1,21,-1
 100 80 l 1,22,-1
 100 20 l 1,23,-1
 90 20 l 1,24,-1
 90 10 l 1,25,-1
 80 10 l 1,26,-1
 80 0 l 1,27,-1
 30 0 l 1,28,-1
 30 10 l 1,29,-1
 20 10 l 1,30,-1
 20 20 l 1,31,-1
 10 20 l 1,0,-1
50 100 m 1,32,-1
 50 110 l 1,33,-1
 40 110 l 1,34,-1
 40 100 l 1,35,-1
 50 100 l 1,32,-1
40 20 m 1,36,-1
 70 20 l 1,37,-1
 70 30 l 1,38,-1
 80 30 l 1,39,-1
 80 70 l 1,40,-1
 70 70 l 1,41,-1
 70 80 l 1,42,-1
 40 80 l 1,43,-1
 40 70 l 1,44,-1
 30 70 l 1,45,-1
 30 30 l 1,46,-1
 40 30 l 1,47,-1
 40 20 l 1,36,-1
EndSplineSet
EndChar

StartChar: Rcaron
Encoding: 344 344 312
Width: 110
GlyphClass: 1
Flags: W
LayerCount: 2
Fore
SplineSet
10 0 m 1,0,-1
 10 100 l 1,1,-1
 30 100 l 1,2,-1
 30 110 l 1,3,-1
 20 110 l 1,4,-1
 20 120 l 1,5,-1
 40 120 l 1,6,-1
 40 110 l 1,7,-1
 60 110 l 1,8,-1
 60 120 l 1,9,-1
 80 120 l 1,10,-1
 80 110 l 1,11,-1
 70 110 l 1,12,-1
 70 100 l 1,13,-1
 80 100 l 1,14,-1
 80 90 l 1,15,-1
 90 90 l 1,16,-1
 90 50 l 1,17,-1
 80 50 l 1,18,-1
 80 40 l 1,19,-1
 70 40 l 1,20,-1
 70 30 l 1,21,-1
 80 30 l 1,22,-1
 80 20 l 1,23,-1
 90 20 l 1,24,-1
 90 0 l 1,25,-1
 70 0 l 1,26,-1
 70 10 l 1,27,-1
 60 10 l 1,28,-1
 60 20 l 1,29,-1
 50 20 l 1,30,-1
 50 30 l 1,31,-1
 40 30 l 1,32,-1
 40 40 l 1,33,-1
 30 40 l 1,34,-1
 30 0 l 1,35,-1
 10 0 l 1,0,-1
30 80 m 1,36,-1
 30 60 l 1,37,-1
 70 60 l 1,38,-1
 70 80 l 1,39,-1
 30 80 l 1,36,-1
EndSplineSet
EndChar

StartChar: Sacute
Encoding: 346 346 313
Width: 110
GlyphClass: 1
Flags: W
LayerCount: 2
Fore
SplineSet
10 10 m 1,0,-1
 10 30 l 1,1,-1
 30 30 l 1,2,-1
 30 20 l 1,3,-1
 80 20 l 1,4,-1
 80 40 l 1,5,-1
 20 40 l 1,6,-1
 20 50 l 1,7,-1
 10 50 l 1,8,-1
 10 90 l 1,9,-1
 20 90 l 1,10,-1
 20 100 l 1,11,-1
 30 100 l 1,12,-1
 30 110 l 1,13,-1
 50 110 l 1,14,-1
 50 120 l 1,15,-1
 80 120 l 1,16,-1
 80 110 l 1,17,-1
 60 110 l 1,18,-1
 60 100 l 1,19,-1
 90 100 l 1,20,-1
 90 90 l 1,21,-1
 100 90 l 1,22,-1
 100 70 l 1,23,-1
 80 70 l 1,24,-1
 80 80 l 1,25,-1
 30 80 l 1,26,-1
 30 60 l 1,27,-1
 90 60 l 1,28,-1
 90 50 l 1,29,-1
 100 50 l 1,30,-1
 100 10 l 1,31,-1
 90 10 l 1,32,-1
 90 0 l 1,33,-1
 20 0 l 1,34,-1
 20 10 l 1,35,-1
 10 10 l 1,0,-1
EndSplineSet
EndChar

StartChar: Scaron
Encoding: 352 352 314
Width: 110
GlyphClass: 1
Flags: W
LayerCount: 2
Fore
SplineSet
10 10 m 1,0,-1
 10 30 l 1,1,-1
 30 30 l 1,2,-1
 30 20 l 1,3,-1
 80 20 l 1,4,-1
 80 40 l 1,5,-1
 20 40 l 1,6,-1
 20 50 l 1,7,-1
 10 50 l 1,8,-1
 10 90 l 1,9,-1
 20 90 l 1,10,-1
 20 100 l 1,11,-1
 30 100 l 1,12,-1
 30 110 l 1,13,-1
 20 110 l 1,14,-1
 20 120 l 1,15,-1
 40 120 l 1,16,-1
 40 110 l 1,17,-1
 60 110 l 1,18,-1
 60 120 l 1,19,-1
 80 120 l 1,20,-1
 80 110 l 1,21,-1
 70 110 l 1,22,-1
 70 100 l 1,23,-1
 90 100 l 1,24,-1
 90 90 l 1,25,-1
 100 90 l 1,26,-1
 100 70 l 1,27,-1
 80 70 l 1,28,-1
 80 80 l 1,29,-1
 30 80 l 1,30,-1
 30 60 l 1,31,-1
 90 60 l 1,32,-1
 90 50 l 1,33,-1
 100 50 l 1,34,-1
 100 10 l 1,35,-1
 90 10 l 1,36,-1
 90 0 l 1,37,-1
 20 0 l 1,38,-1
 20 10 l 1,39,-1
 10 10 l 1,0,-1
EndSplineSet
EndChar

